STARTFONT 2.1
COMMENT 
COMMENT  16x16 JIS X0213-2000(Plane 2) Kanji Font,
COMMENT  Version 1.06 (Apr. 25 2004)
COMMENT 
COMMENT  This font is based on
COMMENT  jiskan16-1990.bdf and jisksp16-1990.bdf, 
COMMENT  and new designed characters are merged 
COMMENT  by
COMMENT     Toshiyuki Imamura <imamura@mbd.sphere.ne.jp>
COMMENT     HANATAKA Shinya <hanataka@abyss.rim.or.jp>
COMMENT 
COMMENT  thanks to
COMMENT     Taichi Kawabata
COMMENT     Koichi Yasuoka
COMMENT     TOYOSHIMA Masayuki
COMMENT     Kazuo Koike
COMMENT     SATO Yasunao
COMMENT 
FONT -Misc-Fixed-Medium-R-Normal--16-150-75-75-C-160-JISX0213.2000-2
SIZE 6 78 78
FONTBOUNDINGBOX 16 16 0 2
STARTPROPERTIES 18
FONT_ASCENT 14
FONT_DESCENT 2
COPYRIGHT "Public Domain"
FONTNAME_REGISTRY ""
FOUNDRY "Misc"
FAMILY_NAME "Fixed"
WEIGHT_NAME "Medium"
SLANT "R"
SETWIDTH_NAME "Normal"
ADD_STYLE_NAME ""
PIXEL_SIZE 16
POINT_SIZE 150
RESOLUTION_X 75
RESOLUTION_Y 75
SPACING "C"
AVERAGE_WIDTH 160
CHARSET_REGISTRY "JISX0213.2000"
CHARSET_ENCODING "2"
ENDPROPERTIES
CHARS 2436
STARTCHAR 02-01-01
ENCODING 8481
SWIDTH 1024 0
DWIDTH 16 0
BBX 16 16 0 -2
BITMAP
0000
0000
0000
0400
0400
0c00
0800
1ffe
1000
3000
6000
0000
0000
0000
0000
0000
ENDCHAR
STARTCHAR 02-01-02
ENCODING 8482
SWIDTH 1024 0
DWIDTH 16 0
BBX 16 16 0 -2
BITMAP
0000
ffff
0100
0300
0200
0600
0400
07f0
0010
0010
0010
0010
0010
0020
01c0
0000
ENDCHAR
STARTCHAR 02-01-03
ENCODING 8483
SWIDTH 1024 0
DWIDTH 16 0
BBX 16 16 0 -2
BITMAP
0000
ffff
0100
2100
21fe
2102
2102
2102
3ffe
0002
0002
0006
0004
000c
0078
0000
ENDCHAR
STARTCHAR 02-01-04
ENCODING 8484
SWIDTH 1024 0
DWIDTH 16 0
BBX 16 16 0 -2
BITMAP
0000
7ffc
0104
1904
0d04
0704
0204
0704
0584
0c8c
1808
3008
e078
0000
ffff
0000
ENDCHAR
STARTCHAR 02-01-05
ENCODING 8485
SWIDTH 1024 0
DWIDTH 16 0
BBX 16 16 0 -2
BITMAP
0010
0010
0410
0410
0410
0410
0410
0410
0410
0410
0470
05d0
0710
1c10
0010
0010
ENDCHAR
STARTCHAR 02-01-06
ENCODING 8486
SWIDTH 1024 0
DWIDTH 16 0
BBX 16 16 0 -2
BITMAP
0000
1008
0810
0420
0240
0180
0100
0100
0100
0100
0100
0100
0100
0100
0100
0000
ENDCHAR
STARTCHAR 02-01-07
ENCODING 8487
SWIDTH 1024 0
DWIDTH 16 0
BBX 16 16 0 -2
BITMAP
0000
7ff8
0008
0208
0208
0208
3fe8
0208
0208
0208
3fe8
0208
0208
020d
0207
0202
ENDCHAR
STARTCHAR 02-01-08
ENCODING 8488
SWIDTH 1024 0
DWIDTH 16 0
BBX 16 16 0 -2
BITMAP
0000
0400
0400
0a00
1a00
1200
3300
0100
0100
0180
0080
0040
0060
0030
000c
0003
ENDCHAR
STARTCHAR 02-01-09
ENCODING 8489
SWIDTH 1024 0
DWIDTH 16 0
BBX 16 16 0 -2
BITMAP
0030
01e0
3f00
0200
0200
0200
0200
0200
ffff
0200
0200
0200
0200
0202
0306
01fc
ENDCHAR
STARTCHAR 02-01-10
ENCODING 8490
SWIDTH 1024 0
DWIDTH 16 0
BBX 16 16 0 -2
BITMAP
0400
0400
0c00
0800
1800
1080
3080
6180
c100
0320
0230
0618
0c08
08fc
1f86
7002
ENDCHAR
STARTCHAR 02-01-11
ENCODING 8491
SWIDTH 1024 0
DWIDTH 16 0
BBX 16 16 0 -2
BITMAP
000c
00f8
1f80
1018
1070
11c0
1f46
114c
1178
1140
3160
2120
2130
611c
c107
0100
ENDCHAR
STARTCHAR 02-01-12
ENCODING 8492
SWIDTH 1024 0
DWIDTH 16 0
BBX 16 16 0 -2
BITMAP
0038
00e0
0780
3d00
0100
1980
3186
61cc
c178
0160
1930
3118
610c
c107
0100
0100
ENDCHAR
STARTCHAR 02-01-13
ENCODING 8493
SWIDTH 1024 0
DWIDTH 16 0
BBX 16 16 0 -2
BITMAP
0018
0ff0
0800
0ff8
0808
0ff8
0808
0ff8
0800
0ff8
0808
0808
1818
1010
3010
6070
ENDCHAR
STARTCHAR 02-01-14
ENCODING 8494
SWIDTH 1024 0
DWIDTH 16 0
BBX 16 16 0 -2
BITMAP
0100
0200
1ff0
1010
1010
1010
1010
1ff0
1000
1000
1ff8
1008
1008
1008
1008
1ff8
ENDCHAR
STARTCHAR 02-01-15
ENCODING 8495
SWIDTH 1024 0
DWIDTH 16 0
BBX 16 16 0 -2
BITMAP
1000
1000
1000
1000
1000
1000
1000
1000
1000
1000
1000
1000
1004
180c
0ff8
0000
ENDCHAR
STARTCHAR 02-01-16
ENCODING 8496
SWIDTH 1024 0
DWIDTH 16 0
BBX 16 16 0 -2
BITMAP
1020
1020
1020
1020
1fa0
1020
1020
1020
1020
ff20
8120
8120
8120
8121
8133
ff1e
ENDCHAR
STARTCHAR 02-01-17
ENCODING 8497
SWIDTH 1024 0
DWIDTH 16 0
BBX 16 16 0 -2
BITMAP
0200
0410
0808
3ffc
0004
2010
2412
4422
fe7f
0201
0000
1ffc
0000
0000
ffff
0000
ENDCHAR
STARTCHAR 02-01-18
ENCODING 8498
SWIDTH 1024 0
DWIDTH 16 0
BBX 16 16 0 -2
BITMAP
0100
0100
ffff
0400
0410
09f8
1f0c
0004
0888
0888
0888
0888
0888
1889
308b
e00e
ENDCHAR
STARTCHAR 02-01-19
ENCODING 8499
SWIDTH 1024 0
DWIDTH 16 0
BBX 16 16 0 -2
BITMAP
0100
0100
ffff
0810
300c
c423
3ffc
0420
3ffc
0420
ffff
0444
0c68
f830
0f9c
7807
ENDCHAR
STARTCHAR 02-01-20
ENCODING 8500
SWIDTH 1024 0
DWIDTH 16 0
BBX 16 16 0 -2
BITMAP
0100
ffff
0000
77ee
4422
77ae
44a2
ffff
8001
1ff8
1008
1ff8
1008
1ff8
1008
ffff
ENDCHAR
STARTCHAR 02-01-21
ENCODING 8501
SWIDTH 1024 0
DWIDTH 16 0
BBX 16 16 0 -2
BITMAP
0010
0010
0030
0060
0040
00c0
0180
0380
0e80
1880
0080
0080
0080
0080
0080
0080
ENDCHAR
STARTCHAR 02-01-22
ENCODING 8502
SWIDTH 1024 0
DWIDTH 16 0
BBX 16 16 0 -2
BITMAP
0000
0000
0000
0100
0380
02c0
0660
0c30
1818
300c
6006
c003
0000
0000
0000
0000
ENDCHAR
STARTCHAR 02-01-23
ENCODING 8503
SWIDTH 1024 0
DWIDTH 16 0
BBX 16 16 0 -2
BITMAP
0100
0100
0100
0100
0380
0280
06c0
0440
0c60
1830
3018
600e
c003
0000
ffff
0000
ENDCHAR
STARTCHAR 02-01-24
ENCODING 8504
SWIDTH 1024 0
DWIDTH 16 0
BBX 16 16 0 -2
BITMAP
0400
0400
0dff
0810
1810
1010
1010
3010
7010
d010
1010
1010
1010
1010
1010
1070
ENDCHAR
STARTCHAR 02-01-25
ENCODING 8505
SWIDTH 1024 0
DWIDTH 16 0
BBX 16 16 0 -2
BITMAP
0400
04f8
0c08
0808
1888
1088
3088
7088
d088
1088
118c
1104
1104
1306
1202
1603
ENDCHAR
STARTCHAR 02-01-26
ENCODING 8506
SWIDTH 1024 0
DWIDTH 16 0
BBX 16 16 0 -2
BITMAP
0100
0380
02c0
0660
0c30
1818
310c
e107
0100
0100
ffff
0100
0100
0100
0100
0100
ENDCHAR
STARTCHAR 02-01-27
ENCODING 8507
SWIDTH 1024 0
DWIDTH 16 0
BBX 16 16 0 -2
BITMAP
0440
0440
0cc0
0888
1888
1198
3310
7230
d020
1060
1044
10c4
1086
1182
111e
13f3
ENDCHAR
STARTCHAR 02-01-28
ENCODING 8508
SWIDTH 1024 0
DWIDTH 16 0
BBX 16 16 0 -2
BITMAP
0100
0380
02c0
0660
0c30
1818
300c
e107
0100
0100
4102
4102
4102
4102
7ffe
0000
ENDCHAR
STARTCHAR 02-01-29
ENCODING 8509
SWIDTH 1024 0
DWIDTH 16 0
BBX 16 16 0 -2
BITMAP
0820
0870
1850
10d8
318c
2306
66fb
a000
2000
21fc
2004
200c
2008
2018
2010
2030
ENDCHAR
STARTCHAR 02-01-30
ENCODING 8510
SWIDTH 1024 0
DWIDTH 16 0
BBX 16 16 0 -2
BITMAP
0440
0440
0c40
08fe
1890
1190
3010
7010
d1ff
1010
1010
1010
1010
1010
1010
1010
ENDCHAR
STARTCHAR 02-01-31
ENCODING 8511
SWIDTH 1024 0
DWIDTH 16 0
BBX 16 16 0 -2
BITMAP
0438
0408
0c4c
08c4
1886
1182
3123
7320
d020
1060
1044
10c4
1086
1182
111e
13f3
ENDCHAR
STARTCHAR 02-01-32
ENCODING 8512
SWIDTH 1024 0
DWIDTH 16 0
BBX 16 16 0 -2
BITMAP
0440
0440
0c40
0bff
1840
1040
30fc
7084
d084
11cc
1148
1378
1630
1078
10cc
1387
ENDCHAR
STARTCHAR 02-01-33
ENCODING 8513
SWIDTH 1024 0
DWIDTH 16 0
BBX 16 16 0 -2
BITMAP
0400
07ff
0c80
0880
1880
10fc
3084
7084
d0a4
10b4
1094
1084
1084
1085
10e5
1183
ENDCHAR
STARTCHAR 02-01-34
ENCODING 8514
SWIDTH 1024 0
DWIDTH 16 0
BBX 16 16 0 -2
BITMAP
0420
0420
0c20
0820
1bfe
1222
3222
7222
d222
13fe
1222
1222
1222
1222
13fe
1000
ENDCHAR
STARTCHAR 02-01-35
ENCODING 8515
SWIDTH 1024 0
DWIDTH 16 0
BBX 16 16 0 -2
BITMAP
0400
05fe
0c10
0810
1830
1020
3068
70ec
d1a6
1323
1020
1020
1020
1000
13ff
1000
ENDCHAR
STARTCHAR 02-01-36
ENCODING 8516
SWIDTH 1024 0
DWIDTH 16 0
BBX 16 16 0 -2
BITMAP
0420
0420
0c20
0820
183f
1020
3020
7020
d020
13fe
1202
1202
1202
1202
1202
13fe
ENDCHAR
STARTCHAR 02-01-37
ENCODING 8517
SWIDTH 1024 0
DWIDTH 16 0
BBX 16 16 0 -2
BITMAP
0100
0380
06c0
0c70
381c
e007
1ff0
0000
0000
7ffe
0100
1108
1108
310c
6106
0700
ENDCHAR
STARTCHAR 02-01-38
ENCODING 8518
SWIDTH 1024 0
DWIDTH 16 0
BBX 16 16 0 -2
BITMAP
0800
0fff
1840
1040
37fe
2442
6442
a54a
254a
254a
254a
25fa
2402
2402
2402
240e
ENDCHAR
STARTCHAR 02-01-39
ENCODING 8519
SWIDTH 1024 0
DWIDTH 16 0
BBX 16 16 0 -2
BITMAP
0400
05fc
0d04
0904
19fc
1104
3104
71fc
d121
1133
1116
1118
1108
110c
11e6
1703
ENDCHAR
STARTCHAR 02-01-40
ENCODING 8520
SWIDTH 1024 0
DWIDTH 16 0
BBX 16 16 0 -2
BITMAP
0806
083c
1be0
1020
3020
2020
67ff
a020
2020
2020
23fe
2202
2202
2202
2202
23fe
ENDCHAR
STARTCHAR 02-01-41
ENCODING 8521
SWIDTH 1024 0
DWIDTH 16 0
BBX 16 16 0 -2
BITMAP
04e0
0430
0cd8
098c
1b06
1603
31fc
7020
d020
1020
11fc
1020
1020
1020
17ff
1000
ENDCHAR
STARTCHAR 02-01-42
ENCODING 8522
SWIDTH 1024 0
DWIDTH 16 0
BBX 16 16 0 -2
BITMAP
0840
0840
1840
107f
30c1
2e93
6192
a010
2010
2138
2628
2c28
206c
2044
20c6
2183
ENDCHAR
STARTCHAR 02-01-43
ENCODING 8523
SWIDTH 1024 0
DWIDTH 16 0
BBX 16 16 0 -2
BITMAP
0820
0820
1820
17ff
3400
241e
64f0
a420
2420
243f
25e0
2420
2c20
2821
2833
201e
ENDCHAR
STARTCHAR 02-01-44
ENCODING 8524
SWIDTH 1024 0
DWIDTH 16 0
BBX 16 16 0 -2
BITMAP
0820
0820
1820
17ff
3040
20c8
6198
a312
21b6
2064
20cc
2198
2730
206c
21c6
2f03
ENDCHAR
STARTCHAR 02-01-45
ENCODING 8525
SWIDTH 1024 0
DWIDTH 16 0
BBX 16 16 0 -2
BITMAP
0420
0420
0c20
0bff
1a01
1241
3040
73ff
d044
1084
108c
11e8
1018
103c
10e6
1382
ENDCHAR
STARTCHAR 02-01-46
ENCODING 8526
SWIDTH 1024 0
DWIDTH 16 0
BBX 16 16 0 -2
BITMAP
0900
0900
19fe
1302
3202
25f2
6112
a112
21f2
2112
2112
2112
21f2
2006
2004
201c
ENDCHAR
STARTCHAR 02-01-47
ENCODING 8527
SWIDTH 1024 0
DWIDTH 16 0
BBX 16 16 0 -2
BITMAP
0820
0820
1bfe
1020
31fc
2020
63fe
a040
2044
27ff
2084
21a4
2134
2314
2604
201c
ENDCHAR
STARTCHAR 02-01-48
ENCODING 8528
SWIDTH 1024 0
DWIDTH 16 0
BBX 16 16 0 -2
BITMAP
0800
0bff
1a00
1200
32fe
2200
6200
a3ff
2248
2249
224b
224a
264c
2444
2c76
21c3
ENDCHAR
STARTCHAR 02-01-49
ENCODING 8529
SWIDTH 1024 0
DWIDTH 16 0
BBX 16 16 0 -2
BITMAP
0420
0422
0dfe
0824
1828
13ff
3020
7040
d1fc
1608
1010
13ff
1010
1010
1010
1070
ENDCHAR
STARTCHAR 02-01-50
ENCODING 8530
SWIDTH 1024 0
DWIDTH 16 0
BBX 16 16 0 -2
BITMAP
0824
0826
1822
17ff
3020
2222
6326
a12c
2020
2030
20b8
21ac
2326
2223
2020
20e0
ENDCHAR
STARTCHAR 02-01-51
ENCODING 8531
SWIDTH 1024 0
DWIDTH 16 0
BBX 16 16 0 -2
BITMAP
0400
05fc
0d04
0904
19fc
1000
33fe
7222
d222
1222
13fe
1200
1200
1201
1303
11fe
ENDCHAR
STARTCHAR 02-01-52
ENCODING 8532
SWIDTH 1024 0
DWIDTH 16 0
BBX 16 16 0 -2
BITMAP
0820
0924
1b26
1222
3020
23fe
6202
a202
23fe
2202
2202
23fe
2202
2202
2202
220e
ENDCHAR
STARTCHAR 02-01-53
ENCODING 8533
SWIDTH 1024 0
DWIDTH 16 0
BBX 16 16 0 -2
BITMAP
1040
1040
17fe
3402
2402
61f8
6000
a000
27fe
2090
2090
2090
2190
2111
2313
260e
ENDCHAR
STARTCHAR 02-01-54
ENCODING 8534
SWIDTH 1024 0
DWIDTH 16 0
BBX 16 16 0 -2
BITMAP
0820
0820
1fff
1104
30d8
2070
61dc
a707
2104
21fc
2104
21fc
2104
2304
2204
2604
ENDCHAR
STARTCHAR 02-01-55
ENCODING 8535
SWIDTH 1024 0
DWIDTH 16 0
BBX 16 16 0 -2
BITMAP
0908
0908
1908
1fe8
301f
2289
66c9
a449
2289
2289
2389
2109
2119
2393
22b2
26e6
ENDCHAR
STARTCHAR 02-01-56
ENCODING 8536
SWIDTH 1024 0
DWIDTH 16 0
BBX 16 16 0 -2
BITMAP
0400
05fe
0d00
09fc
1900
11fc
3100
7100
d7ff
1122
1136
1114
1118
110c
11e6
1703
ENDCHAR
STARTCHAR 02-01-57
ENCODING 8537
SWIDTH 1024 0
DWIDTH 16 0
BBX 16 16 0 -2
BITMAP
0880
08fc
1984
130c
30d8
2870
69dc
af07
2820
2820
2922
2b76
2a54
28d8
218c
2307
ENDCHAR
STARTCHAR 02-01-58
ENCODING 8538
SWIDTH 1024 0
DWIDTH 16 0
BBX 16 16 0 -2
BITMAP
0840
0a44
1a4c
16e8
34b0
2198
630c
a647
2040
2246
26ec
24a0
21b0
2118
230c
2607
ENDCHAR
STARTCHAR 02-01-59
ENCODING 8539
SWIDTH 1024 0
DWIDTH 16 0
BBX 16 16 0 -2
BITMAP
0800
0bfe
1a02
1222
32fa
2222
62fa
a222
2202
22fa
228a
228a
22fa
2202
2602
240e
ENDCHAR
STARTCHAR 02-01-60
ENCODING 8540
SWIDTH 1024 0
DWIDTH 16 0
BBX 16 16 0 -2
BITMAP
0820
0820
1820
17ff
3000
21fc
6104
a104
2104
21fc
2020
2124
2124
2326
2623
20e0
ENDCHAR
STARTCHAR 02-01-61
ENCODING 8541
SWIDTH 1024 0
DWIDTH 16 0
BBX 16 16 0 -2
BITMAP
0820
0820
1fff
1020
33fe
2022
67ff
a022
23fe
2020
2120
213e
2120
23a0
26e0
2c3f
ENDCHAR
STARTCHAR 02-01-62
ENCODING 8542
SWIDTH 1024 0
DWIDTH 16 0
BBX 16 16 0 -2
BITMAP
0800
09fc
1904
1104
3104
21fc
6100
a3fe
2620
2020
27ff
2050
20d8
218c
2306
2603
ENDCHAR
STARTCHAR 02-01-63
ENCODING 8543
SWIDTH 1024 0
DWIDTH 16 0
BBX 16 16 0 -2
BITMAP
0904
098c
1888
17ff
3000
23c2
6252
a252
2352
22d2
2252
2352
22c2
2242
2242
22ce
ENDCHAR
STARTCHAR 02-01-64
ENCODING 8544
SWIDTH 1024 0
DWIDTH 16 0
BBX 16 16 0 -2
BITMAP
0820
0820
1bfe
1020
31fc
2050
63ff
a088
2104
23fe
2505
2104
21fc
2104
2104
21fc
ENDCHAR
STARTCHAR 02-01-65
ENCODING 8545
SWIDTH 1024 0
DWIDTH 16 0
BBX 16 16 0 -2
BITMAP
0800
0bfe
1a22
1222
33fe
2222
6222
a3fe
2000
27ff
2122
2136
2114
2118
21cc
2707
ENDCHAR
STARTCHAR 02-01-66
ENCODING 8546
SWIDTH 1024 0
DWIDTH 16 0
BBX 16 16 0 -2
BITMAP
0800
0bfe
1a02
1202
33fe
2200
62fe
a220
2244
22fe
2212
2210
26fe
2410
2c10
21ff
ENDCHAR
STARTCHAR 02-01-67
ENCODING 8547
SWIDTH 1024 0
DWIDTH 16 0
BBX 16 16 0 -2
BITMAP
0820
08ac
19a6
1723
3068
2018
60f0
a780
21fe
2102
21fe
2102
21fe
2102
2102
21fe
ENDCHAR
STARTCHAR 02-01-68
ENCODING 8548
SWIDTH 1024 0
DWIDTH 16 0
BBX 16 16 0 -2
BITMAP
0820
0820
1bfe
1104
318c
2088
67ff
a000
2000
21fc
2104
2104
21fc
2104
2104
21fc
ENDCHAR
STARTCHAR 02-01-69
ENCODING 8549
SWIDTH 1024 0
DWIDTH 16 0
BBX 16 16 0 -2
BITMAP
1000
17ff
1041
327a
2240
67e0
6c3f
a800
27fe
2402
27fe
2402
27fe
2402
2402
240e
ENDCHAR
STARTCHAR 02-01-70
ENCODING 8550
SWIDTH 1024 0
DWIDTH 16 0
BBX 16 16 0 -2
BITMAP
0800
0bfe
1800
11fc
3104
2104
61fc
a000
2000
23fe
2222
2222
23fe
2222
2222
23fe
ENDCHAR
STARTCHAR 02-01-71
ENCODING 8551
SWIDTH 1024 0
DWIDTH 16 0
BBX 16 16 0 -2
BITMAP
1100
11de
170a
31ca
270a
610a
61da
a712
2136
2000
2020
27ff
2050
20d8
218c
2707
ENDCHAR
STARTCHAR 02-01-72
ENCODING 8552
SWIDTH 1024 0
DWIDTH 16 0
BBX 16 16 0 -2
BITMAP
1020
17ff
1020
33fe
2050
67ff
6088
a104
2623
2020
2326
21ac
2078
21ae
2723
2060
ENDCHAR
STARTCHAR 02-01-73
ENCODING 8553
SWIDTH 1024 0
DWIDTH 16 0
BBX 16 16 0 -2
BITMAP
1000
17ff
1090
3090
23fe
6292
6292
a3fe
2020
27ff
20a8
21ac
2124
2326
2623
2020
ENDCHAR
STARTCHAR 02-01-74
ENCODING 8554
SWIDTH 1024 0
DWIDTH 16 0
BBX 16 16 0 -2
BITMAP
1006
103c
13c4
3266
2622
6440
60c8
a190
20a4
207e
23c3
2020
27ff
2050
218c
2707
ENDCHAR
STARTCHAR 02-01-75
ENCODING 8555
SWIDTH 1024 0
DWIDTH 16 0
BBX 16 16 0 -2
BITMAP
100e
17f8
1400
37fe
2402
67fe
6400
a7ff
2421
24e7
27bd
2421
2ce7
2bbd
3821
20e7
ENDCHAR
STARTCHAR 02-01-76
ENCODING 8556
SWIDTH 1024 0
DWIDTH 16 0
BBX 16 16 0 -2
BITMAP
1080
1080
17ff
3481
2589
6110
63fe
a620
2a20
23fe
2220
2220
23fe
2220
2220
23ff
ENDCHAR
STARTCHAR 02-01-77
ENCODING 8557
SWIDTH 1024 0
DWIDTH 16 0
BBX 16 16 0 -2
BITMAP
0820
0870
18d8
118c
3777
2000
61fc
a104
21fc
2104
21fc
2300
22fe
2682
2c82
20fe
ENDCHAR
STARTCHAR 02-01-78
ENCODING 8558
SWIDTH 1024 0
DWIDTH 16 0
BBX 16 16 0 -2
BITMAP
0840
087c
18c4
11ac
3358
2030
60c0
a700
21fe
2220
2020
27ff
2020
2222
2222
23fe
ENDCHAR
STARTCHAR 02-01-79
ENCODING 8559
SWIDTH 1024 0
DWIDTH 16 0
BBX 16 16 0 -2
BITMAP
0840
0888
18f8
1204
3489
278f
6020
a050
218c
2727
2040
2190
2066
218c
2038
23e0
ENDCHAR
STARTCHAR 02-01-80
ENCODING 8560
SWIDTH 1024 0
DWIDTH 16 0
BBX 16 16 0 -2
BITMAP
0800
0bfe
1a22
13fe
3222
2222
63fe
a020
2124
27ff
2124
23fe
2020
23fe
2020
2020
ENDCHAR
STARTCHAR 02-01-81
ENCODING 8561
SWIDTH 1024 0
DWIDTH 16 0
BBX 16 16 0 -2
BITMAP
1122
1122
1322
3255
2655
6100
6108
a308
2248
264e
2248
2248
2248
2268
2258
228f
ENDCHAR
STARTCHAR 02-01-82
ENCODING 8562
SWIDTH 1024 0
DWIDTH 16 0
BBX 16 16 0 -2
BITMAP
1100
11de
1322
36a6
2154
6088
6104
a6fb
2000
2000
23fe
2020
2124
2326
2623
20e0
ENDCHAR
STARTCHAR 02-01-83
ENCODING 8563
SWIDTH 1024 0
DWIDTH 16 0
BBX 16 16 0 -2
BITMAP
1020
13fe
128a
3272
228a
63fe
6108
a308
2647
20fc
2184
274c
2058
2030
20ec
2787
ENDCHAR
STARTCHAR 02-01-84
ENCODING 8564
SWIDTH 1024 0
DWIDTH 16 0
BBX 16 16 0 -2
BITMAP
0800
0bff
1848
13ff
3249
2249
63ff
a000
21fe
2000
23ff
2020
2124
2326
2623
20e0
ENDCHAR
STARTCHAR 02-01-85
ENCODING 8565
SWIDTH 1024 0
DWIDTH 16 0
BBX 16 16 0 -2
BITMAP
0800
0bdf
18c5
114b
32d5
2149
6221
a070
21dc
2707
2020
21c8
2032
21c4
2018
21e0
ENDCHAR
STARTCHAR 02-01-86
ENCODING 8566
SWIDTH 1024 0
DWIDTH 16 0
BBX 16 16 0 -2
BITMAP
1000
1fff
1090
37fe
2492
6492
67fe
a248
2358
2150
2fff
2150
2358
264c
2c46
2040
ENDCHAR
STARTCHAR 02-01-87
ENCODING 8567
SWIDTH 1024 0
DWIDTH 16 0
BBX 16 16 0 -2
BITMAP
1000
13fe
1222
3222
23aa
62ba
6222
a3fe
2020
23fe
2020
27ff
2000
2292
26db
2449
ENDCHAR
STARTCHAR 02-01-88
ENCODING 8568
SWIDTH 1024 0
DWIDTH 16 0
BBX 16 16 0 -2
BITMAP
1000
17df
1451
37df
2410
6451
63cf
a000
2088
23fe
2088
2088
27ff
2088
218c
2707
ENDCHAR
STARTCHAR 02-01-89
ENCODING 8569
SWIDTH 1024 0
DWIDTH 16 0
BBX 16 16 0 -2
BITMAP
1108
1110
13fe
3620
23fc
6220
63fc
a220
23fe
2020
27ff
20a4
21a4
2326
2623
2020
ENDCHAR
STARTCHAR 02-01-90
ENCODING 8570
SWIDTH 1024 0
DWIDTH 16 0
BBX 16 16 0 -2
BITMAP
113c
1202
15fd
3050
23fe
6252
639e
a202
23fe
2202
23fe
2004
27ff
2104
2084
201c
ENDCHAR
STARTCHAR 02-01-91
ENCODING 8571
SWIDTH 1024 0
DWIDTH 16 0
BBX 16 16 0 -2
BITMAP
1088
13fe
1088
30f8
2000
67ff
6020
a3fe
2222
2222
23fe
2222
2222
23fe
2104
2603
ENDCHAR
STARTCHAR 02-01-92
ENCODING 8572
SWIDTH 1024 0
DWIDTH 16 0
BBX 16 16 0 -2
BITMAP
1020
17ff
1020
33fe
2222
63fe
6222
a3fe
2022
27ff
2041
2166
2523
2505
2d8c
28f8
ENDCHAR
STARTCHAR 02-01-93
ENCODING 8573
SWIDTH 1024 0
DWIDTH 16 0
BBX 16 16 0 -2
BITMAP
1000
17df
1451
37df
2451
67df
6401
a4f9
2489
24f9
2489
24f9
2489
2489
2499
2407
ENDCHAR
STARTCHAR 02-01-94
ENCODING 8574
SWIDTH 1024 0
DWIDTH 16 0
BBX 16 16 0 -2
BITMAP
1050
1252
1154
37ff
2104
6088
63fe
a020
21fc
2020
27ff
20a8
21ac
2326
2623
2020
ENDCHAR
STARTCHAR 02-03-01
ENCODING 8993
SWIDTH 1024 0
DWIDTH 16 0
BBX 16 16 0 -2
BITMAP
0820
0850
198c
1777
3000
23fe
6222
a2aa
22aa
23fe
2000
21fc
2104
21fc
2104
21fc
ENDCHAR
STARTCHAR 02-03-02
ENCODING 8994
SWIDTH 1024 0
DWIDTH 16 0
BBX 16 16 0 -2
BITMAP
0bff
0848
1bff
1249
3249
23ff
6000
a3ff
2201
22fd
2221
22fd
2229
22fd
2201
23ff
ENDCHAR
STARTCHAR 02-03-03
ENCODING 8995
SWIDTH 1024 0
DWIDTH 16 0
BBX 16 16 0 -2
BITMAP
1400
14bf
1702
3414
2488
63bf
6409
a78a
2a28
222e
2fa8
2228
2328
22b8
246c
28c7
ENDCHAR
STARTCHAR 02-03-04
ENCODING 8996
SWIDTH 1024 0
DWIDTH 16 0
BBX 16 16 0 -2
BITMAP
1200
17fe
1d54
3154
27ff
6154
6154
a3fe
2000
2204
23de
2654
2d54
20ff
2384
2e04
ENDCHAR
STARTCHAR 02-03-05
ENCODING 8997
SWIDTH 1024 0
DWIDTH 16 0
BBX 16 16 0 -2
BITMAP
1442
1224
1fff
3800
2bc8
6908
6fef
aa4a
2bda
2a52
2bca
2a4e
2a44
2bce
364a
205b
ENDCHAR
STARTCHAR 02-03-06
ENCODING 8998
SWIDTH 1024 0
DWIDTH 16 0
BBX 16 16 0 -2
BITMAP
1088
1108
17eb
f42e
1428
17e8
1428
7429
d7eb
1006
0440
0440
0c40
1841
3063
e03e
ENDCHAR
STARTCHAR 02-03-07
ENCODING 8999
SWIDTH 1024 0
DWIDTH 16 0
BBX 16 16 0 -2
BITMAP
0000
0100
0930
1918
310c
6106
5ffa
0240
0420
ffff
0810
1818
300c
e007
0000
0000
ENDCHAR
STARTCHAR 02-03-08
ENCODING 9000
SWIDTH 1024 0
DWIDTH 16 0
BBX 16 16 0 -2
BITMAP
0808
0c18
0630
0220
1ffc
0080
0080
0080
3ffe
0140
0140
0360
0220
0630
1c18
700e
ENDCHAR
STARTCHAR 02-03-09
ENCODING 9001
SWIDTH 1024 0
DWIDTH 16 0
BBX 16 16 0 -2
BITMAP
0000
3ffc
2004
2004
2004
2ff4
2004
2004
2004
2ff4
2004
2004
2004
2004
2004
201c
ENDCHAR
STARTCHAR 02-03-10
ENCODING 9002
SWIDTH 1024 0
DWIDTH 16 0
BBX 16 16 0 -2
BITMAP
0000
7ffe
4002
4002
4002
47e2
4422
4422
4422
4422
47e2
4002
4002
4002
4002
400e
ENDCHAR
STARTCHAR 02-03-11
ENCODING 9003
SWIDTH 1024 0
DWIDTH 16 0
BBX 16 16 0 -2
BITMAP
0420
0420
7ffe
0420
0420
07e0
0100
3ffc
2104
2d64
2524
2524
2b54
318c
2104
211c
ENDCHAR
STARTCHAR 02-03-12
ENCODING 9004
SWIDTH 1024 0
DWIDTH 16 0
BBX 16 16 0 -2
BITMAP
0100
0100
0100
7ffe
4102
4102
4102
0380
0280
0280
0680
0480
0c80
1881
30c3
e07e
ENDCHAR
STARTCHAR 02-03-13
ENCODING 9005
SWIDTH 1024 0
DWIDTH 16 0
BBX 16 16 0 -2
BITMAP
0000
7ffe
4002
4002
3f00
12fc
1244
1e44
126c
1228
1e38
1210
1238
1e2c
3266
02c3
ENDCHAR
STARTCHAR 02-03-14
ENCODING 9006
SWIDTH 1024 0
DWIDTH 16 0
BBX 16 16 0 -2
BITMAP
0100
0100
0100
ffff
0240
0660
0c30
1818
338c
e0e7
0000
0000
0070
01c0
0700
0c00
ENDCHAR
STARTCHAR 02-03-15
ENCODING 9007
SWIDTH 1024 0
DWIDTH 16 0
BBX 16 16 0 -2
BITMAP
000c
6038
31e0
1020
0020
0020
07ff
0020
1020
1070
3050
2050
60d8
4088
c18c
0707
ENDCHAR
STARTCHAR 02-03-16
ENCODING 9008
SWIDTH 1024 0
DWIDTH 16 0
BBX 16 16 0 -2
BITMAP
0020
6120
3120
11fe
0320
0620
0020
07ff
1088
1088
3088
2088
6188
4109
c309
0607
ENDCHAR
STARTCHAR 02-03-17
ENCODING 9009
SWIDTH 1024 0
DWIDTH 16 0
BBX 16 16 0 -2
BITMAP
0088
618c
3306
1623
0070
00d8
018c
0306
1603
1000
33fe
2202
6202
4202
c202
03fe
ENDCHAR
STARTCHAR 02-03-18
ENCODING 9010
SWIDTH 1024 0
DWIDTH 16 0
BBX 16 16 0 -2
BITMAP
0000
3ff8
2008
2008
2008
2008
2008
2008
2008
2008
2008
2008
200c
6005
4007
c002
ENDCHAR
STARTCHAR 02-03-19
ENCODING 9011
SWIDTH 1024 0
DWIDTH 16 0
BBX 16 16 0 -2
BITMAP
1e88
4252
2424
1ff8
e007
0ff0
0810
0ff0
0420
7ffe
0000
0fe0
0820
1821
3033
e01e
ENDCHAR
STARTCHAR 02-03-20
ENCODING 9012
SWIDTH 1024 0
DWIDTH 16 0
BBX 16 16 0 -2
BITMAP
63fe
3220
13fc
0220
03fc
1220
33ff
6009
c525
0893
0000
0fe0
0820
1821
3033
e01e
ENDCHAR
STARTCHAR 02-03-21
ENCODING 9013
SWIDTH 1024 0
DWIDTH 16 0
BBX 16 16 0 -2
BITMAP
0010
0410
0410
0410
0410
0410
0410
0410
0410
0410
0410
0010
0010
0010
0010
0070
ENDCHAR
STARTCHAR 02-03-22
ENCODING 9014
SWIDTH 1024 0
DWIDTH 16 0
BBX 16 16 0 -2
BITMAP
0902
0992
0892
0812
7fd2
0812
0892
0992
0b12
0e12
0412
0e02
1a02
3342
e1c2
008e
ENDCHAR
STARTCHAR 02-03-23
ENCODING 9015
SWIDTH 1024 0
DWIDTH 16 0
BBX 16 16 0 -2
BITMAP
0002
3f92
2092
2092
2092
3f92
2092
2092
2092
3f92
2092
2082
2082
6082
4082
c38e
ENDCHAR
STARTCHAR 02-03-24
ENCODING 9016
SWIDTH 1024 0
DWIDTH 16 0
BBX 16 16 0 -2
BITMAP
0400
0e7f
1b11
3111
6191
ded1
0411
7f91
4491
4491
7f91
0431
0e23
1a22
3362
e1ce
ENDCHAR
STARTCHAR 02-03-25
ENCODING 9017
SWIDTH 1024 0
DWIDTH 16 0
BBX 16 16 0 -2
BITMAP
0901
0909
0909
79e9
0909
0909
79e9
0909
0909
39e9
e909
0901
0901
1901
3101
6107
ENDCHAR
STARTCHAR 02-03-26
ENCODING 9018
SWIDTH 1024 0
DWIDTH 16 0
BBX 16 16 0 -2
BITMAP
0401
0409
7fc9
4049
4049
2009
3bc9
2a49
6a49
4a49
fa49
12c1
3201
2221
6261
c1c7
ENDCHAR
STARTCHAR 02-03-27
ENCODING 9019
SWIDTH 1024 0
DWIDTH 16 0
BBX 16 16 0 -2
BITMAP
0801
8891
8891
8891
ff91
0011
ff91
0811
1011
ff91
a491
a481
a481
a481
a481
a587
ENDCHAR
STARTCHAR 02-03-28
ENCODING 9020
SWIDTH 1024 0
DWIDTH 16 0
BBX 16 16 0 -2
BITMAP
0401
0409
7fc9
1109
0e09
3189
7fc9
4009
5209
5f89
5209
4201
4f81
c201
83c1
3e07
ENDCHAR
STARTCHAR 02-03-29
ENCODING 9021
SWIDTH 1024 0
DWIDTH 16 0
BBX 16 16 0 -2
BITMAP
2101
2109
7be9
5289
d649
8409
0a09
1109
3189
eee9
0009
3f81
2081
2081
2081
3f87
ENDCHAR
STARTCHAR 02-03-30
ENCODING 9022
SWIDTH 1024 0
DWIDTH 16 0
BBX 16 16 0 -2
BITMAP
0001
7ffd
5105
5b85
4a85
7ffd
448d
5525
5525
5525
5525
5f71
c451
8c51
98d9
308b
ENDCHAR
STARTCHAR 02-03-31
ENCODING 9023
SWIDTH 1024 0
DWIDTH 16 0
BBX 16 16 0 -2
BITMAP
3002
6782
4292
5292
7492
d592
0012
ff92
2412
e792
8092
8082
e782
2402
3f82
e00e
ENDCHAR
STARTCHAR 02-03-32
ENCODING 9024
SWIDTH 1024 0
DWIDTH 16 0
BBX 16 16 0 -2
BITMAP
0201
7ff5
4845
7df5
4845
5ad5
5ad5
6b55
4485
5ce5
4485
5ce1
4481
dce1
8481
0883
ENDCHAR
STARTCHAR 02-03-33
ENCODING 9025
SWIDTH 1024 0
DWIDTH 16 0
BBX 16 16 0 -2
BITMAP
0010
7e10
0010
00fe
0012
0012
ff32
2422
2422
2466
2444
24c4
259c
6401
4603
c3fe
ENDCHAR
STARTCHAR 02-03-34
ENCODING 9026
SWIDTH 1024 0
DWIDTH 16 0
BBX 16 16 0 -2
BITMAP
0310
0e10
3810
2010
207f
3f91
2211
2211
2211
2211
2211
2231
6221
4223
c262
02ce
ENDCHAR
STARTCHAR 02-03-35
ENCODING 9027
SWIDTH 1024 0
DWIDTH 16 0
BBX 16 16 0 -2
BITMAP
0100
0100
3ffc
0104
0304
060c
1c08
7038
0000
1010
ff7f
1111
3131
2323
6262
cece
ENDCHAR
STARTCHAR 02-03-36
ENCODING 9028
SWIDTH 1024 0
DWIDTH 16 0
BBX 16 16 0 -2
BITMAP
0010
fe10
1010
1010
11ff
1011
3e11
2211
6211
6211
a231
2221
2223
3e62
0042
00ce
ENDCHAR
STARTCHAR 02-03-37
ENCODING 9029
SWIDTH 1024 0
DWIDTH 16 0
BBX 16 16 0 -2
BITMAP
1010
1010
3210
2210
7f7e
0112
0812
4812
7f12
8812
0812
ffb2
0822
0826
0864
08cc
ENDCHAR
STARTCHAR 02-03-38
ENCODING 9030
SWIDTH 1024 0
DWIDTH 16 0
BBX 16 16 0 -2
BITMAP
0010
7f90
4010
4010
5f7f
4411
4411
5f11
4411
4411
4411
5f11
4033
4022
7fa2
006e
ENDCHAR
STARTCHAR 02-03-39
ENCODING 9031
SWIDTH 1024 0
DWIDTH 16 0
BBX 16 16 0 -2
BITMAP
0810
0810
ff90
0810
087f
7f11
4111
4111
4111
7f31
1421
1423
3462
24c6
6601
c3ff
ENDCHAR
STARTCHAR 02-03-40
ENCODING 9032
SWIDTH 1024 0
DWIDTH 16 0
BBX 16 16 0 -2
BITMAP
4820
4820
7f20
c8fc
8824
3ea4
0864
0845
1f65
f0a3
0100
7ffe
0102
0202
0c06
f01c
ENDCHAR
STARTCHAR 02-03-41
ENCODING 9033
SWIDTH 1024 0
DWIDTH 16 0
BBX 16 16 0 -2
BITMAP
0810
0810
ff90
0810
497f
4911
4911
aa91
aa91
1c11
1c11
2a11
6b33
c9a2
0822
0866
ENDCHAR
STARTCHAR 02-03-42
ENCODING 9034
SWIDTH 1024 0
DWIDTH 16 0
BBX 16 16 0 -2
BITMAP
0410
7fd0
4910
5f90
497f
4f11
4011
7fd1
4411
5f91
5491
5f91
54b3
dfa2
8922
30e6
ENDCHAR
STARTCHAR 02-03-43
ENCODING 9035
SWIDTH 1024 0
DWIDTH 16 0
BBX 16 16 0 -2
BITMAP
0808
ff88
0008
f788
94bf
f789
2209
ff89
2209
ff89
2209
ff89
3209
e289
3911
e0d3
ENDCHAR
STARTCHAR 02-03-44
ENCODING 9036
SWIDTH 1024 0
DWIDTH 16 0
BBX 16 16 0 -2
BITMAP
1000
1000
1fff
3001
2101
6921
cd61
0541
0101
3ff9
0301
07c1
0d63
1932
2106
011c
ENDCHAR
STARTCHAR 02-03-45
ENCODING 9037
SWIDTH 1024 0
DWIDTH 16 0
BBX 16 16 0 -2
BITMAP
1000
1000
1ffe
3002
6802
cff2
1902
0102
3ffa
0102
1112
1112
1112
1ff6
0004
001c
ENDCHAR
STARTCHAR 02-03-46
ENCODING 9038
SWIDTH 1024 0
DWIDTH 16 0
BBX 16 16 0 -2
BITMAP
0000
7ffe
4000
4ff0
4100
4100
4100
4ff0
4100
4120
4110
4110
5ff8
4000
7ffe
0000
ENDCHAR
STARTCHAR 02-03-47
ENCODING 9039
SWIDTH 1024 0
DWIDTH 16 0
BBX 16 16 0 -2
BITMAP
7ffe
4080
5ffc
4080
4ff8
4000
5ffc
5224
5ffc
4808
4ff8
4808
4ff8
4630
4c18
7ffe
ENDCHAR
STARTCHAR 02-03-48
ENCODING 9040
SWIDTH 1024 0
DWIDTH 16 0
BBX 16 16 0 -2
BITMAP
0000
ffff
2000
27fc
2400
27fc
2404
27fc
2400
2ffe
2c92
37fe
2492
2496
3000
1fff
ENDCHAR
STARTCHAR 02-03-49
ENCODING 9041
SWIDTH 1024 0
DWIDTH 16 0
BBX 16 16 0 -2
BITMAP
0000
fff8
0008
0408
0408
0408
0408
0408
ffe8
0408
0408
0408
040c
0405
0407
0002
ENDCHAR
STARTCHAR 02-03-50
ENCODING 9042
SWIDTH 1024 0
DWIDTH 16 0
BBX 16 16 0 -2
BITMAP
0020
0820
0820
0820
7f20
0820
0820
0820
003f
07e0
fc20
0020
0020
0020
0020
0020
ENDCHAR
STARTCHAR 02-03-51
ENCODING 9043
SWIDTH 1024 0
DWIDTH 16 0
BBX 16 16 0 -2
BITMAP
0100
0100
3ff8
0100
1ff0
1010
1010
1ff0
1010
1010
1ff0
0100
7ffc
0100
0100
0100
ENDCHAR
STARTCHAR 02-03-52
ENCODING 9044
SWIDTH 1024 0
DWIDTH 16 0
BBX 16 16 0 -2
BITMAP
0020
7f20
4420
4420
4420
7f30
4138
412c
4126
7f23
4420
4420
4420
4420
7f20
0020
ENDCHAR
STARTCHAR 02-03-53
ENCODING 9045
SWIDTH 1024 0
DWIDTH 16 0
BBX 16 16 0 -2
BITMAP
0300
0e00
78fe
4082
4082
4082
4082
4082
4082
4082
4082
5e82
f082
009e
0080
0080
ENDCHAR
STARTCHAR 02-03-54
ENCODING 9046
SWIDTH 1024 0
DWIDTH 16 0
BBX 16 16 0 -2
BITMAP
1ff0
0040
3d8c
0550
0520
1910
e10f
0300
3ffc
0000
3ffc
2004
201c
2000
3002
1ffe
ENDCHAR
STARTCHAR 02-03-55
ENCODING 9047
SWIDTH 1024 0
DWIDTH 16 0
BBX 16 16 0 -2
BITMAP
0000
7fff
4000
431c
5e70
4410
4410
5f7e
4410
4e38
4d38
d554
9454
a492
0411
0410
ENDCHAR
STARTCHAR 02-03-56
ENCODING 9048
SWIDTH 1024 0
DWIDTH 16 0
BBX 16 16 0 -2
BITMAP
7fff
510a
5f09
407f
5f08
511c
5f14
5136
5363
4ffc
4884
4ffc
c884
8ffc
8080
0080
ENDCHAR
STARTCHAR 02-03-57
ENCODING 9049
SWIDTH 1024 0
DWIDTH 16 0
BBX 16 16 0 -2
BITMAP
0000
0080
0080
0080
0080
ffff
0400
0400
0c10
0818
1808
11fc
3f04
6006
0000
0000
ENDCHAR
STARTCHAR 02-03-58
ENCODING 9050
SWIDTH 1024 0
DWIDTH 16 0
BBX 16 16 0 -2
BITMAP
0200
0200
0200
ffff
0400
0400
0c80
0880
1990
1118
3108
630c
c204
027e
07c2
0c03
ENDCHAR
STARTCHAR 02-03-59
ENCODING 9051
SWIDTH 1024 0
DWIDTH 16 0
BBX 16 16 0 -2
BITMAP
0100
0100
ffff
0100
3ffc
2104
2104
3ffc
2104
2104
3ffc
0400
0c18
080c
1ffe
f003
ENDCHAR
STARTCHAR 02-03-60
ENCODING 9052
SWIDTH 1024 0
DWIDTH 16 0
BBX 16 16 0 -2
BITMAP
0000
1ff8
1008
1008
1038
1000
1000
1ff8
1408
1618
1330
1160
11c0
10e0
1330
1618
ENDCHAR
STARTCHAR 02-03-61
ENCODING 9053
SWIDTH 1024 0
DWIDTH 16 0
BBX 16 16 0 -2
BITMAP
0100
0100
ffff
0100
0100
1ff8
1008
1008
1ff8
0000
3ffc
0818
0670
03c0
1e78
f00f
ENDCHAR
STARTCHAR 02-03-62
ENCODING 9054
SWIDTH 1024 0
DWIDTH 16 0
BBX 16 16 0 -2
BITMAP
0000
7ffe
40a2
40a2
7fa2
4422
4436
5f94
5494
549c
5488
5488
d49c
9594
8436
0463
ENDCHAR
STARTCHAR 02-03-63
ENCODING 9055
SWIDTH 1024 0
DWIDTH 16 0
BBX 16 16 0 -2
BITMAP
0000
fefe
4242
6666
2c2c
1818
6c6c
c6c7
0000
fefe
4242
6666
2c2c
1818
6c6c
c6c7
ENDCHAR
STARTCHAR 02-03-64
ENCODING 9056
SWIDTH 1024 0
DWIDTH 16 0
BBX 16 16 0 -2
BITMAP
0000
7efe
4202
4202
4202
7efe
4000
41fe
7e42
4046
406c
4038
7e10
4038
40ec
4387
ENDCHAR
STARTCHAR 02-03-65
ENCODING 9057
SWIDTH 1024 0
DWIDTH 16 0
BBX 16 16 0 -2
BITMAP
0000
03e0
0820
0830
1810
1018
300c
6006
c003
1ff8
1008
1008
1008
1008
1008
1ff8
ENDCHAR
STARTCHAR 02-03-66
ENCODING 9058
SWIDTH 1024 0
DWIDTH 16 0
BBX 16 16 0 -2
BITMAP
0200
0200
7ff0
0210
0610
0410
0c11
1813
700e
1ff8
1008
1008
1008
1008
1008
1ff8
ENDCHAR
STARTCHAR 02-03-67
ENCODING 9059
SWIDTH 1024 0
DWIDTH 16 0
BBX 16 16 0 -2
BITMAP
0000
7ffe
4000
4000
4000
47e0
4420
4420
4420
4420
47e0
4000
4000
4000
7ffe
0000
ENDCHAR
STARTCHAR 02-03-68
ENCODING 9060
SWIDTH 1024 0
DWIDTH 16 0
BBX 16 16 0 -2
BITMAP
0000
03ff
fa00
8a04
8ac4
8a44
8a6c
8a28
8a38
8a10
8a38
fa28
026c
02c4
0200
03ff
ENDCHAR
STARTCHAR 02-03-69
ENCODING 9061
SWIDTH 1024 0
DWIDTH 16 0
BBX 16 16 0 -2
BITMAP
0020
0070
f850
88d8
898c
8f8f
8888
8888
8888
8888
8888
f888
0188
0108
0308
0608
ENDCHAR
STARTCHAR 02-03-70
ENCODING 9062
SWIDTH 1024 0
DWIDTH 16 0
BBX 16 16 0 -2
BITMAP
0020
0026
f83c
8be0
8820
8820
8924
8924
8924
8924
8924
f9fc
0020
0021
0033
001e
ENDCHAR
STARTCHAR 02-03-71
ENCODING 9063
SWIDTH 1024 0
DWIDTH 16 0
BBX 16 16 0 -2
BITMAP
0088
0088
f98c
8904
8b06
8e8b
8888
8888
89d8
8a50
8830
f820
0070
00d8
018c
0707
ENDCHAR
STARTCHAR 02-03-72
ENCODING 9064
SWIDTH 1024 0
DWIDTH 16 0
BBX 16 16 0 -2
BITMAP
0000
03ff
f200
9200
927c
9244
9244
9244
9244
9244
924c
f240
0640
0441
0c63
003e
ENDCHAR
STARTCHAR 02-03-73
ENCODING 9065
SWIDTH 1024 0
DWIDTH 16 0
BBX 16 16 0 -2
BITMAP
0000
03fe
f202
9202
9202
93fe
9200
9240
9242
924e
9278
f240
0640
0441
0c63
003e
ENDCHAR
STARTCHAR 02-03-74
ENCODING 9066
SWIDTH 1024 0
DWIDTH 16 0
BBX 16 16 0 -2
BITMAP
0108
0108
f308
9208
963f
9489
9689
9389
9109
9109
9319
f251
0253
07f2
0c22
006e
ENDCHAR
STARTCHAR 02-03-75
ENCODING 9067
SWIDTH 1024 0
DWIDTH 16 0
BBX 16 16 0 -2
BITMAP
0000
07fe
f492
9492
9492
9492
9492
9592
951e
9702
9402
f402
0402
0402
07fe
0000
ENDCHAR
STARTCHAR 02-03-76
ENCODING 9068
SWIDTH 1024 0
DWIDTH 16 0
BBX 16 16 0 -2
BITMAP
000c
0038
f9e0
8820
8820
8bff
8820
8820
8870
88f8
89ac
fb26
0623
0020
0020
0020
ENDCHAR
STARTCHAR 02-03-77
ENCODING 9069
SWIDTH 1024 0
DWIDTH 16 0
BBX 16 16 0 -2
BITMAP
0040
0040
78c0
4884
4984
493e
4be3
4800
4800
4800
49fe
7902
0102
0102
0102
01fe
ENDCHAR
STARTCHAR 02-03-78
ENCODING 9070
SWIDTH 1024 0
DWIDTH 16 0
BBX 16 16 0 -2
BITMAP
0010
0010
7c10
4410
45ff
4410
4410
4410
4410
44fe
4482
7c82
0082
0082
0082
00fe
ENDCHAR
STARTCHAR 02-03-79
ENCODING 9071
SWIDTH 1024 0
DWIDTH 16 0
BBX 16 16 0 -2
BITMAP
0000
0ff0
0810
0810
0ff0
0000
7ffe
0810
0ff0
0810
0ff0
081e
0ff0
7810
0010
0010
ENDCHAR
STARTCHAR 02-03-80
ENCODING 9072
SWIDTH 1024 0
DWIDTH 16 0
BBX 16 16 0 -2
BITMAP
0020
0020
f7ff
9020
93fe
9022
93fe
9220
9220
93ff
9051
f051
00db
018c
0306
0e03
ENDCHAR
STARTCHAR 02-03-81
ENCODING 9073
SWIDTH 1024 0
DWIDTH 16 0
BBX 16 16 0 -2
BITMAP
0020
0020
f020
97ff
9020
9020
9020
93fe
9000
9000
91fc
f104
0104
0104
0104
01fc
ENDCHAR
STARTCHAR 02-03-82
ENCODING 9074
SWIDTH 1024 0
DWIDTH 16 0
BBX 16 16 0 -2
BITMAP
0020
0120
f120
9120
93fe
9220
9420
9020
97ff
90a8
90a8
f1ac
0124
0326
0623
0020
ENDCHAR
STARTCHAR 02-03-83
ENCODING 9075
SWIDTH 1024 0
DWIDTH 16 0
BBX 16 16 0 -2
BITMAP
0090
0090
f092
9696
9394
9090
9090
9090
909c
9396
9693
f090
0190
0111
0313
0e0e
ENDCHAR
STARTCHAR 02-03-84
ENCODING 9076
SWIDTH 1024 0
DWIDTH 16 0
BBX 16 16 0 -2
BITMAP
0000
03fe
f800
8800
89fc
8904
8904
89fc
8904
8904
8904
f9fc
0000
0000
07ff
0000
ENDCHAR
STARTCHAR 02-03-85
ENCODING 9077
SWIDTH 1024 0
DWIDTH 16 0
BBX 16 16 0 -2
BITMAP
0100
017e
f312
9212
9612
96ff
9a12
9212
9212
927e
9210
f210
0210
0230
0220
0260
ENDCHAR
STARTCHAR 02-03-86
ENCODING 9078
SWIDTH 1024 0
DWIDTH 16 0
BBX 16 16 0 -2
BITMAP
0000
01fe
f902
8902
897a
8902
8902
897a
894a
894a
894a
f97a
0102
0102
0102
0106
ENDCHAR
STARTCHAR 02-03-87
ENCODING 9079
SWIDTH 1024 0
DWIDTH 16 0
BBX 16 16 0 -2
BITMAP
0088
0088
ffff
8888
8800
8890
8890
8992
8916
8b1c
8d30
f910
0110
0111
0119
010f
ENDCHAR
STARTCHAR 02-03-88
ENCODING 9080
SWIDTH 1024 0
DWIDTH 16 0
BBX 16 16 0 -2
BITMAP
0100
01ff
f104
9304
9274
9654
9654
9a54
9254
9254
9274
f204
0204
0204
0204
021c
ENDCHAR
STARTCHAR 02-03-89
ENCODING 9081
SWIDTH 1024 0
DWIDTH 16 0
BBX 16 16 0 -2
BITMAP
0000
03fc
f204
9204
93fc
9204
9204
93fc
9204
9204
93fc
f090
0090
0191
0313
0e0e
ENDCHAR
STARTCHAR 02-03-90
ENCODING 9082
SWIDTH 1024 0
DWIDTH 16 0
BBX 16 16 0 -2
BITMAP
0020
0020
f3fe
9020
9020
97ff
9401
9401
91fc
9008
9010
f7ff
0020
0020
0020
00e0
ENDCHAR
STARTCHAR 02-03-91
ENCODING 9083
SWIDTH 1024 0
DWIDTH 16 0
BBX 16 16 0 -2
BITMAP
0202
020e
f238
9220
9fa0
923f
9224
9224
93a4
9e24
9224
f224
0264
0244
02c4
0604
ENDCHAR
STARTCHAR 02-03-92
ENCODING 9084
SWIDTH 1024 0
DWIDTH 16 0
BBX 16 16 0 -2
BITMAP
000c
0038
f3e0
9020
97ff
90a8
91ac
9727
9000
93f8
9048
f04e
00c2
0082
0182
070e
ENDCHAR
STARTCHAR 02-03-93
ENCODING 9085
SWIDTH 1024 0
DWIDTH 16 0
BBX 16 16 0 -2
BITMAP
0000
01fc
f000
97ff
9000
91fc
9000
9000
91fc
9000
9000
f1fc
0104
0104
0104
01fc
ENDCHAR
STARTCHAR 02-03-94
ENCODING 9086
SWIDTH 1024 0
DWIDTH 16 0
BBX 16 16 0 -2
BITMAP
0080
0084
f184
913e
97e3
9100
9100
93fe
9620
9020
97ff
f050
00d8
018c
0306
0603
ENDCHAR
STARTCHAR 02-04-01
ENCODING 9249
SWIDTH 1024 0
DWIDTH 16 0
BBX 16 16 0 -2
BITMAP
0020
0020
f3fe
9104
918c
9088
97ff
9040
9040
97ff
9084
f10c
03d8
0070
01ce
0703
ENDCHAR
STARTCHAR 02-04-02
ENCODING 9250
SWIDTH 1024 0
DWIDTH 16 0
BBX 16 16 0 -2
BITMAP
0000
03fe
f202
9222
92fa
9222
92fa
9222
9202
92fa
928a
f28a
02fa
0602
0402
0c0e
ENDCHAR
STARTCHAR 02-04-03
ENCODING 9251
SWIDTH 1024 0
DWIDTH 16 0
BBX 16 16 0 -2
BITMAP
0020
0020
fbff
8820
89fe
8922
89fe
8922
8922
89fe
88a8
f8a8
00ac
01a6
0323
0020
ENDCHAR
STARTCHAR 02-04-04
ENCODING 9252
SWIDTH 1024 0
DWIDTH 16 0
BBX 16 16 0 -2
BITMAP
0100
0100
ffff
0810
0420
7ffe
4002
4102
5ffa
4102
4ff2
4812
4812
4ff2
4002
400e
ENDCHAR
STARTCHAR 02-04-05
ENCODING 9253
SWIDTH 1024 0
DWIDTH 16 0
BBX 16 16 0 -2
BITMAP
0000
07bf
f482
9482
95ba
952a
952a
94aa
94aa
94aa
94ba
f582
0402
0402
0402
040e
ENDCHAR
STARTCHAR 02-04-06
ENCODING 9254
SWIDTH 1024 0
DWIDTH 16 0
BBX 16 16 0 -2
BITMAP
0080
00fc
f984
890c
89f8
8808
8fff
8820
8922
89a6
88b4
f878
00ac
01a6
0723
00e0
ENDCHAR
STARTCHAR 02-04-07
ENCODING 9255
SWIDTH 1024 0
DWIDTH 16 0
BBX 16 16 0 -2
BITMAP
0306
3e7c
2040
3f7f
2448
64c8
c588
0408
0000
3ffc
2004
2004
2004
2004
3ffc
0000
ENDCHAR
STARTCHAR 02-04-08
ENCODING 9256
SWIDTH 1024 0
DWIDTH 16 0
BBX 16 16 0 -2
BITMAP
0048
0048
f848
8bcf
8848
8848
8848
8bcf
8848
8868
88c8
fb4f
0048
00c8
0088
0188
ENDCHAR
STARTCHAR 02-04-09
ENCODING 9257
SWIDTH 1024 0
DWIDTH 16 0
BBX 16 16 0 -2
BITMAP
0020
0040
f3fe
9222
9222
93fe
9222
9242
93fe
9090
f110
0fff
0010
0010
0010
0010
ENDCHAR
STARTCHAR 02-04-10
ENCODING 9258
SWIDTH 1024 0
DWIDTH 16 0
BBX 16 16 0 -2
BITMAP
ffff
0200
3ffc
2004
3ffc
2004
3ffc
0100
0ef0
381c
eff7
0000
1ff8
1008
1008
1ff8
ENDCHAR
STARTCHAR 02-04-11
ENCODING 9259
SWIDTH 1024 0
DWIDTH 16 0
BBX 16 16 0 -2
BITMAP
0020
0070
f0d8
918c
96fb
9000
91fc
9104
91fc
9000
9088
f7ff
0088
0088
0188
0308
ENDCHAR
STARTCHAR 02-04-12
ENCODING 9260
SWIDTH 1024 0
DWIDTH 16 0
BBX 16 16 0 -2
BITMAP
0000
03fe
f222
9222
93fe
9222
9222
93fe
9000
97ff
9122
f136
0114
0118
01cc
0707
ENDCHAR
STARTCHAR 02-04-13
ENCODING 9261
SWIDTH 1024 0
DWIDTH 16 0
BBX 16 16 0 -2
BITMAP
0210
0213
f3de
9210
9210
9211
938f
9620
9040
93fe
9202
f202
03fe
0202
0202
03fe
ENDCHAR
STARTCHAR 02-04-14
ENCODING 9262
SWIDTH 1024 0
DWIDTH 16 0
BBX 16 16 0 -2
BITMAP
0020
0020
f3fe
9104
918c
9088
97ff
9000
9000
91fc
9104
f104
01fc
0104
0104
01fc
ENDCHAR
STARTCHAR 02-04-15
ENCODING 9263
SWIDTH 1024 0
DWIDTH 16 0
BBX 16 16 0 -2
BITMAP
0100
011f
f111
9111
9ff1
911f
9111
9111
97d1
945f
9451
f451
0451
0451
07d1
0027
ENDCHAR
STARTCHAR 02-04-16
ENCODING 9264
SWIDTH 1024 0
DWIDTH 16 0
BBX 16 16 0 -2
BITMAP
0088
0088
f7ff
9088
9020
9070
90d8
918c
9777
9000
9000
f1fc
0104
0104
0104
01fc
ENDCHAR
STARTCHAR 02-04-17
ENCODING 9265
SWIDTH 1024 0
DWIDTH 16 0
BBX 16 16 0 -2
BITMAP
00c0
07bf
f409
9409
9489
9499
97d3
9c76
9000
93fe
9222
f222
03fe
0222
0222
03fe
ENDCHAR
STARTCHAR 02-04-18
ENCODING 9266
SWIDTH 1024 0
DWIDTH 16 0
BBX 16 16 0 -2
BITMAP
0000
07ff
f002
91f2
9112
9112
91f6
9000
97ff
9002
91f2
f112
0112
01f2
0002
0006
ENDCHAR
STARTCHAR 02-04-19
ENCODING 9267
SWIDTH 1024 0
DWIDTH 16 0
BBX 16 16 0 -2
BITMAP
0ff0
0810
0810
0ff0
0000
7e7e
4242
4242
7e7e
0100
ffff
0520
0d30
391c
e107
0100
ENDCHAR
STARTCHAR 02-04-20
ENCODING 9268
SWIDTH 1024 0
DWIDTH 16 0
BBX 16 16 0 -2
BITMAP
0020
03fe
f020
91fc
9020
97ff
9020
9044
9188
9052
97ff
f021
00a8
01ac
0727
0020
ENDCHAR
STARTCHAR 02-04-21
ENCODING 9269
SWIDTH 1024 0
DWIDTH 16 0
BBX 16 16 0 -2
BITMAP
0070
0118
f30c
96f6
9000
90f8
920c
9606
9c03
9000
97fe
f492
0492
0492
0492
0fff
ENDCHAR
STARTCHAR 02-04-22
ENCODING 9270
SWIDTH 1024 0
DWIDTH 16 0
BBX 16 16 0 -2
BITMAP
0040
0040
f3fc
9040
9040
97fe
9100
9108
927c
97c6
9000
f7fe
0492
0492
0492
0fff
ENDCHAR
STARTCHAR 02-04-23
ENCODING 9271
SWIDTH 1024 0
DWIDTH 16 0
BBX 16 16 0 -2
BITMAP
0000
07fe
f000
93fc
9204
93fc
9000
97fe
9492
9512
960e
f402
05fa
0442
0442
0446
ENDCHAR
STARTCHAR 02-04-24
ENCODING 9272
SWIDTH 1024 0
DWIDTH 16 0
BBX 16 16 0 -2
BITMAP
0000
07ff
f090
9090
93fe
9292
9292
93fe
9020
97ff
90a8
f1ac
0124
0326
0623
0020
ENDCHAR
STARTCHAR 02-04-25
ENCODING 9273
SWIDTH 1024 0
DWIDTH 16 0
BBX 16 16 0 -2
BITMAP
0000
03fc
f244
9244
92e4
93b4
930c
93fc
9000
97fe
9492
f492
0492
0492
0492
0fff
ENDCHAR
STARTCHAR 02-04-26
ENCODING 9274
SWIDTH 1024 0
DWIDTH 16 0
BBX 16 16 0 -2
BITMAP
0020
03fe
f020
9020
97ff
9000
9020
93fe
9020
9020
97ff
f040
0566
0523
0d85
18fc
ENDCHAR
STARTCHAR 02-04-27
ENCODING 9275
SWIDTH 1024 0
DWIDTH 16 0
BBX 16 16 0 -2
BITMAP
0124
0326
f623
9020
93fe
9202
9202
93fe
9202
9202
93fe
f202
0202
03fe
0104
0603
ENDCHAR
STARTCHAR 02-04-28
ENCODING 9276
SWIDTH 1024 0
DWIDTH 16 0
BBX 16 16 0 -2
BITMAP
0020
03fe
f022
97ff
9022
93fe
9020
9525
94a9
9421
95fd
f421
04f9
05ad
0421
0821
ENDCHAR
STARTCHAR 02-04-29
ENCODING 9277
SWIDTH 1024 0
DWIDTH 16 0
BBX 16 16 0 -2
BITMAP
0002
03f4
f451
92da
918c
9306
9623
9020
93fe
9222
9222
f3fe
0020
0024
003e
03e2
ENDCHAR
STARTCHAR 02-04-30
ENCODING 9278
SWIDTH 1024 0
DWIDTH 16 0
BBX 16 16 0 -2
BITMAP
0040
0088
f0f8
9204
9489
978f
9020
9050
918c
9727
9040
f190
0066
018c
0038
03e0
ENDCHAR
STARTCHAR 02-04-31
ENCODING 9279
SWIDTH 1024 0
DWIDTH 16 0
BBX 16 16 0 -2
BITMAP
0000
03df
f0c5
914b
92d5
9149
9220
9070
91dc
9707
9020
f1c8
0032
01c4
0018
01e0
ENDCHAR
STARTCHAR 02-04-32
ENCODING 9280
SWIDTH 1024 0
DWIDTH 16 0
BBX 16 16 0 -2
BITMAP
0122
0224
f6ad
9122
9225
92af
97a4
9022
93ff
9220
9212
f314
0288
0695
0427
0cc2
ENDCHAR
STARTCHAR 02-04-33
ENCODING 9281
SWIDTH 1024 0
DWIDTH 16 0
BBX 16 16 0 -2
BITMAP
0020
01fc
7904
49fc
4904
49fc
4904
49fc
4820
4bae
7820
03ae
0020
0fff
0020
0020
ENDCHAR
STARTCHAR 02-04-34
ENCODING 9282
SWIDTH 1024 0
DWIDTH 16 0
BBX 16 16 0 -2
BITMAP
0000
07df
f451
97df
9451
97df
9401
94f9
9489
9489
94f9
f489
0489
04f9
0401
0407
ENDCHAR
STARTCHAR 02-04-35
ENCODING 9283
SWIDTH 1024 0
DWIDTH 16 0
BBX 16 16 0 -2
BITMAP
03de
0252
7bde
4800
49fc
4924
4924
49fc
4924
4924
79fc
0020
07ff
0020
0020
0020
ENDCHAR
STARTCHAR 02-04-36
ENCODING 9284
SWIDTH 1024 0
DWIDTH 16 0
BBX 16 16 0 -2
BITMAP
0000
03fe
f222
932a
92aa
92b2
9222
93fe
9020
93fe
9020
f7ff
0000
0292
06db
0449
ENDCHAR
STARTCHAR 02-04-37
ENCODING 9285
SWIDTH 1024 0
DWIDTH 16 0
BBX 16 16 0 -2
BITMAP
0000
07df
f451
97df
9410
9451
93cf
9000
9088
93fe
9088
f088
07ff
0088
018c
0707
ENDCHAR
STARTCHAR 02-04-38
ENCODING 9286
SWIDTH 1024 0
DWIDTH 16 0
BBX 16 16 0 -2
BITMAP
0020
0020
f3fe
9104
9088
97ff
9000
91fc
9124
91fc
9124
f1fc
0020
03fe
0020
07ff
ENDCHAR
STARTCHAR 02-04-39
ENCODING 9287
SWIDTH 1024 0
DWIDTH 16 0
BBX 16 16 0 -2
BITMAP
0020
0070
f0d8
918c
9707
90f8
9000
93de
9252
9252
93de
f000
0104
0104
038e
06db
ENDCHAR
STARTCHAR 02-04-40
ENCODING 9288
SWIDTH 1024 0
DWIDTH 16 0
BBX 16 16 0 -2
BITMAP
0010
0410
f6fe
9210
95ff
9644
9228
90fe
9e10
92fe
9210
f3ff
0210
0610
0500
0cff
ENDCHAR
STARTCHAR 02-04-41
ENCODING 9289
SWIDTH 1024 0
DWIDTH 16 0
BBX 16 16 0 -2
BITMAP
0108
0208
f7c8
945f
97d2
9472
97d2
911a
9fea
920e
93c4
f244
064e
04ca
0c9b
1991
ENDCHAR
STARTCHAR 02-04-42
ENCODING 9290
SWIDTH 1024 0
DWIDTH 16 0
BBX 16 16 0 -2
BITMAP
0440
0cef
e8a0
b5b0
a710
adef
a842
b842
abfa
a842
aa4a
eb5a
0952
08fa
0b82
0806
ENDCHAR
STARTCHAR 02-04-43
ENCODING 9291
SWIDTH 1024 0
DWIDTH 16 0
BBX 16 16 0 -2
BITMAP
0000
0fff
e800
abc6
aa45
abc4
aa5f
abc4
a804
abc4
aa44
ebce
0a4a
13ca
025b
02d1
ENDCHAR
STARTCHAR 02-04-44
ENCODING 9292
SWIDTH 1024 0
DWIDTH 16 0
BBX 16 16 0 -2
BITMAP
0020
0020
f7ff
9050
97af
92aa
92aa
95ad
9000
9202
93fe
f202
03fe
0202
0202
0402
ENDCHAR
STARTCHAR 02-04-45
ENCODING 9293
SWIDTH 1024 0
DWIDTH 16 0
BBX 16 16 0 -2
BITMAP
0080
01f8
f310
9ffe
9222
93fe
9222
93fe
9292
9449
9000
f3fe
0202
03fe
0202
03fe
ENDCHAR
STARTCHAR 02-04-46
ENCODING 9294
SWIDTH 1024 0
DWIDTH 16 0
BBX 16 16 0 -2
BITMAP
7e7e
4242
7e7e
0000
7ffe
4080
7ffc
4004
7ffc
4080
7ffe
0000
7e7e
4242
7e7e
0000
ENDCHAR
STARTCHAR 02-04-47
ENCODING 9295
SWIDTH 1024 0
DWIDTH 16 0
BBX 16 16 0 -2
BITMAP
0020
07ff
f484
95fe
9484
94fc
9400
97ff
9420
95fe
9522
f5fe
0d22
09fe
1884
0303
ENDCHAR
STARTCHAR 02-04-48
ENCODING 9296
SWIDTH 1024 0
DWIDTH 16 0
BBX 16 16 0 -2
BITMAP
0088
0088
f7ff
9228
914f
97f1
900f
93e8
922f
93e8
922f
f3e8
022f
0228
0229
0267
ENDCHAR
STARTCHAR 02-04-49
ENCODING 9297
SWIDTH 1024 0
DWIDTH 16 0
BBX 16 16 0 -2
BITMAP
1000
ff7f
1008
7e18
0030
7e74
42d6
7e93
2410
2410
ff00
007e
7e42
4242
4242
7e7e
ENDCHAR
STARTCHAR 02-04-50
ENCODING 9298
SWIDTH 1024 0
DWIDTH 16 0
BBX 16 16 0 -2
BITMAP
08ef
08a9
ffef
0000
3e7e
2252
3e52
007e
7e52
0452
087e
0f10
f8ff
0810
0810
3810
ENDCHAR
STARTCHAR 02-04-51
ENCODING 9299
SWIDTH 1024 0
DWIDTH 16 0
BBX 16 16 0 -2
BITMAP
ee00
aaff
ee81
0081
7cff
5480
5494
7cff
5494
5494
7cff
10a9
feaa
10ac
1136
1063
ENDCHAR
STARTCHAR 02-04-52
ENCODING 9300
SWIDTH 1024 0
DWIDTH 16 0
BBX 16 16 0 -2
BITMAP
1010
ffff
1010
7e7e
0000
7e7e
4242
7e7e
2424
2424
ffff
0000
7e7e
4242
4242
7e7e
ENDCHAR
STARTCHAR 02-04-53
ENCODING 9301
SWIDTH 1024 0
DWIDTH 16 0
BBX 16 16 0 -2
BITMAP
0080
0180
0100
3ffe
2002
2012
2432
2222
2162
20c2
21a2
2332
2e12
2002
3ffe
0000
ENDCHAR
STARTCHAR 02-04-54
ENCODING 9302
SWIDTH 1024 0
DWIDTH 16 0
BBX 16 16 0 -2
BITMAP
0000
7ffe
4002
4002
5ffa
4102
4302
4762
4d32
791e
4102
4102
4102
4002
7ffe
0000
ENDCHAR
STARTCHAR 02-04-55
ENCODING 9303
SWIDTH 1024 0
DWIDTH 16 0
BBX 16 16 0 -2
BITMAP
0000
7ffe
4002
43c2
4042
4662
4c32
591a
4102
4ff2
4102
4102
5ffa
4002
7ffe
0000
ENDCHAR
STARTCHAR 02-04-56
ENCODING 9304
SWIDTH 1024 0
DWIDTH 16 0
BBX 16 16 0 -2
BITMAP
0000
7ffe
4002
4032
41e2
4f02
4102
5ffa
4542
4542
4562
4d32
591a
4102
7ffe
0000
ENDCHAR
STARTCHAR 02-04-57
ENCODING 9305
SWIDTH 1024 0
DWIDTH 16 0
BBX 16 16 0 -2
BITMAP
7ffe
4082
4102
4ff2
4812
4ff2
4812
4ff2
4002
5ffa
4102
4ff2
4102
5ffa
4002
7ffe
ENDCHAR
STARTCHAR 02-04-58
ENCODING 9306
SWIDTH 1024 0
DWIDTH 16 0
BBX 16 16 0 -2
BITMAP
7ffe
4102
4ff2
4112
7ffe
4112
4ff2
4102
4ff2
4102
7ffe
4812
4ff2
4812
7ffe
0000
ENDCHAR
STARTCHAR 02-04-59
ENCODING 9307
SWIDTH 1024 0
DWIDTH 16 0
BBX 16 16 0 -2
BITMAP
0000
3ff8
0830
0660
03c0
0660
1c38
f10f
0100
0100
3ffc
0100
0100
0100
ffff
0000
ENDCHAR
STARTCHAR 02-04-60
ENCODING 9308
SWIDTH 1024 0
DWIDTH 16 0
BBX 16 16 0 -2
BITMAP
2040
2040
2040
2040
fbf8
2048
2048
2348
21c8
20c8
38e8
e1a8
0108
0309
0609
0c07
ENDCHAR
STARTCHAR 02-04-61
ENCODING 9309
SWIDTH 1024 0
DWIDTH 16 0
BBX 16 16 0 -2
BITMAP
2000
23fe
2020
2020
f820
2020
2020
27ff
2020
2020
3820
e020
0020
0020
0020
00e0
ENDCHAR
STARTCHAR 02-04-62
ENCODING 9310
SWIDTH 1024 0
DWIDTH 16 0
BBX 16 16 0 -2
BITMAP
2040
2040
23f8
2048
f8c8
2089
2189
2307
2020
2020
3bfe
e020
0020
0020
0020
0020
ENDCHAR
STARTCHAR 02-04-63
ENCODING 9311
SWIDTH 1024 0
DWIDTH 16 0
BBX 16 16 0 -2
BITMAP
2020
2070
2050
20d8
f98c
2306
26fb
2000
2000
21fc
3804
e00c
0008
0018
0010
0030
ENDCHAR
STARTCHAR 02-04-64
ENCODING 9312
SWIDTH 1024 0
DWIDTH 16 0
BBX 16 16 0 -2
BITMAP
2080
2080
2080
21ff
f904
2384
268c
20c8
2058
2070
3820
e070
00d8
018c
0306
0603
ENDCHAR
STARTCHAR 02-04-65
ENCODING 9313
SWIDTH 1024 0
DWIDTH 16 0
BBX 16 16 0 -2
BITMAP
05e0
0c30
1818
300c
ffff
0208
0608
0c18
1810
7070
0100
0100
3ffc
0100
0100
ffff
ENDCHAR
STARTCHAR 02-04-66
ENCODING 9314
SWIDTH 1024 0
DWIDTH 16 0
BBX 16 16 0 -2
BITMAP
2000
21fc
2104
2104
f964
2134
2114
2104
27ff
2104
3904
e104
0104
0304
0204
061c
ENDCHAR
STARTCHAR 02-04-67
ENCODING 9315
SWIDTH 1024 0
DWIDTH 16 0
BBX 16 16 0 -2
BITMAP
2006
201c
21f0
2100
f9ff
2101
2101
2101
21ff
2100
3900
e100
0100
0300
0200
0600
ENDCHAR
STARTCHAR 02-04-68
ENCODING 9316
SWIDTH 1024 0
DWIDTH 16 0
BBX 16 16 0 -2
BITMAP
2020
2020
23ff
2201
fa01
2080
2080
208e
20f8
2080
2080
3880
e080
0081
00c3
007e
ENDCHAR
STARTCHAR 02-04-69
ENCODING 9317
SWIDTH 1024 0
DWIDTH 16 0
BBX 16 16 0 -2
BITMAP
2000
23ff
2010
2030
f820
2068
206c
20e4
21a6
2323
3820
e020
0020
0000
03ff
0000
ENDCHAR
STARTCHAR 02-04-70
ENCODING 9318
SWIDTH 1024 0
DWIDTH 16 0
BBX 16 16 0 -2
BITMAP
2108
2108
2308
2208
f63f
2489
2689
2389
2109
2109
3b19
e251
0253
07f2
0c22
006e
ENDCHAR
STARTCHAR 02-04-71
ENCODING 9319
SWIDTH 1024 0
DWIDTH 16 0
BBX 16 16 0 -2
BITMAP
0100
0100
3ffc
0100
0100
7ffe
0420
0c20
193e
7100
0100
3ffc
0100
0100
ffff
0000
ENDCHAR
STARTCHAR 02-04-72
ENCODING 9320
SWIDTH 1024 0
DWIDTH 16 0
BBX 16 16 0 -2
BITMAP
2006
203c
21e0
2100
f900
2100
21fe
2108
2108
2108
3908
e108
0108
0108
0fff
0000
ENDCHAR
STARTCHAR 02-04-73
ENCODING 9321
SWIDTH 1024 0
DWIDTH 16 0
BBX 16 16 0 -2
BITMAP
2006
201c
21f0
2110
f910
2110
21ff
2110
2110
2118
3908
e1c8
070c
0005
07f7
0002
ENDCHAR
STARTCHAR 02-04-74
ENCODING 9322
SWIDTH 1024 0
DWIDTH 16 0
BBX 16 16 0 -2
BITMAP
2000
21fc
2104
2104
f904
21fc
2110
2118
2308
22cc
3676
ec13
0380
00e0
0038
0008
ENDCHAR
STARTCHAR 02-04-75
ENCODING 9323
SWIDTH 1024 0
DWIDTH 16 0
BBX 16 16 0 -2
BITMAP
2040
20e0
20b0
2198
fb0c
2607
21f8
2000
2000
27ff
3880
6080
c184
0104
017e
03c2
ENDCHAR
STARTCHAR 02-04-76
ENCODING 9324
SWIDTH 1024 0
DWIDTH 16 0
BBX 16 16 0 -2
BITMAP
2088
2088
2088
2088
fbfe
2088
2088
2088
2088
3888
e7ff
0000
0088
018c
0306
0603
ENDCHAR
STARTCHAR 02-04-77
ENCODING 9325
SWIDTH 1024 0
DWIDTH 16 0
BBX 16 16 0 -2
BITMAP
0100
0100
3ffc
0100
0100
0100
7ffe
0000
1010
1010
fefe
1010
1010
1e10
f1ff
0000
ENDCHAR
STARTCHAR 02-04-78
ENCODING 9326
SWIDTH 1024 0
DWIDTH 16 0
BBX 16 16 0 -2
BITMAP
2080
20fc
2188
2110
fbff
2500
2100
217c
2144
2144
3944
e14c
0340
0241
0663
003e
ENDCHAR
STARTCHAR 02-04-79
ENCODING 9327
SWIDTH 1024 0
DWIDTH 16 0
BBX 16 16 0 -2
BITMAP
2020
2020
23ff
2201
220d
f838
23e0
2040
2040
207f
27c0
3840
e040
0041
0063
003e
ENDCHAR
STARTCHAR 02-04-80
ENCODING 9328
SWIDTH 1024 0
DWIDTH 16 0
BBX 16 16 0 -2
BITMAP
2020
2020
23ff
2201
fa01
2008
2008
23ff
2008
2008
3988
e0c8
0048
0008
0008
0038
ENDCHAR
STARTCHAR 02-04-81
ENCODING 9329
SWIDTH 1024 0
DWIDTH 16 0
BBX 16 16 0 -2
BITMAP
2020
2120
213e
2120
f920
27ff
2020
2122
2322
2626
3824
e06c
0018
0030
00e0
0780
ENDCHAR
STARTCHAR 02-04-82
ENCODING 9330
SWIDTH 1024 0
DWIDTH 16 0
BBX 16 16 0 -2
BITMAP
2020
2020
23fe
2020
f820
2020
27ff
2048
214a
214a
3b4b
e249
02c9
0088
0188
0338
ENDCHAR
STARTCHAR 02-04-83
ENCODING 9331
SWIDTH 1024 0
DWIDTH 16 0
BBX 16 16 0 -2
BITMAP
2040
2040
23fc
2204
fa04
23fc
2204
2204
23fc
2221
3a33
e216
0218
02cc
0386
0e03
ENDCHAR
STARTCHAR 02-04-84
ENCODING 9332
SWIDTH 1024 0
DWIDTH 16 0
BBX 16 16 0 -2
BITMAP
2108
2198
2090
2000
fbfe
2090
2090
2492
2492
2696
3a94
e294
0090
0090
07ff
0000
ENDCHAR
STARTCHAR 02-04-85
ENCODING 9333
SWIDTH 1024 0
DWIDTH 16 0
BBX 16 16 0 -2
BITMAP
2000
23fe
2202
2202
fbfe
2210
2210
23ff
2210
2210
3afe
e282
0682
0482
0c82
00fe
ENDCHAR
STARTCHAR 02-04-86
ENCODING 9334
SWIDTH 1024 0
DWIDTH 16 0
BBX 16 16 0 -2
BITMAP
2020
2020
23fe
2202
fa02
21fc
2020
2020
2120
213e
3920
e120
0120
03a0
02e0
063f
ENDCHAR
STARTCHAR 02-04-87
ENCODING 9335
SWIDTH 1024 0
DWIDTH 16 0
BBX 16 16 0 -2
BITMAP
2020
2020
23fe
2202
2202
f900
21de
2152
2352
2652
21d2
3896
e190
0111
0313
060e
ENDCHAR
STARTCHAR 02-04-88
ENCODING 9336
SWIDTH 1024 0
DWIDTH 16 0
BBX 16 16 0 -2
BITMAP
2006
203c
23e4
2244
fa66
2622
2403
2020
2020
27ff
38a8
e0a8
01ac
0326
0623
0020
ENDCHAR
STARTCHAR 02-04-89
ENCODING 9337
SWIDTH 1024 0
DWIDTH 16 0
BBX 16 16 0 -2
BITMAP
2000
21fe
2100
21fc
f900
21fc
2100
2100
27ff
2122
3936
e114
0118
010c
01e6
0703
ENDCHAR
STARTCHAR 02-04-90
ENCODING 9338
SWIDTH 1024 0
DWIDTH 16 0
BBX 16 16 0 -2
BITMAP
2000
21fc
2104
2104
f9fc
2104
2104
21fc
2080
21ff
3b25
e66d
00c9
019b
0032
0006
ENDCHAR
STARTCHAR 02-04-91
ENCODING 9339
SWIDTH 1024 0
DWIDTH 16 0
BBX 16 16 0 -2
BITMAP
2020
2020
27ff
2000
f9fc
2104
21fc
2000
23fe
2018
3830
e7ff
0020
0020
0020
00e0
ENDCHAR
STARTCHAR 02-04-92
ENCODING 9340
SWIDTH 1024 0
DWIDTH 16 0
BBX 16 16 0 -2
BITMAP
2000
21fc
2004
27ff
f804
21fc
2000
27ff
2421
2421
3bfe
e222
0222
0222
0226
0020
ENDCHAR
STARTCHAR 02-04-93
ENCODING 9341
SWIDTH 1024 0
DWIDTH 16 0
BBX 16 16 0 -2
BITMAP
2040
20c0
239e
2202
fa02
23de
2202
2202
23fe
2090
3890
e090
0190
0111
0313
060e
ENDCHAR
STARTCHAR 02-04-94
ENCODING 9342
SWIDTH 1024 0
DWIDTH 16 0
BBX 16 16 0 -2
BITMAP
2124
2124
27ff
2124
2124
f93c
2100
21fe
2020
27ff
38a8
60a8
c1ac
0326
0623
0020
ENDCHAR
STARTCHAR 02-05-01
ENCODING 9505
SWIDTH 1024 0
DWIDTH 16 0
BBX 16 16 0 -2
BITMAP
2100
217c
2104
2104
fbff
2200
2640
2a7e
2290
2210
3aff
6210
c238
0228
026c
02c7
ENDCHAR
STARTCHAR 02-05-02
ENCODING 9506
SWIDTH 1024 0
DWIDTH 16 0
BBX 16 16 0 -2
BITMAP
23ff
2010
2020
23ff
2249
fa49
2249
2249
2223
2020
3bff
6020
c020
0050
0088
0307
ENDCHAR
STARTCHAR 02-05-03
ENCODING 9507
SWIDTH 1024 0
DWIDTH 16 0
BBX 16 16 0 -2
BITMAP
2000
7e7e
4242
7e42
4242
7e42
0042
4e42
785e
4240
7e40
0100
0100
7ffe
0100
ffff
ENDCHAR
STARTCHAR 02-05-04
ENCODING 9508
SWIDTH 1024 0
DWIDTH 16 0
BBX 16 16 0 -2
BITMAP
001c
21f0
2020
27ff
2020
fbfe
2222
23fe
2222
2222
3bfe
6020
c3fe
0020
0020
07ff
ENDCHAR
STARTCHAR 02-05-05
ENCODING 9509
SWIDTH 1024 0
DWIDTH 16 0
BBX 16 16 0 -2
BITMAP
0000
7cfc
0084
0084
fefc
1084
54fc
5484
d484
93ff
0000
0100
3ffe
0100
0100
ffff
ENDCHAR
STARTCHAR 02-05-06
ENCODING 9510
SWIDTH 1024 0
DWIDTH 16 0
BBX 16 16 0 -2
BITMAP
2020
2020
23ae
2070
fb56
2088
21fc
2707
2104
21fc
3904
e104
01fc
0104
0104
011c
ENDCHAR
STARTCHAR 02-05-07
ENCODING 9511
SWIDTH 1024 0
DWIDTH 16 0
BBX 16 16 0 -2
BITMAP
01fc
2104
2104
21fc
2104
f9fc
2000
27df
20c3
2145
3acb
60c3
c145
0249
0451
01c7
ENDCHAR
STARTCHAR 02-05-08
ENCODING 9512
SWIDTH 1024 0
DWIDTH 16 0
BBX 16 16 0 -2
BITMAP
0070
2118
230c
26f6
2000
f8f8
220c
2606
2c03
2000
37fe
e492
0492
0492
0492
0fff
ENDCHAR
STARTCHAR 02-05-09
ENCODING 9513
SWIDTH 1024 0
DWIDTH 16 0
BBX 16 16 0 -2
BITMAP
1020
7efc
1024
ff24
2424
ff64
1034
ff45
1085
1007
0100
7ffe
0100
0100
0100
ffff
ENDCHAR
STARTCHAR 02-05-10
ENCODING 9514
SWIDTH 1024 0
DWIDTH 16 0
BBX 16 16 0 -2
BITMAP
2040
2088
20f8
2204
fc89
278f
2020
2050
218c
2727
3840
e190
0066
018c
0038
03e0
ENDCHAR
STARTCHAR 02-05-11
ENCODING 9515
SWIDTH 1024 0
DWIDTH 16 0
BBX 16 16 0 -2
BITMAP
2000
7e7e
4248
7e48
42fe
7e10
0018
4c28
7828
424a
7e86
0100
3ffc
0100
0100
ffff
ENDCHAR
STARTCHAR 02-05-12
ENCODING 9516
SWIDTH 1024 0
DWIDTH 16 0
BBX 16 16 0 -2
BITMAP
0410
447e
45d2
7c5c
05f0
fc04
27ff
2484
24c4
6444
c41c
0100
3ffe
0100
0100
ffff
ENDCHAR
STARTCHAR 02-05-13
ENCODING 9517
SWIDTH 1024 0
DWIDTH 16 0
BBX 16 16 0 -2
BITMAP
2088
2088
27ff
2088
20f8
f820
23fe
2222
23fe
2020
23fe
3820
e3fe
0020
0020
07ff
ENDCHAR
STARTCHAR 02-05-14
ENCODING 9518
SWIDTH 1024 0
DWIDTH 16 0
BBX 16 16 0 -2
BITMAP
2020
2222
2222
23fe
2110
f920
23fe
2220
2620
23fe
3a20
6220
c3fe
0220
0220
03ff
ENDCHAR
STARTCHAR 02-05-15
ENCODING 9519
SWIDTH 1024 0
DWIDTH 16 0
BBX 16 16 0 -2
BITMAP
2020
21fc
2020
23fe
2000
f904
27df
2104
21c4
271f
3800
67ff
c090
0091
0191
070f
ENDCHAR
STARTCHAR 02-05-16
ENCODING 9520
SWIDTH 1024 0
DWIDTH 16 0
BBX 16 16 0 -2
BITMAP
0820
ff20
003f
3e62
2242
3ec6
0034
7e1c
0408
ff1c
0836
38e3
0100
3ffe
0100
ffff
ENDCHAR
STARTCHAR 02-05-17
ENCODING 9521
SWIDTH 1024 0
DWIDTH 16 0
BBX 16 16 0 -2
BITMAP
0002
21ec
2229
214a
2084
fb7b
2000
20fc
2084
2084
38fc
6000
c084
00cc
0048
03ff
ENDCHAR
STARTCHAR 02-05-18
ENCODING 9522
SWIDTH 1024 0
DWIDTH 16 0
BBX 16 16 0 -2
BITMAP
0020
2050
218c
2777
2000
fffe
2222
22aa
22aa
23fe
3800
61fc
c104
01fc
0104
01fc
ENDCHAR
STARTCHAR 02-05-19
ENCODING 9523
SWIDTH 1024 0
DWIDTH 16 0
BBX 16 16 0 -2
BITMAP
0000
27ff
2000
21fc
2124
f9fc
2124
27ff
2000
21fc
3924
61fc
c124
01fc
0000
07ff
ENDCHAR
STARTCHAR 02-05-20
ENCODING 9524
SWIDTH 1024 0
DWIDTH 16 0
BBX 16 16 0 -2
BITMAP
420f
2fb0
0220
8fbf
4aa4
0fa4
2aa4
2fa4
4224
4fa4
8244
0100
3ffc
0100
0100
ffff
ENDCHAR
STARTCHAR 02-05-21
ENCODING 9525
SWIDTH 1024 0
DWIDTH 16 0
BBX 16 16 0 -2
BITMAP
0000
27ff
24cc
2598
27ff
fc88
25dc
26aa
2488
2420
3d20
653e
c520
0920
0120
07ff
ENDCHAR
STARTCHAR 02-05-22
ENCODING 9526
SWIDTH 1024 0
DWIDTH 16 0
BBX 16 16 0 -2
BITMAP
0100
0100
ffff
0100
0100
3ffc
0000
ffff
8001
9ff1
8001
0fe0
0820
0822
1022
601e
ENDCHAR
STARTCHAR 02-05-23
ENCODING 9527
SWIDTH 1024 0
DWIDTH 16 0
BBX 16 16 0 -2
BITMAP
0100
0100
ffff
0100
3ffc
0000
1ff8
1008
1008
1ff8
0810
0810
0c30
0420
ffff
0000
ENDCHAR
STARTCHAR 02-05-24
ENCODING 9528
SWIDTH 1024 0
DWIDTH 16 0
BBX 16 16 0 -2
BITMAP
0200
0200
07f0
1c10
6820
06c0
0380
1ef8
f04f
0040
0ffc
0840
0840
3ffc
0040
0040
ENDCHAR
STARTCHAR 02-05-25
ENCODING 9529
SWIDTH 1024 0
DWIDTH 16 0
BBX 16 16 0 -2
BITMAP
0200
0200
07f0
1c10
6860
06c0
0380
1cf0
e10f
1ff8
0100
1ff8
0100
3ffc
0100
0100
ENDCHAR
STARTCHAR 02-05-26
ENCODING 9530
SWIDTH 1024 0
DWIDTH 16 0
BBX 16 16 0 -2
BITMAP
0200
0620
0c30
3fd8
000c
0640
1c62
703e
0200
07f0
0c30
3a60
01c0
0360
1e38
f00f
ENDCHAR
STARTCHAR 02-05-27
ENCODING 9531
SWIDTH 1024 0
DWIDTH 16 0
BBX 16 16 0 -2
BITMAP
0800
0800
1ff8
1000
37f0
6410
07f0
0410
07f0
0200
07f8
0c18
3b70
01c0
0770
3c1e
ENDCHAR
STARTCHAR 02-05-28
ENCODING 9532
SWIDTH 1024 0
DWIDTH 16 0
BBX 16 16 0 -2
BITMAP
0810
0420
ffff
1100
13de
5e52
53de
5250
5fd1
f24f
0c30
0400
1ff8
f460
03c0
fc3f
ENDCHAR
STARTCHAR 02-05-29
ENCODING 9533
SWIDTH 1024 0
DWIDTH 16 0
BBX 16 16 0 -2
BITMAP
07f8
0e18
3b70
01c0
0680
ffff
8001
8ff9
0080
1ffc
1084
1ffc
1084
1ffc
0220
3c1e
ENDCHAR
STARTCHAR 02-05-30
ENCODING 9534
SWIDTH 1024 0
DWIDTH 16 0
BBX 16 16 0 -2
BITMAP
0000
0000
0100
0100
7ffe
0100
3ffc
0240
ffff
0420
0c30
381c
e007
0000
0000
0000
ENDCHAR
STARTCHAR 02-05-31
ENCODING 9535
SWIDTH 1024 0
DWIDTH 16 0
BBX 16 16 0 -2
BITMAP
0000
3ff8
0008
0008
ffff
0008
0008
3ff8
0100
0100
ffff
0280
06c0
0c70
381c
6007
ENDCHAR
STARTCHAR 02-05-32
ENCODING 9536
SWIDTH 1024 0
DWIDTH 16 0
BBX 16 16 0 -2
BITMAP
0100
0100
ffff
0240
0660
0c30
381c
e7e7
0000
0000
7ffe
0400
0c10
08f8
1f8c
7006
ENDCHAR
STARTCHAR 02-05-33
ENCODING 9537
SWIDTH 1024 0
DWIDTH 16 0
BBX 16 16 0 -2
BITMAP
1000
103e
ff22
1122
1122
3122
2122
673e
c000
0100
ffff
0280
06c0
0c70
381c
6007
ENDCHAR
STARTCHAR 02-05-34
ENCODING 9538
SWIDTH 1024 0
DWIDTH 16 0
BBX 16 16 0 -2
BITMAP
0100
0100
0100
ffff
0660
0c30
1818
3ffc
f007
1000
1ff0
1010
1ff0
1000
1000
7ffc
ENDCHAR
STARTCHAR 02-05-35
ENCODING 9539
SWIDTH 1024 0
DWIDTH 16 0
BBX 16 16 0 -2
BITMAP
0080
0100
1ff8
1008
1008
1ff8
1008
1008
1ff8
0100
ffff
0280
06c0
0c70
381c
e007
ENDCHAR
STARTCHAR 02-05-36
ENCODING 9540
SWIDTH 1024 0
DWIDTH 16 0
BBX 16 16 0 -2
BITMAP
0420
3ffc
0420
0000
1ff8
1108
1108
1ff8
0100
1ff8
0100
3ffc
0240
0660
0c30
381c
ENDCHAR
STARTCHAR 02-05-37
ENCODING 9541
SWIDTH 1024 0
DWIDTH 16 0
BBX 16 16 0 -2
BITMAP
0100
0100
ffff
0660
0c30
381c
e0ff
3e84
2284
22fc
3e84
22fc
2284
3e84
0184
031c
ENDCHAR
STARTCHAR 02-05-38
ENCODING 9542
SWIDTH 1024 0
DWIDTH 16 0
BBX 16 16 0 -2
BITMAP
0100
0100
ffff
0660
0c30
381c
feff
2284
32e4
2e9c
2284
32e4
2e9c
2284
6284
ce9c
ENDCHAR
STARTCHAR 02-05-39
ENCODING 9543
SWIDTH 1024 0
DWIDTH 16 0
BBX 16 16 0 -2
BITMAP
0620
1c20
f020
11fe
fe22
5422
5422
fe22
55ff
5450
fe50
10d0
1098
1c8c
3186
e303
ENDCHAR
STARTCHAR 02-05-40
ENCODING 9544
SWIDTH 1024 0
DWIDTH 16 0
BBX 16 16 0 -2
BITMAP
1000
1000
13ff
1010
fe10
2210
2210
2210
6210
4610
4410
fc10
0e10
1a10
3010
e070
ENDCHAR
STARTCHAR 02-05-41
ENCODING 9545
SWIDTH 1024 0
DWIDTH 16 0
BBX 16 16 0 -2
BITMAP
1000
13f8
1088
1088
fc88
2488
2488
248f
6481
4c81
4881
f981
1503
3302
6302
c60e
ENDCHAR
STARTCHAR 02-05-42
ENCODING 9546
SWIDTH 1024 0
DWIDTH 16 0
BBX 16 16 0 -2
BITMAP
1006
103c
11e0
1020
fc20
2420
27ff
2420
6420
4c20
4820
fc20
1420
3021
6033
c01e
ENDCHAR
STARTCHAR 02-05-43
ENCODING 9547
SWIDTH 1024 0
DWIDTH 16 0
BBX 16 16 0 -2
BITMAP
0000
1ff8
1008
1008
1ff8
1008
1008
1ff8
0200
0200
ffff
0830
1e60
03c0
0e70
781e
ENDCHAR
STARTCHAR 02-05-44
ENCODING 9548
SWIDTH 1024 0
DWIDTH 16 0
BBX 16 16 0 -2
BITMAP
1000
10fe
1082
1082
fc82
24fe
2480
24a0
64a0
4ca6
48b8
fca0
15a1
3121
6321
c61f
ENDCHAR
STARTCHAR 02-05-45
ENCODING 9549
SWIDTH 1024 0
DWIDTH 16 0
BBX 16 16 0 -2
BITMAP
1060
1030
1010
1044
fc44
244c
2548
2548
6558
4d56
4b73
fa61
1440
31c2
6766
c03c
ENDCHAR
STARTCHAR 02-05-46
ENCODING 9550
SWIDTH 1024 0
DWIDTH 16 0
BBX 16 16 0 -2
BITMAP
1020
1070
1058
10cc
fd86
2703
24fc
2400
6400
4dfe
4822
fc22
1422
302e
6020
c020
ENDCHAR
STARTCHAR 02-05-47
ENCODING 9551
SWIDTH 1024 0
DWIDTH 16 0
BBX 16 16 0 -2
BITMAP
1000
11fe
1152
1152
fd52
2552
2552
27ff
6552
4d52
4952
f952
1552
3152
6352
c656
ENDCHAR
STARTCHAR 02-05-48
ENCODING 9552
SWIDTH 1024 0
DWIDTH 16 0
BBX 16 16 0 -2
BITMAP
1010
1010
1010
11ff
fc10
2410
2410
24fe
6400
4c00
48fe
7c82
1482
3082
6082
c0fe
ENDCHAR
STARTCHAR 02-05-49
ENCODING 9553
SWIDTH 1024 0
DWIDTH 16 0
BBX 16 16 0 -2
BITMAP
1020
1020
1020
13ff
fc88
258c
2706
268b
6488
4dd8
4a70
fc20
1470
30d8
618c
c307
ENDCHAR
STARTCHAR 02-05-50
ENCODING 9554
SWIDTH 1024 0
DWIDTH 16 0
BBX 16 16 0 -2
BITMAP
1006
101c
11f0
1100
fd00
25ff
2500
2500
6500
4d7e
4942
fd42
1542
3142
6342
c67e
ENDCHAR
STARTCHAR 02-05-51
ENCODING 9555
SWIDTH 1024 0
DWIDTH 16 0
BBX 16 16 0 -2
BITMAP
1000
107f
ff08
2208
4208
fc08
1b08
e0ff
1008
ff08
2208
6208
4608
fc08
1b08
f108
ENDCHAR
STARTCHAR 02-05-52
ENCODING 9556
SWIDTH 1024 0
DWIDTH 16 0
BBX 16 16 0 -2
BITMAP
1000
11fe
1000
1000
fcfc
2484
2484
24fc
6484
4c84
4884
fcfc
1400
3000
63ff
c000
ENDCHAR
STARTCHAR 02-05-53
ENCODING 9557
SWIDTH 1024 0
DWIDTH 16 0
BBX 16 16 0 -2
BITMAP
1000
11fe
1042
1042
fcc6
258c
2400
25fe
6522
4d22
49fe
fd00
1500
3101
6183
c0fe
ENDCHAR
STARTCHAR 02-05-54
ENCODING 9558
SWIDTH 1024 0
DWIDTH 16 0
BBX 16 16 0 -2
BITMAP
4088
4488
4488
4488
f488
57ff
5088
5088
df88
9288
9288
f288
2688
6488
4cbe
c080
ENDCHAR
STARTCHAR 02-05-55
ENCODING 9559
SWIDTH 1024 0
DWIDTH 16 0
BBX 16 16 0 -2
BITMAP
1024
1026
1022
13ff
fc20
2522
25a6
24ac
6420
4c30
48b8
f9ac
1526
3723
6020
c0e0
ENDCHAR
STARTCHAR 02-05-56
ENCODING 9560
SWIDTH 1024 0
DWIDTH 16 0
BBX 16 16 0 -2
BITMAP
1000
11fe
1122
1122
fdfe
2522
2522
25fe
6420
4c20
4820
fdfe
1420
3020
6020
c3ff
ENDCHAR
STARTCHAR 02-05-57
ENCODING 9561
SWIDTH 1024 0
DWIDTH 16 0
BBX 16 16 0 -2
BITMAP
4024
4026
4022
47ff
f420
5420
57e2
54b2
d496
9494
b49c
e488
249c
75b5
5c67
c8c2
ENDCHAR
STARTCHAR 02-05-58
ENCODING 9562
SWIDTH 1024 0
DWIDTH 16 0
BBX 16 16 0 -2
BITMAP
4003
4f8e
4178
4108
f308
5208
57ff
5088
d088
9588
b708
ea08
227f
7700
55c0
cc7f
ENDCHAR
STARTCHAR 02-05-59
ENCODING 9563
SWIDTH 1024 0
DWIDTH 16 0
BBX 16 16 0 -2
BITMAP
1038
1008
10cc
1186
ff03
25fe
2502
2502
6502
4dfe
4848
fc48
1448
30c9
6089
c387
ENDCHAR
STARTCHAR 02-05-60
ENCODING 9564
SWIDTH 1024 0
DWIDTH 16 0
BBX 16 16 0 -2
BITMAP
1020
1020
1044
1084
fdfe
2482
2480
24fe
6520
4c20
4bff
f848
1448
30cc
6186
c303
ENDCHAR
STARTCHAR 02-05-61
ENCODING 9565
SWIDTH 1024 0
DWIDTH 16 0
BBX 16 16 0 -2
BITMAP
1020
1020
13ff
1020
fdfc
2424
27ff
2424
65fc
4c20
4920
f93c
1520
31a0
62e0
c63f
ENDCHAR
STARTCHAR 02-05-62
ENCODING 9566
SWIDTH 1024 0
DWIDTH 16 0
BBX 16 16 0 -2
BITMAP
1020
1020
103f
1020
fdfe
2502
2502
25fe
6502
4d02
49fe
fc20
17ff
3020
6020
c020
ENDCHAR
STARTCHAR 02-05-63
ENCODING 9567
SWIDTH 1024 0
DWIDTH 16 0
BBX 16 16 0 -2
BITMAP
7f40
127f
0c41
ffa2
1514
2408
4414
0ce3
0200
ffff
0418
0830
1f60
01c0
0778
7c0e
ENDCHAR
STARTCHAR 02-05-64
ENCODING 9568
SWIDTH 1024 0
DWIDTH 16 0
BBX 16 16 0 -2
BITMAP
1020
1020
11fe
1020
fdfc
2440
27ff
2484
6502
4efd
4884
fc84
14fc
3084
6084
c0fc
ENDCHAR
STARTCHAR 02-05-65
ENCODING 9569
SWIDTH 1024 0
DWIDTH 16 0
BBX 16 16 0 -2
BITMAP
1020
1020
103f
1020
fdfe
2502
2502
25fe
6502
4d02
49fe
fd02
1502
31fe
6048
c387
ENDCHAR
STARTCHAR 02-05-66
ENCODING 9570
SWIDTH 1024 0
DWIDTH 16 0
BBX 16 16 0 -2
BITMAP
1124
1124
13ff
1124
fd24
253c
2500
25fe
6420
4fff
48a8
fca8
15ac
3126
6323
c020
ENDCHAR
STARTCHAR 02-05-67
ENCODING 9571
SWIDTH 1024 0
DWIDTH 16 0
BBX 16 16 0 -2
BITMAP
2040
2040
23ff
2080
f9fe
2b10
28ff
6800
49fe
5902
51fe
f102
29fe
2902
6102
c10e
ENDCHAR
STARTCHAR 02-05-68
ENCODING 9572
SWIDTH 1024 0
DWIDTH 16 0
BBX 16 16 0 -2
BITMAP
1000
11ff
1101
117d
fd01
257d
2400
2400
64fe
4c82
48fe
fc82
14fe
3082
6082
c0fe
ENDCHAR
STARTCHAR 02-05-69
ENCODING 9573
SWIDTH 1024 0
DWIDTH 16 0
BBX 16 16 0 -2
BITMAP
1020
107c
10c4
13ac
fc58
2430
24e0
2780
64fe
4d20
4820
ffff
1420
3122
6122
c1fe
ENDCHAR
STARTCHAR 02-05-70
ENCODING 9574
SWIDTH 1024 0
DWIDTH 16 0
BBX 16 16 0 -2
BITMAP
1020
1040
11fe
1102
fdfe
2502
25fe
2502
6502
4dfe
4820
fc30
1452
3143
6145
c23c
ENDCHAR
STARTCHAR 02-05-71
ENCODING 9575
SWIDTH 1024 0
DWIDTH 16 0
BBX 16 16 0 -2
BITMAP
0040
7948
4a44
4bfc
4890
6890
5fff
490c
4b06
6e43
5bfe
4888
4898
49f0
c858
9b8e
ENDCHAR
STARTCHAR 02-05-72
ENCODING 9576
SWIDTH 1024 0
DWIDTH 16 0
BBX 16 16 0 -2
BITMAP
2108
2548
2548
255f
ffd2
2832
2802
2fea
6a8a
4a8e
5a84
f284
2aae
62ca
469b
c411
ENDCHAR
STARTCHAR 02-05-73
ENCODING 9577
SWIDTH 1024 0
DWIDTH 16 0
BBX 16 16 0 -2
BITMAP
1020
1040
11fe
1122
fd22
25fe
2522
2522
65fe
4c50
4854
fc55
14df
3090
6191
c10f
ENDCHAR
STARTCHAR 02-05-74
ENCODING 9578
SWIDTH 1024 0
DWIDTH 16 0
BBX 16 16 0 -2
BITMAP
10fe
1082
10fe
1082
fcfe
2400
25ff
2529
65ff
4c00
4bff
f8c6
146c
3038
606c
c3c7
ENDCHAR
STARTCHAR 02-05-75
ENCODING 9579
SWIDTH 1024 0
DWIDTH 16 0
BBX 16 16 0 -2
BITMAP
1010
10fe
1044
1044
ffff
2400
24fe
2482
64fe
4c82
48fe
fc10
17ff
3010
6010
c010
ENDCHAR
STARTCHAR 02-05-76
ENCODING 9580
SWIDTH 1024 0
DWIDTH 16 0
BBX 16 16 0 -2
BITMAP
0840
7f7e
0844
7fa8
1c10
2a28
4946
0000
7fff
4200
7fff
4410
4810
5f20
c1f0
9f1c
ENDCHAR
STARTCHAR 02-05-77
ENCODING 9581
SWIDTH 1024 0
DWIDTH 16 0
BBX 16 16 0 -2
BITMAP
1020
11ff
1020
11fe
fd22
25fe
2522
25fe
6422
4dff
4805
fdff
1404
3044
6024
c00c
ENDCHAR
STARTCHAR 02-05-78
ENCODING 9582
SWIDTH 1024 0
DWIDTH 16 0
BBX 16 16 0 -2
BITMAP
4110
4110
4fd0
413f
f7e1
556a
5548
5548
d7c8
9108
931c
f394
2d54
6976
4122
c163
ENDCHAR
STARTCHAR 02-05-79
ENCODING 9583
SWIDTH 1024 0
DWIDTH 16 0
BBX 16 16 0 -2
BITMAP
1000
11ff
1010
11ff
fd11
2555
2511
2454
6400
4cfe
4800
fdff
1420
307e
6002
c00e
ENDCHAR
STARTCHAR 02-05-80
ENCODING 9584
SWIDTH 1024 0
DWIDTH 16 0
BBX 16 16 0 -2
BITMAP
1080
1080
11ff
13aa
fcaa
24aa
27ff
24aa
64aa
4caa
4bff
f800
1400
30aa
61ab
c129
ENDCHAR
STARTCHAR 02-05-81
ENCODING 9585
SWIDTH 1024 0
DWIDTH 16 0
BBX 16 16 0 -2
BITMAP
2018
23f4
2246
2422
fbfc
2a04
2a04
6bfe
4a02
5a02
53ff
fa01
2a15
2555
6343
c20e
ENDCHAR
STARTCHAR 02-05-82
ENCODING 9586
SWIDTH 1024 0
DWIDTH 16 0
BBX 16 16 0 -2
BITMAP
1020
11fe
1020
13ff
fc00
2484
27df
2484
64e4
4f9f
4800
fbff
1488
3089
6189
c707
ENDCHAR
STARTCHAR 02-05-83
ENCODING 9587
SWIDTH 1024 0
DWIDTH 16 0
BBX 16 16 0 -2
BITMAP
1020
13ff
1000
11fe
fd02
257a
254a
257a
6502
4dfe
4884
fcfc
1484
30fc
6000
c3ff
ENDCHAR
STARTCHAR 02-05-84
ENCODING 9588
SWIDTH 1024 0
DWIDTH 16 0
BBX 16 16 0 -2
BITMAP
0100
7fff
4000
7ffc
0000
1ff8
1008
1ff8
0100
791e
4fca
794a
4a5e
7a8a
498a
9a53
ENDCHAR
STARTCHAR 02-05-85
ENCODING 9589
SWIDTH 1024 0
DWIDTH 16 0
BBX 16 16 0 -2
BITMAP
1000
11ff
1054
1092
fdff
2511
25bb
2555
65bb
4d11
4911
fdbb
1555
31bb
6111
c113
ENDCHAR
STARTCHAR 02-05-86
ENCODING 9590
SWIDTH 1024 0
DWIDTH 16 0
BBX 16 16 0 -2
BITMAP
2104
47e8
d01a
23c4
4809
fbdf
2004
abd5
aa55
23c4
0200
ffff
0810
1f20
01f8
7f0e
ENDCHAR
STARTCHAR 02-05-87
ENCODING 9591
SWIDTH 1024 0
DWIDTH 16 0
BBX 16 16 0 -2
BITMAP
0000
3ff8
0030
0060
00c0
0180
0100
01ff
0100
0100
0100
0100
0100
0100
0100
0700
ENDCHAR
STARTCHAR 02-05-88
ENCODING 9592
SWIDTH 1024 0
DWIDTH 16 0
BBX 16 16 0 -2
BITMAP
0000
0ff0
0060
00c0
7ffe
0080
0080
0380
3c7c
0408
0810
0efe
7810
0810
0810
1830
ENDCHAR
STARTCHAR 02-05-89
ENCODING 9593
SWIDTH 1024 0
DWIDTH 16 0
BBX 16 16 0 -2
BITMAP
0000
7efe
4804
7e4c
4238
7e10
4878
7ece
0000
0fe0
00c0
0100
ffff
0100
0100
0700
ENDCHAR
STARTCHAR 02-05-90
ENCODING 9594
SWIDTH 1024 0
DWIDTH 16 0
BBX 16 16 0 -2
BITMAP
1010
9210
feff
2842
7e24
c2ff
7e10
40ff
7e10
4210
7ff0
0040
ffff
0100
0100
0300
ENDCHAR
STARTCHAR 02-05-91
ENCODING 9595
SWIDTH 1024 0
DWIDTH 16 0
BBX 16 16 0 -2
BITMAP
2104
47e8
d01a
23c4
4809
fbdf
23c4
aa55
abd5
2004
1ff0
0080
ffff
0100
0100
0300
ENDCHAR
STARTCHAR 02-05-92
ENCODING 9596
SWIDTH 1024 0
DWIDTH 16 0
BBX 16 16 0 -2
BITMAP
0100
0100
7ffe
4002
4002
0000
3ffc
0100
0100
0100
0100
0100
0100
0100
0100
0700
ENDCHAR
STARTCHAR 02-05-93
ENCODING 9597
SWIDTH 1024 0
DWIDTH 16 0
BBX 16 16 0 -2
BITMAP
0100
0100
7ffe
4002
4202
0200
0200
3ff0
0210
0210
0210
0210
0610
0412
0c1a
380e
ENDCHAR
STARTCHAR 02-05-94
ENCODING 9598
SWIDTH 1024 0
DWIDTH 16 0
BBX 16 16 0 -2
BITMAP
0100
0100
7ffe
4002
4002
0000
1ff8
0000
0000
ffff
0100
0100
0100
0100
0100
0700
ENDCHAR
STARTCHAR 02-08-01
ENCODING 10273
SWIDTH 1024 0
DWIDTH 16 0
BBX 16 16 0 -2
BITMAP
0100
0100
7ffe
4002
4002
3e20
0220
0220
7e60
4040
7e40
0244
06c4
0484
049e
3df2
ENDCHAR
STARTCHAR 02-08-02
ENCODING 10274
SWIDTH 1024 0
DWIDTH 16 0
BBX 16 16 0 -2
BITMAP
0100
0100
7ffe
4002
4052
0048
3ffc
2040
2044
3f64
2228
2238
2612
643a
4c6e
c0c4
ENDCHAR
STARTCHAR 02-08-03
ENCODING 10275
SWIDTH 1024 0
DWIDTH 16 0
BBX 16 16 0 -2
BITMAP
0100
0100
7ffe
4002
0002
7f80
227e
2202
3e42
2246
3e64
222c
2218
3e3c
e2e7
0200
ENDCHAR
STARTCHAR 02-08-04
ENCODING 10276
SWIDTH 1024 0
DWIDTH 16 0
BBX 16 16 0 -2
BITMAP
0100
0100
7ffe
4002
40f8
0f90
1918
1088
0100
7ffe
0520
0520
0d30
1918
710e
0100
ENDCHAR
STARTCHAR 02-08-05
ENCODING 10277
SWIDTH 1024 0
DWIDTH 16 0
BBX 16 16 0 -2
BITMAP
0100
0100
7ffe
4002
407a
1fc0
0100
1ff8
1108
1ff8
0100
3ffc
2124
21f4
2f14
200c
ENDCHAR
STARTCHAR 02-08-06
ENCODING 10278
SWIDTH 1024 0
DWIDTH 16 0
BBX 16 16 0 -2
BITMAP
0100
0100
7ffe
4002
4402
25fe
2420
2420
3dfe
0522
0532
7d7a
25ce
2502
6502
c50e
ENDCHAR
STARTCHAR 02-08-07
ENCODING 10279
SWIDTH 1024 0
DWIDTH 16 0
BBX 16 16 0 -2
BITMAP
0100
0100
7ffe
4002
71fa
1808
03fc
6008
37fe
1402
05fa
0888
18d8
1070
30d8
638e
ENDCHAR
STARTCHAR 02-08-08
ENCODING 10280
SWIDTH 1024 0
DWIDTH 16 0
BBX 16 16 0 -2
BITMAP
1010
1010
fe10
82fe
9210
7c10
1010
7c10
11ff
fe10
1038
7c28
446c
4444
44c6
7d83
ENDCHAR
STARTCHAR 02-08-09
ENCODING 10281
SWIDTH 1024 0
DWIDTH 16 0
BBX 16 16 0 -2
BITMAP
0100
0100
7ffe
4002
0042
78fc
4b88
4870
51dc
56f7
4920
49fc
4a20
59fc
4020
43fe
ENDCHAR
STARTCHAR 02-08-10
ENCODING 10282
SWIDTH 1024 0
DWIDTH 16 0
BBX 16 16 0 -2
BITMAP
0100
0100
7ffe
4042
4482
25fc
2504
25fc
3d04
05fc
0504
7dfc
2420
25fe
64a8
c526
ENDCHAR
STARTCHAR 02-08-11
ENCODING 10283
SWIDTH 1024 0
DWIDTH 16 0
BBX 16 16 0 -2
BITMAP
0030
00e0
1f90
1118
1188
308c
6086
0020
7ffe
0020
0420
0620
0220
0020
0020
00e0
ENDCHAR
STARTCHAR 02-08-12
ENCODING 10284
SWIDTH 1024 0
DWIDTH 16 0
BBX 16 16 0 -2
BITMAP
1ff8
1008
1008
1ff8
1008
1008
1ff8
0000
7ffe
0020
ffff
0420
0620
0220
0020
00e0
ENDCHAR
STARTCHAR 02-08-13
ENCODING 10285
SWIDTH 1024 0
DWIDTH 16 0
BBX 16 16 0 -2
BITMAP
0110
0108
ffff
0100
3ffc
2104
3ffc
2104
3ffc
2104
0010
ffff
0810
0c10
0410
0070
ENDCHAR
STARTCHAR 02-08-14
ENCODING 10286
SWIDTH 1024 0
DWIDTH 16 0
BBX 16 16 0 -2
BITMAP
2800
2800
6c00
45fe
c620
8020
a820
28fc
2820
2820
2820
2820
29fe
6801
4c01
c7ff
ENDCHAR
STARTCHAR 02-08-15
ENCODING 10287
SWIDTH 1024 0
DWIDTH 16 0
BBX 16 16 0 -2
BITMAP
100c
10f8
1020
13ff
fc20
11fe
1122
11fe
1922
39fe
2820
29fe
2820
6bff
4c01
c7ff
ENDCHAR
STARTCHAR 02-08-16
ENCODING 10288
SWIDTH 1024 0
DWIDTH 16 0
BBX 16 16 0 -2
BITMAP
0000
3ffe
2002
3ffe
2240
2240
27fc
2c40
2040
3fff
2150
2150
6358
464c
cc46
0040
ENDCHAR
STARTCHAR 02-08-17
ENCODING 10289
SWIDTH 1024 0
DWIDTH 16 0
BBX 16 16 0 -2
BITMAP
0000
3ffe
2002
3ffe
2000
2488
3fff
2488
24f8
2400
27fe
2040
7fff
4248
c64c
0c46
ENDCHAR
STARTCHAR 02-08-18
ENCODING 10290
SWIDTH 1024 0
DWIDTH 16 0
BBX 16 16 0 -2
BITMAP
0000
3ffe
2002
3ffe
2010
2450
245e
2c50
2a50
32ff
2610
2410
6c9e
54d0
c4b0
051f
ENDCHAR
STARTCHAR 02-08-19
ENCODING 10291
SWIDTH 1024 0
DWIDTH 16 0
BBX 16 16 0 -2
BITMAP
3ffe
2002
3ffe
2000
24a4
25ff
2ca4
2abc
3280
26fe
2410
2dff
7454
4454
c4d6
0593
ENDCHAR
STARTCHAR 02-08-20
ENCODING 10292
SWIDTH 1024 0
DWIDTH 16 0
BBX 16 16 0 -2
BITMAP
3ffe
2002
3ffe
2410
24fe
2c92
2bff
3292
26fe
2410
2cfe
3492
65ff
4464
c438
05ef
ENDCHAR
STARTCHAR 02-08-21
ENCODING 10293
SWIDTH 1024 0
DWIDTH 16 0
BBX 16 16 0 -2
BITMAP
3ffe
2002
3ffe
2000
24fc
2420
2cfe
2a48
32fc
274a
25ff
2d02
757a
454a
c57a
0506
ENDCHAR
STARTCHAR 02-08-22
ENCODING 10294
SWIDTH 1024 0
DWIDTH 16 0
BBX 16 16 0 -2
BITMAP
0810
0810
0c30
0420
7ffe
0100
1108
1108
1108
1108
1ff8
0100
0300
0200
0600
1c00
ENDCHAR
STARTCHAR 02-08-23
ENCODING 10295
SWIDTH 1024 0
DWIDTH 16 0
BBX 16 16 0 -2
BITMAP
2000
23fc
200c
2018
a810
a830
a860
a840
a8c0
a980
a901
fb01
0203
0302
01fe
0000
ENDCHAR
STARTCHAR 02-08-24
ENCODING 10296
SWIDTH 1024 0
DWIDTH 16 0
BBX 16 16 0 -2
BITMAP
0100
2104
2104
2104
3ffc
0000
2004
2104
2104
2104
2104
2104
6104
4104
c004
0004
ENDCHAR
STARTCHAR 02-08-25
ENCODING 10297
SWIDTH 1024 0
DWIDTH 16 0
BBX 16 16 0 -2
BITMAP
2000
27ff
2000
2090
a890
a890
a890
a890
a890
a890
a890
f890
0190
0111
0319
060f
ENDCHAR
STARTCHAR 02-08-26
ENCODING 10298
SWIDTH 1024 0
DWIDTH 16 0
BBX 16 16 0 -2
BITMAP
2000
21fe
2102
2102
a902
a902
a9fe
a910
a910
a910
a918
fb08
020c
0204
0606
0c03
ENDCHAR
STARTCHAR 02-08-27
ENCODING 10299
SWIDTH 1024 0
DWIDTH 16 0
BBX 16 16 0 -2
BITMAP
0100
2104
2104
2104
3ffc
0200
0200
ffff
0200
07f0
0c10
1e30
3360
e1c0
0778
1c0f
ENDCHAR
STARTCHAR 02-08-28
ENCODING 10300
SWIDTH 1024 0
DWIDTH 16 0
BBX 16 16 0 -2
BITMAP
2000
20ff
2084
2084
a884
a884
a884
abff
a824
a824
a864
f844
00c4
0184
0704
001c
ENDCHAR
STARTCHAR 02-08-29
ENCODING 10301
SWIDTH 1024 0
DWIDTH 16 0
BBX 16 16 0 -2
BITMAP
0000
3ffc
2104
2104
3ffc
2000
2002
3002
1ffe
0100
0100
2104
2104
2104
3ffc
0000
ENDCHAR
STARTCHAR 02-08-30
ENCODING 10302
SWIDTH 1024 0
DWIDTH 16 0
BBX 16 16 0 -2
BITMAP
2000
23ff
2200
2200
aafe
aa10
aa10
aa10
abff
aa10
aa10
fa10
0610
0410
0c10
0010
ENDCHAR
STARTCHAR 02-08-31
ENCODING 10303
SWIDTH 1024 0
DWIDTH 16 0
BBX 16 16 0 -2
BITMAP
2020
2222
2326
2124
a820
abfe
a820
a820
a820
afff
a820
f820
0020
0020
0020
0020
ENDCHAR
STARTCHAR 02-08-32
ENCODING 10304
SWIDTH 1024 0
DWIDTH 16 0
BBX 16 16 0 -2
BITMAP
200c
2038
21e0
2100
a900
a9ff
a910
a910
a910
a970
a91c
f917
0310
0210
0610
0010
ENDCHAR
STARTCHAR 02-08-33
ENCODING 10305
SWIDTH 1024 0
DWIDTH 16 0
BBX 16 16 0 -2
BITMAP
2000
23ff
2100
2100
a900
a9fe
a902
a902
a902
a9fe
a900
f900
0100
0100
03ff
0000
ENDCHAR
STARTCHAR 02-08-34
ENCODING 10306
SWIDTH 1024 0
DWIDTH 16 0
BBX 16 16 0 -2
BITMAP
0100
2104
2104
2104
3ffc
0000
7ffe
0008
1f88
1088
1088
1088
1f88
0008
0008
0038
ENDCHAR
STARTCHAR 02-08-35
ENCODING 10307
SWIDTH 1024 0
DWIDTH 16 0
BBX 16 16 0 -2
BITMAP
0100
2104
2104
3ffc
0000
0100
0100
3ffc
0010
0810
0830
0c20
0460
0440
0040
7ffe
ENDCHAR
STARTCHAR 02-08-36
ENCODING 10308
SWIDTH 1024 0
DWIDTH 16 0
BBX 16 16 0 -2
BITMAP
0100
2104
2104
3ffc
0000
7ffe
0102
0302
0e06
381c
e000
1ffc
1004
1004
1004
1ffc
ENDCHAR
STARTCHAR 02-08-37
ENCODING 10309
SWIDTH 1024 0
DWIDTH 16 0
BBX 16 16 0 -2
BITMAP
2090
2090
23fe
2092
a892
abfe
aa90
aa90
aa90
abff
a891
f891
0193
0112
0316
0610
ENDCHAR
STARTCHAR 02-08-38
ENCODING 10310
SWIDTH 1024 0
DWIDTH 16 0
BBX 16 16 0 -2
BITMAP
2020
2070
20d8
218c
ab06
aefb
a800
a800
abfe
a842
a842
f842
0042
004e
0040
0040
ENDCHAR
STARTCHAR 02-08-39
ENCODING 10311
SWIDTH 1024 0
DWIDTH 16 0
BBX 16 16 0 -2
BITMAP
2020
2020
2020
2020
abff
a820
a820
a820
a820
a9fe
a902
f902
0102
0102
0102
01fe
ENDCHAR
STARTCHAR 02-08-40
ENCODING 10312
SWIDTH 1024 0
DWIDTH 16 0
BBX 16 16 0 -2
BITMAP
0100
2104
2104
3ffc
0000
1004
1f04
317f
2124
7124
db24
0624
0cff
1804
3004
e004
ENDCHAR
STARTCHAR 02-08-41
ENCODING 10313
SWIDTH 1024 0
DWIDTH 16 0
BBX 16 16 0 -2
BITMAP
0100
2104
2104
2104
3ffc
0200
07f0
0c10
7e60
03c0
0e70
f81f
0ff0
0810
0810
0ff0
ENDCHAR
STARTCHAR 02-08-42
ENCODING 10314
SWIDTH 1024 0
DWIDTH 16 0
BBX 16 16 0 -2
BITMAP
0100
2104
2104
3ffc
0000
21f8
2108
fb08
260f
2000
3bfc
e104
2098
2070
21dc
6707
ENDCHAR
STARTCHAR 02-08-43
ENCODING 10315
SWIDTH 1024 0
DWIDTH 16 0
BBX 16 16 0 -2
BITMAP
2020
2020
21fc
2020
a924
a904
afff
a904
a904
a800
abfe
f890
0090
0192
0312
060e
ENDCHAR
STARTCHAR 02-08-44
ENCODING 10316
SWIDTH 1024 0
DWIDTH 16 0
BBX 16 16 0 -2
BITMAP
2020
2020
23ff
2289
aa89
a888
a988
ab07
a800
a9fe
a820
f820
0020
0020
03ff
0000
ENDCHAR
STARTCHAR 02-08-45
ENCODING 10317
SWIDTH 1024 0
DWIDTH 16 0
BBX 16 16 0 -2
BITMAP
2000
23fc
2204
2204
abfc
aa04
aa04
abfc
a800
aa10
aa16
fbdc
0210
0211
03d3
0e0e
ENDCHAR
STARTCHAR 02-08-46
ENCODING 10318
SWIDTH 1024 0
DWIDTH 16 0
BBX 16 16 0 -2
BITMAP
0100
2104
2104
3ffc
0000
3ffc
2004
3ffc
2080
2488
2488
27f8
6080
4884
c884
0ffc
ENDCHAR
STARTCHAR 02-08-47
ENCODING 10319
SWIDTH 1024 0
DWIDTH 16 0
BBX 16 16 0 -2
BITMAP
2020
2020
23ff
2020
a9fe
a820
abff
a800
a9fe
a922
a922
f922
01fe
0102
0102
010e
ENDCHAR
STARTCHAR 02-08-48
ENCODING 10320
SWIDTH 1024 0
DWIDTH 16 0
BBX 16 16 0 -2
BITMAP
2020
2020
27ff
2020
abfe
aa22
abfe
aa22
aa22
abfe
a8a8
f8a8
01ac
0326
0623
0020
ENDCHAR
STARTCHAR 02-08-49
ENCODING 10321
SWIDTH 1024 0
DWIDTH 16 0
BBX 16 16 0 -2
BITMAP
2002
218c
2070
238c
a840
abff
a840
a8fe
a982
aafe
a882
f8fe
0082
0082
0182
0106
ENDCHAR
STARTCHAR 02-08-50
ENCODING 10322
SWIDTH 1024 0
DWIDTH 16 0
BBX 16 16 0 -2
BITMAP
2020
2020
27ff
2088
a8a8
a924
abfe
ad25
a924
a9fc
a924
f924
01fc
0021
0033
001e
ENDCHAR
STARTCHAR 02-08-51
ENCODING 10323
SWIDTH 1024 0
DWIDTH 16 0
BBX 16 16 0 -2
BITMAP
0100
4102
4102
7ffe
0000
7f02
4122
4122
7f22
4122
7f22
4122
4102
7f02
1402
630e
ENDCHAR
STARTCHAR 02-08-52
ENCODING 10324
SWIDTH 1024 0
DWIDTH 16 0
BBX 16 16 0 -2
BITMAP
2020
2020
23ff
2084
a8cc
a848
abff
aa21
aa21
a9fe
a922
f922
0122
0126
0020
0020
ENDCHAR
STARTCHAR 02-08-53
ENCODING 10325
SWIDTH 1024 0
DWIDTH 16 0
BBX 16 16 0 -2
BITMAP
0100
4102
4102
7ffe
1020
33fe
6022
c7ff
1022
33fe
6020
e3fe
2020
27ff
2020
2020
ENDCHAR
STARTCHAR 02-08-54
ENCODING 10326
SWIDTH 1024 0
DWIDTH 16 0
BBX 16 16 0 -2
BITMAP
2010
2111
2111
2111
a5ff
a400
a5ff
a410
a420
a5ff
a549
fd49
0149
0149
0149
014b
ENDCHAR
STARTCHAR 02-08-55
ENCODING 10327
SWIDTH 1024 0
DWIDTH 16 0
BBX 16 16 0 -2
BITMAP
0100
4102
7ffe
0000
05e0
1c38
710e
0220
07f0
1c18
7efe
1212
6262
0e0e
1212
6666
ENDCHAR
STARTCHAR 02-08-56
ENCODING 10328
SWIDTH 1024 0
DWIDTH 16 0
BBX 16 16 0 -2
BITMAP
2020
2020
23ff
2000
a8fc
a884
a8fc
a800
abff
aa01
aafd
fa85
0285
02fd
0201
0207
ENDCHAR
STARTCHAR 02-08-57
ENCODING 10329
SWIDTH 1024 0
DWIDTH 16 0
BBX 16 16 0 -2
BITMAP
2020
2040
23fe
2222
aa22
abfe
aa22
aa22
abfe
a890
a894
f895
019f
0110
0311
0e0f
ENDCHAR
STARTCHAR 02-08-58
ENCODING 10330
SWIDTH 1024 0
DWIDTH 16 0
BBX 16 16 0 -2
BITMAP
2048
2090
27ff
2090
abfe
a892
a892
afff
a892
a892
abfe
f898
0194
0296
0493
0090
ENDCHAR
STARTCHAR 02-08-59
ENCODING 10331
SWIDTH 1024 0
DWIDTH 16 0
BBX 16 16 0 -2
BITMAP
0100
2104
2104
3ffc
0800
08bf
7fa1
0923
0a26
ffe4
1022
3f21
e121
3f27
2120
3f20
ENDCHAR
STARTCHAR 02-08-60
ENCODING 10332
SWIDTH 1024 0
DWIDTH 16 0
BBX 16 16 0 -2
BITMAP
2000
27ff
2090
23fe
aa92
aa92
abfe
a800
abfe
a800
afff
f820
0124
0326
0623
00e0
ENDCHAR
STARTCHAR 02-08-61
ENCODING 10333
SWIDTH 1024 0
DWIDTH 16 0
BBX 16 16 0 -2
BITMAP
0100
2104
2104
3ffc
0000
4410
447e
45d2
7c5c
05f0
0408
fdff
2488
2448
6408
c418
ENDCHAR
STARTCHAR 02-08-62
ENCODING 10334
SWIDTH 1024 0
DWIDTH 16 0
BBX 16 16 0 -2
BITMAP
0400
1ff0
1010
1ff0
1010
1ff0
1000
1fff
1000
1ffe
4922
c496
0100
4102
4102
7ffe
ENDCHAR
STARTCHAR 02-08-63
ENCODING 10335
SWIDTH 1024 0
DWIDTH 16 0
BBX 16 16 0 -2
BITMAP
20f0
2018
218c
2707
abfe
aa22
aaaa
aaaa
abfe
a800
a9fc
f904
01fc
0104
0104
01fc
ENDCHAR
STARTCHAR 02-08-64
ENCODING 10336
SWIDTH 1024 0
DWIDTH 16 0
BBX 16 16 0 -2
BITMAP
0100
2104
2104
3ffc
0820
1c20
367e
6042
7ed6
0814
7f10
0810
6a38
2828
0f6c
78c6
ENDCHAR
STARTCHAR 02-08-65
ENCODING 10337
SWIDTH 1024 0
DWIDTH 16 0
BBX 16 16 0 -2
BITMAP
2104
2555
2555
2104
aa8a
ac51
a800
afff
ac01
ac41
abfe
f842
00c2
0086
0184
071c
ENDCHAR
STARTCHAR 02-08-66
ENCODING 10338
SWIDTH 1024 0
DWIDTH 16 0
BBX 16 16 0 -2
BITMAP
2222
2124
2020
27ff
a8a8
a9ac
af27
a920
a9c4
ab5f
ae54
f9d4
00bf
0184
0304
0604
ENDCHAR
STARTCHAR 02-08-67
ENCODING 10339
SWIDTH 1024 0
DWIDTH 16 0
BBX 16 16 0 -2
BITMAP
2100
21df
2149
2249
abf6
aaa4
aab4
abff
aaa4
aaa4
abff
fa24
0224
0624
0424
0464
ENDCHAR
STARTCHAR 02-08-68
ENCODING 10340
SWIDTH 1024 0
DWIDTH 16 0
BBX 16 16 0 -2
BITMAP
0100
2104
2104
3ffc
1040
3ffe
6080
bffc
2080
3ffc
2080
3fff
0000
7c7e
4442
47ce
ENDCHAR
STARTCHAR 02-08-69
ENCODING 10341
SWIDTH 1024 0
DWIDTH 16 0
BBX 16 16 0 -2
BITMAP
0200
3ffc
2064
2fa4
2544
2ff4
2384
2544
0920
ffff
0c60
793e
0100
2104
2104
3ffc
ENDCHAR
STARTCHAR 02-08-70
ENCODING 10342
SWIDTH 1024 0
DWIDTH 16 0
BBX 16 16 0 -2
BITMAP
2020
21fc
2104
21fc
a904
a9fc
a904
abfe
aa22
abfe
aa22
fbfe
0088
07ff
0108
0608
ENDCHAR
STARTCHAR 02-08-71
ENCODING 10343
SWIDTH 1024 0
DWIDTH 16 0
BBX 16 16 0 -2
BITMAP
2020
23fe
2020
21fc
a800
abfe
a802
a8fa
a820
a9fc
a800
ffff
0004
03ff
02a4
038c
ENDCHAR
STARTCHAR 02-08-72
ENCODING 10344
SWIDTH 1024 0
DWIDTH 16 0
BBX 16 16 0 -2
BITMAP
2514
27df
2924
27df
aa8a
aaca
ac93
abfe
aa02
abfe
aa02
fbfe
0202
03fe
0104
0603
ENDCHAR
STARTCHAR 02-08-73
ENCODING 10345
SWIDTH 1024 0
DWIDTH 16 0
BBX 16 16 0 -2
BITMAP
279e
2492
279e
2000
afff
a808
abc8
a90f
affa
aa52
abca
fa4e
0bc4
0a4e
13ca
065b
ENDCHAR
STARTCHAR 02-08-74
ENCODING 10346
SWIDTH 1024 0
DWIDTH 16 0
BBX 16 16 0 -2
BITMAP
2104
21c6
2105
2fe4
a91f
afc4
a924
afe4
aa44
afee
aaaa
fcea
082a
0baa
192a
0933
ENDCHAR
STARTCHAR 02-08-75
ENCODING 10347
SWIDTH 1024 0
DWIDTH 16 0
BBX 16 16 0 -2
BITMAP
0000
7ffe
0888
1998
1110
3330
1998
0888
0888
0000
3ffc
0100
0100
0100
0100
7ffe
ENDCHAR
STARTCHAR 02-08-76
ENCODING 10348
SWIDTH 1024 0
DWIDTH 16 0
BBX 16 16 0 -2
BITMAP
0888
1998
1110
3330
1998
0a88
0400
3ffc
2004
2624
2364
20c4
23a4
2e24
2004
3ffc
ENDCHAR
STARTCHAR 02-08-77
ENCODING 10349
SWIDTH 1024 0
DWIDTH 16 0
BBX 16 16 0 -2
BITMAP
0888
1998
3330
1998
0888
3ffc
2664
2184
2664
3ffc
2948
2528
294c
2525
39c7
e702
ENDCHAR
STARTCHAR 02-08-78
ENCODING 10350
SWIDTH 1024 0
DWIDTH 16 0
BBX 16 16 0 -2
BITMAP
0000
03f8
fd08
1108
1108
1108
17e8
1108
1108
1d08
7108
c108
0108
0309
0209
0607
ENDCHAR
STARTCHAR 02-08-79
ENCODING 10351
SWIDTH 1024 0
DWIDTH 16 0
BBX 16 16 0 -2
BITMAP
0000
1ff8
1008
1008
1008
1008
1ff8
1000
1000
1ffc
1004
1004
1004
1004
1ffc
0000
ENDCHAR
STARTCHAR 02-08-80
ENCODING 10352
SWIDTH 1024 0
DWIDTH 16 0
BBX 16 16 0 -2
BITMAP
0000
7ffe
0100
0100
0100
3ffc
2104
2104
2104
2104
2104
2104
211c
0100
0100
0100
ENDCHAR
STARTCHAR 02-08-81
ENCODING 10353
SWIDTH 1024 0
DWIDTH 16 0
BBX 16 16 0 -2
BITMAP
2010
2030
2020
fcfc
a484
a484
a484
a484
a484
a484
ac84
2084
2084
2185
2105
2303
ENDCHAR
STARTCHAR 02-08-82
ENCODING 10354
SWIDTH 1024 0
DWIDTH 16 0
BBX 16 16 0 -2
BITMAP
0890
0898
1888
10fe
37c0
5060
1032
111e
0100
3ffc
2104
2104
2104
2104
210c
0100
ENDCHAR
STARTCHAR 02-08-83
ENCODING 10355
SWIDTH 1024 0
DWIDTH 16 0
BBX 16 16 0 -2
BITMAP
1008
1018
1010
feff
9281
9281
9281
9281
92ff
9281
9681
1081
1081
1081
10ff
1000
ENDCHAR
STARTCHAR 02-08-84
ENCODING 10356
SWIDTH 1024 0
DWIDTH 16 0
BBX 16 16 0 -2
BITMAP
0000
0920
1930
311c
6106
0100
3ffc
2104
2544
2564
2d24
2934
2914
2104
2104
201c
ENDCHAR
STARTCHAR 02-08-85
ENCODING 10357
SWIDTH 1024 0
DWIDTH 16 0
BBX 16 16 0 -2
BITMAP
0100
0100
ffff
0420
2424
6426
cc23
1920
0100
3ffc
2104
2104
2104
2104
211c
0100
ENDCHAR
STARTCHAR 02-08-86
ENCODING 10358
SWIDTH 1024 0
DWIDTH 16 0
BBX 16 16 0 -2
BITMAP
0800
087e
7f44
0848
7e44
0842
ff42
104e
2040
c100
3ffc
2104
2104
2104
211c
0100
ENDCHAR
STARTCHAR 02-08-87
ENCODING 10359
SWIDTH 1024 0
DWIDTH 16 0
BBX 16 16 0 -2
BITMAP
2020
2022
21fe
fc24
a42c
a428
a7ff
a414
a422
a4fe
ad82
2282
20fe
2082
2082
20fe
ENDCHAR
STARTCHAR 02-08-88
ENCODING 10360
SWIDTH 1024 0
DWIDTH 16 0
BBX 16 16 0 -2
BITMAP
2124
2124
23ff
fd24
a524
a53c
a500
a5fe
a420
a7ff
aca8
20a8
21ac
2126
2323
2020
ENDCHAR
STARTCHAR 02-08-89
ENCODING 10361
SWIDTH 1024 0
DWIDTH 16 0
BBX 16 16 0 -2
BITMAP
2100
21de
2322
fea6
a554
a488
a504
a6fb
a400
a400
affe
2020
2124
2326
2623
20e0
ENDCHAR
STARTCHAR 02-08-90
ENCODING 10362
SWIDTH 1024 0
DWIDTH 16 0
BBX 16 16 0 -2
BITMAP
2000
21ff
2048
fdff
a549
a549
a5ff
a400
a4fe
a400
adff
2010
2094
2196
2313
2070
ENDCHAR
STARTCHAR 02-08-91
ENCODING 10363
SWIDTH 1024 0
DWIDTH 16 0
BBX 16 16 0 -2
BITMAP
2000
27ff
2400
fc02
a7f2
a402
a5ef
a522
a52a
a5ea
ac0a
2522
2522
25a2
28f2
238e
ENDCHAR
STARTCHAR 02-08-92
ENCODING 10364
SWIDTH 1024 0
DWIDTH 16 0
BBX 16 16 0 -2
BITMAP
0804
7eff
0804
ff24
0834
7e94
0904
fffc
1008
1ff8
1008
1ff8
0100
3ffc
2104
211c
ENDCHAR
STARTCHAR 02-08-93
ENCODING 10365
SWIDTH 1024 0
DWIDTH 16 0
BBX 16 16 0 -2
BITMAP
2020
23fe
2020
f9fc
a800
afff
a801
a9fd
a820
abfe
a800
27ff
2002
27bf
2492
2786
ENDCHAR
STARTCHAR 02-08-94
ENCODING 10366
SWIDTH 1024 0
DWIDTH 16 0
BBX 16 16 0 -2
BITMAP
2088
2088
27ff
f888
abfe
aa52
aa52
abfe
a809
abff
aa08
230a
228a
260d
2415
2c67
ENDCHAR
STARTCHAR 02-12-01
ENCODING 11297
SWIDTH 1024 0
DWIDTH 16 0
BBX 16 16 0 -2
BITMAP
2020
2020
27ff
fc82
a7f2
a482
a5ef
a402
a5ea
a52a
adea
2402
2522
25a2
28f2
238e
ENDCHAR
STARTCHAR 02-12-02
ENCODING 11298
SWIDTH 1024 0
DWIDTH 16 0
BBX 16 16 0 -2
BITMAP
2252
2294
27df
fab4
abde
aa94
abde
aa94
abdf
a800
affe
220c
2198
20f0
219c
2707
ENDCHAR
STARTCHAR 02-12-03
ENCODING 11299
SWIDTH 1024 0
DWIDTH 16 0
BBX 16 16 0 -2
BITMAP
0080
0080
3fff
2210
2210
2210
26ff
2454
2c54
3454
24d6
2492
6492
4593
c410
0410
ENDCHAR
STARTCHAR 02-12-04
ENCODING 11300
SWIDTH 1024 0
DWIDTH 16 0
BBX 16 16 0 -2
BITMAP
0080
0080
3fff
2410
2410
24ff
2f10
2410
24fe
2446
2744
2c6c
6438
4438
c46c
0cc7
ENDCHAR
STARTCHAR 02-12-05
ENCODING 11301
SWIDTH 1024 0
DWIDTH 16 0
BBX 16 16 0 -2
BITMAP
0080
0080
3fff
2440
2420
3fff
2410
2464
26cc
2e18
2af2
2a06
6a1c
5a71
d301
31ff
ENDCHAR
STARTCHAR 02-12-06
ENCODING 11302
SWIDTH 1024 0
DWIDTH 16 0
BBX 16 16 0 -2
BITMAP
0080
0080
3fff
2000
2110
2ffe
2110
21f0
2000
27fe
2402
27fe
6420
4c30
d81c
3007
ENDCHAR
STARTCHAR 02-12-07
ENCODING 11303
SWIDTH 1024 0
DWIDTH 16 0
BBX 16 16 0 -2
BITMAP
0080
0080
3fff
2110
2110
2ffe
2110
2110
2000
27fc
2444
2444
67fc
4444
c444
07fc
ENDCHAR
STARTCHAR 02-12-08
ENCODING 11304
SWIDTH 1024 0
DWIDTH 16 0
BBX 16 16 0 -2
BITMAP
0080
0080
3fff
2100
2ffc
2884
2884
2ffc
2884
2ffc
2248
2254
6256
465a
c461
0c3f
ENDCHAR
STARTCHAR 02-12-09
ENCODING 11305
SWIDTH 1024 0
DWIDTH 16 0
BBX 16 16 0 -2
BITMAP
0080
3fff
2220
2220
3fbf
2262
2242
3fe2
2226
2234
3fdc
2408
679c
4c94
c8b6
19e3
ENDCHAR
STARTCHAR 02-12-10
ENCODING 11306
SWIDTH 1024 0
DWIDTH 16 0
BBX 16 16 0 -2
BITMAP
0080
0080
3fff
2000
27fc
2444
27fc
2444
27fc
2110
2ffe
2110
7fff
4208
c60c
0c06
ENDCHAR
STARTCHAR 02-12-11
ENCODING 11307
SWIDTH 1024 0
DWIDTH 16 0
BBX 16 16 0 -2
BITMAP
0000
fdfe
0902
1102
217a
794a
094a
097a
4942
6942
b94a
916a
393a
2d06
6700
c1ff
ENDCHAR
STARTCHAR 02-12-12
ENCODING 11308
SWIDTH 1024 0
DWIDTH 16 0
BBX 16 16 0 -2
BITMAP
0000
fdfe
094a
114a
217a
794a
094a
094a
497a
694a
b94a
914a
39fe
2c00
6700
c1ff
ENDCHAR
STARTCHAR 02-12-13
ENCODING 11309
SWIDTH 1024 0
DWIDTH 16 0
BBX 16 16 0 -2
BITMAP
0100
0100
ffff
0420
2424
6c26
d8e3
0000
0420
0420
ffff
0420
0c20
0820
1820
7020
ENDCHAR
STARTCHAR 02-12-14
ENCODING 11310
SWIDTH 1024 0
DWIDTH 16 0
BBX 16 16 0 -2
BITMAP
004c
0046
0042
ffff
0040
0040
0040
7f40
0060
0020
3e20
0030
0011
ff9b
000e
0004
ENDCHAR
STARTCHAR 02-12-15
ENCODING 11311
SWIDTH 1024 0
DWIDTH 16 0
BBX 16 16 0 -2
BITMAP
0000
fe7f
0201
0201
0201
7e7f
4040
4040
4040
7e7f
0201
0201
0603
0402
0c06
383c
ENDCHAR
STARTCHAR 02-12-16
ENCODING 11312
SWIDTH 1024 0
DWIDTH 16 0
BBX 16 16 0 -2
BITMAP
0010
fc10
0410
04ff
0491
7c91
4091
4091
4091
7c91
0491
0491
0493
0c10
0810
3810
ENDCHAR
STARTCHAR 02-12-17
ENCODING 11313
SWIDTH 1024 0
DWIDTH 16 0
BBX 16 16 0 -2
BITMAP
0040
fc40
0440
047f
04c1
7c93
4192
4010
4010
7c38
0428
0428
046c
0c44
08c6
3983
ENDCHAR
STARTCHAR 02-12-18
ENCODING 11314
SWIDTH 1024 0
DWIDTH 16 0
BBX 16 16 0 -2
BITMAP
0010
fcfe
0412
05ff
0412
7cfe
4010
4155
41d7
7d11
05ff
0511
05d7
0d55
0955
3a11
ENDCHAR
STARTCHAR 02-12-19
ENCODING 11315
SWIDTH 1024 0
DWIDTH 16 0
BBX 16 16 0 -2
BITMAP
0804
080c
0818
ffb0
0202
2206
260c
7418
9c31
0803
1c06
140c
3638
6300
c1c0
007f
ENDCHAR
STARTCHAR 02-12-20
ENCODING 11316
SWIDTH 1024 0
DWIDTH 16 0
BBX 16 16 0 -2
BITMAP
0004
7bc4
000c
7bd8
5ad0
0402
7fc6
4a04
7fcc
4a58
7fc1
5203
5bc2
d206
9a4c
31d8
ENDCHAR
STARTCHAR 02-12-21
ENCODING 11317
SWIDTH 1024 0
DWIDTH 16 0
BBX 16 16 0 -2
BITMAP
0820
1870
10d8
318c
6306
cafb
1800
1000
33fe
7042
d042
1042
1042
104e
1040
1040
ENDCHAR
STARTCHAR 02-12-22
ENCODING 11318
SWIDTH 1024 0
DWIDTH 16 0
BBX 16 16 0 -2
BITMAP
0820
1920
113e
3120
6120
cbff
1820
10a2
31a2
7326
d024
106c
1018
1030
10e0
1380
ENDCHAR
STARTCHAR 02-12-23
ENCODING 11319
SWIDTH 1024 0
DWIDTH 16 0
BBX 16 16 0 -2
BITMAP
0820
1820
17ff
3020
63fe
c822
1bff
1022
33fe
7020
d120
113e
1120
13a0
16e0
143f
ENDCHAR
STARTCHAR 02-12-24
ENCODING 11320
SWIDTH 1024 0
DWIDTH 16 0
BBX 16 16 0 -2
BITMAP
2010
3f7e
6112
4212
94ff
1f12
3112
217e
6510
e57e
2f10
32ff
2210
2610
2500
2cff
ENDCHAR
STARTCHAR 02-12-25
ENCODING 11321
SWIDTH 1024 0
DWIDTH 16 0
BBX 16 16 0 -2
BITMAP
0820
1820
13ff
3084
6048
cbff
1800
11fe
3122
71fe
d122
11fe
1020
11fe
1020
13ff
ENDCHAR
STARTCHAR 02-12-26
ENCODING 11322
SWIDTH 1024 0
DWIDTH 16 0
BBX 16 16 0 -2
BITMAP
0100
0100
0100
0100
0940
0960
0930
1910
3100
2100
0100
0100
0100
0100
0100
0100
ENDCHAR
STARTCHAR 02-12-27
ENCODING 11323
SWIDTH 1024 0
DWIDTH 16 0
BBX 16 16 0 -2
BITMAP
0000
0000
0200
0200
0200
0218
220c
22c6
2262
6232
4210
c200
0200
0e00
0000
0000
ENDCHAR
STARTCHAR 02-12-28
ENCODING 11324
SWIDTH 1024 0
DWIDTH 16 0
BBX 16 16 0 -2
BITMAP
1020
1020
1020
5020
59ff
5421
d421
9021
1021
1061
1041
1041
10c3
1082
1182
130e
ENDCHAR
STARTCHAR 02-12-29
ENCODING 11325
SWIDTH 1024 0
DWIDTH 16 0
BBX 16 16 0 -2
BITMAP
1000
11fe
1002
5002
5802
5402
d5fe
9100
1100
1100
1100
1100
1101
1183
10fe
1000
ENDCHAR
STARTCHAR 02-12-30
ENCODING 11326
SWIDTH 1024 0
DWIDTH 16 0
BBX 16 16 0 -2
BITMAP
0024
0026
0022
0020
ffff
0020
1820
0c20
0430
1190
50d0
5058
5108
db0d
8e07
0002
ENDCHAR
STARTCHAR 02-12-31
ENCODING 11327
SWIDTH 1024 0
DWIDTH 16 0
BBX 16 16 0 -2
BITMAP
1000
11fe
1020
5020
5820
5420
d420
93ff
1020
1020
1020
1020
1020
1020
1020
1020
ENDCHAR
STARTCHAR 02-12-32
ENCODING 11328
SWIDTH 1024 0
DWIDTH 16 0
BBX 16 16 0 -2
BITMAP
1080
1080
1080
51ff
5900
5500
d6fe
9018
1030
1060
10c0
1080
1180
1101
1183
10fe
ENDCHAR
STARTCHAR 02-12-33
ENCODING 11329
SWIDTH 1024 0
DWIDTH 16 0
BBX 16 16 0 -2
BITMAP
0000
3ffc
0100
0100
1ff0
0210
0610
0410
7ffe
0000
0180
24c6
2443
6409
4618
c3f0
ENDCHAR
STARTCHAR 02-12-34
ENCODING 11330
SWIDTH 1024 0
DWIDTH 16 0
BBX 16 16 0 -2
BITMAP
1010
1010
1010
53ff
5810
5410
d5fe
9082
10c6
106c
1038
1010
1038
106c
10c6
1183
ENDCHAR
STARTCHAR 02-12-35
ENCODING 11331
SWIDTH 1024 0
DWIDTH 16 0
BBX 16 16 0 -2
BITMAP
1006
101c
11f0
5110
5910
5510
d510
91ff
1110
1118
1108
1108
110c
1105
11e7
1702
ENDCHAR
STARTCHAR 02-12-36
ENCODING 11332
SWIDTH 1024 0
DWIDTH 16 0
BBX 16 16 0 -2
BITMAP
1020
1026
103c
51e0
5820
5524
d524
9124
1124
1124
11fc
1020
1020
1021
1033
101e
ENDCHAR
STARTCHAR 02-12-37
ENCODING 11333
SWIDTH 1024 0
DWIDTH 16 0
BBX 16 16 0 -2
BITMAP
1020
1020
1020
53ff
5800
5400
d4f8
9088
1088
1088
1088
1088
1188
1109
1309
1607
ENDCHAR
STARTCHAR 02-12-38
ENCODING 11334
SWIDTH 1024 0
DWIDTH 16 0
BBX 16 16 0 -2
BITMAP
0100
0100
7ffe
0100
3ffc
0240
ffff
0810
310c
e107
0100
110c
1166
3132
6110
0700
ENDCHAR
STARTCHAR 02-12-39
ENCODING 11335
SWIDTH 1024 0
DWIDTH 16 0
BBX 16 16 0 -2
BITMAP
1020
1020
1020
5020
583f
5420
d420
9020
1020
11fe
1102
1102
1102
1102
1102
11fe
ENDCHAR
STARTCHAR 02-12-40
ENCODING 11336
SWIDTH 1024 0
DWIDTH 16 0
BBX 16 16 0 -2
BITMAP
1020
1120
1120
51fe
5b20
5620
d420
93ff
1020
1070
1050
1058
10c8
108c
1186
1303
ENDCHAR
STARTCHAR 02-12-41
ENCODING 11337
SWIDTH 1024 0
DWIDTH 16 0
BBX 16 16 0 -2
BITMAP
0808
1808
17ff
3008
6308
a188
2088
2008
2008
2038
0180
04c6
2443
2409
6618
c3f0
ENDCHAR
STARTCHAR 02-12-42
ENCODING 11338
SWIDTH 1024 0
DWIDTH 16 0
BBX 16 16 0 -2
BITMAP
1080
109e
1180
5100
5b00
5680
d4bf
9184
1104
1304
1104
1104
1104
1104
1104
111c
ENDCHAR
STARTCHAR 02-12-43
ENCODING 11339
SWIDTH 1024 0
DWIDTH 16 0
BBX 16 16 0 -2
BITMAP
1048
1048
1249
534b
594e
5448
d448
9048
104e
11cb
1349
1048
10c8
1089
1189
1307
ENDCHAR
STARTCHAR 02-12-44
ENCODING 11340
SWIDTH 1024 0
DWIDTH 16 0
BBX 16 16 0 -2
BITMAP
0000
3ff8
0060
0480
3ffc
2104
3ffc
2104
3ffc
2104
410c
00c2
2443
2409
6618
c3f0
ENDCHAR
STARTCHAR 02-12-45
ENCODING 11341
SWIDTH 1024 0
DWIDTH 16 0
BBX 16 16 0 -2
BITMAP
100c
10f8
fc80
10ff
1088
1c88
f088
1188
1308
3008
0180
24c6
2443
6409
4618
c3f0
ENDCHAR
STARTCHAR 02-12-46
ENCODING 11342
SWIDTH 1024 0
DWIDTH 16 0
BBX 16 16 0 -2
BITMAP
10c4
106c
1038
50ec
5b86
5440
d5ff
9080
1120
13fe
1522
1122
1122
1122
1126
1020
ENDCHAR
STARTCHAR 02-12-47
ENCODING 11343
SWIDTH 1024 0
DWIDTH 16 0
BBX 16 16 0 -2
BITMAP
1200
1200
33fe
2442
6044
2040
2248
264c
2446
20c0
0000
25c6
2463
6409
4618
c3f0
ENDCHAR
STARTCHAR 02-12-48
ENCODING 11344
SWIDTH 1024 0
DWIDTH 16 0
BBX 16 16 0 -2
BITMAP
0100
0100
ffff
0100
3ffc
2444
2444
3ffc
0000
7ffe
0080
04c2
2443
2409
6618
c3f0
ENDCHAR
STARTCHAR 02-12-49
ENCODING 11345
SWIDTH 1024 0
DWIDTH 16 0
BBX 16 16 0 -2
BITMAP
1020
1020
13ff
5201
5a01
54fc
d400
9000
13ff
1020
1124
1124
1124
1326
1223
1060
ENDCHAR
STARTCHAR 02-12-50
ENCODING 11346
SWIDTH 1024 0
DWIDTH 16 0
BBX 16 16 0 -2
BITMAP
1048
1048
1048
53cf
5848
5448
d448
91cf
1048
1048
11c8
134f
1048
10c8
1088
1188
ENDCHAR
STARTCHAR 02-12-51
ENCODING 11347
SWIDTH 1024 0
DWIDTH 16 0
BBX 16 16 0 -2
BITMAP
1010
1010
11ff
5149
5949
54c8
d58f
9000
1000
10fe
1010
1010
1010
1010
11ff
1000
ENDCHAR
STARTCHAR 02-12-52
ENCODING 11348
SWIDTH 1024 0
DWIDTH 16 0
BBX 16 16 0 -2
BITMAP
1000
11fe
1122
5122
59fe
5522
d522
91fe
1020
13ff
10a8
10ac
11a4
1126
1323
1020
ENDCHAR
STARTCHAR 02-12-53
ENCODING 11349
SWIDTH 1024 0
DWIDTH 16 0
BBX 16 16 0 -2
BITMAP
2000
23de
2042
a35a
b084
a94a
aa11
a000
23de
2042
2242
2194
2094
2148
2254
2423
ENDCHAR
STARTCHAR 02-12-54
ENCODING 11350
SWIDTH 1024 0
DWIDTH 16 0
BBX 16 16 0 -2
BITMAP
100e
11f8
1110
5110
59ff
5508
d508
91c5
1303
11fe
1102
1102
11fe
1102
1102
11fe
ENDCHAR
STARTCHAR 02-12-55
ENCODING 11351
SWIDTH 1024 0
DWIDTH 16 0
BBX 16 16 0 -2
BITMAP
1221
1333
1112
51fe
5922
5522
d5fe
9122
1122
11fe
1020
1020
13ff
1020
1020
1020
ENDCHAR
STARTCHAR 02-12-56
ENCODING 11352
SWIDTH 1024 0
DWIDTH 16 0
BBX 16 16 0 -2
BITMAP
1000
13ff
1201
5221
59fe
5420
d5fe
9122
11fe
1122
1122
11fe
1020
13ff
1020
1020
ENDCHAR
STARTCHAR 02-12-57
ENCODING 11353
SWIDTH 1024 0
DWIDTH 16 0
BBX 16 16 0 -2
BITMAP
1124
1124
13ff
5124
5924
553c
d500
91fe
1020
13ff
10a8
10a8
11ac
1126
1323
1020
ENDCHAR
STARTCHAR 02-12-58
ENCODING 11354
SWIDTH 1024 0
DWIDTH 16 0
BBX 16 16 0 -2
BITMAP
1000
11ff
1010
5020
59ff
5529
d529
9139
1129
1129
1139
1129
1129
1129
11ff
1000
ENDCHAR
STARTCHAR 02-12-59
ENCODING 11355
SWIDTH 1024 0
DWIDTH 16 0
BBX 16 16 0 -2
BITMAP
11fc
1104
1104
51fc
5904
5504
d5fc
9080
11ff
1321
1621
1271
12d1
128b
13f2
100e
ENDCHAR
STARTCHAR 02-12-60
ENCODING 11356
SWIDTH 1024 0
DWIDTH 16 0
BBX 16 16 0 -2
BITMAP
11fc
1104
11fc
5104
5904
55fc
d400
93ff
1100
11ff
1249
14d9
1191
1333
1062
100e
ENDCHAR
STARTCHAR 02-12-61
ENCODING 11357
SWIDTH 1024 0
DWIDTH 16 0
BBX 16 16 0 -2
BITMAP
0100
3ffc
2204
27e4
0c40
3380
0670
781e
0ff0
0810
0ff0
2480
24c6
644b
4619
c3f0
ENDCHAR
STARTCHAR 02-12-62
ENCODING 11358
SWIDTH 1024 0
DWIDTH 16 0
BBX 16 16 0 -2
BITMAP
1000
13ff
1040
53ff
5249
5a49
d649
924b
1020
1020
13ff
1048
1048
10cc
1186
1303
ENDCHAR
STARTCHAR 02-12-63
ENCODING 11359
SWIDTH 1024 0
DWIDTH 16 0
BBX 16 16 0 -2
BITMAP
1088
1088
13ff
5088
5800
55fc
d504
91fc
1104
11fc
1020
1020
13ff
1020
1020
1020
ENDCHAR
STARTCHAR 02-12-64
ENCODING 11360
SWIDTH 1024 0
DWIDTH 16 0
BBX 16 16 0 -2
BITMAP
001c
1ff0
3118
620c
5ff4
0080
7ffe
0004
ffff
0004
3ffc
0080
24c6
244b
6619
c3f0
ENDCHAR
STARTCHAR 02-12-65
ENCODING 11361
SWIDTH 1024 0
DWIDTH 16 0
BBX 16 16 0 -2
BITMAP
3ffc
2004
2ff4
2384
2ecc
2174
2ee4
2154
2e4c
2184
3ffc
0086
24c3
6449
4618
c3f0
ENDCHAR
STARTCHAR 02-12-66
ENCODING 11362
SWIDTH 1024 0
DWIDTH 16 0
BBX 16 16 0 -2
BITMAP
1006
103c
11e4
5126
5932
5513
d601
90e0
138f
1201
1201
13cf
1201
1201
1201
13ff
ENDCHAR
STARTCHAR 02-12-67
ENCODING 11363
SWIDTH 1024 0
DWIDTH 16 0
BBX 16 16 0 -2
BITMAP
2110
2110
27d0
a11f
b132
aff2
a912
a11a
27ca
210a
21ce
2144
214e
224a
225b
24d1
ENDCHAR
STARTCHAR 02-12-68
ENCODING 11364
SWIDTH 1024 0
DWIDTH 16 0
BBX 16 16 0 -2
BITMAP
0028
3ffe
2220
23a0
2224
3fb4
2214
2a98
32aa
262e
4024
0180
24c6
644b
4619
c3f0
ENDCHAR
STARTCHAR 02-12-69
ENCODING 11365
SWIDTH 1024 0
DWIDTH 16 0
BBX 16 16 0 -2
BITMAP
0088
67ff
3088
07ff
c020
63fe
0222
12aa
32aa
62fa
c206
0080
24c6
244b
6619
c3f0
ENDCHAR
STARTCHAR 02-12-70
ENCODING 11366
SWIDTH 1024 0
DWIDTH 16 0
BBX 16 16 0 -2
BITMAP
1010
10fe
1092
50fe
5810
55ff
d400
90fe
1082
10fe
1082
10fe
1082
10fe
1044
1183
ENDCHAR
STARTCHAR 02-12-71
ENCODING 11367
SWIDTH 1024 0
DWIDTH 16 0
BBX 16 16 0 -2
BITMAP
1020
17ff
1020
53fe
5a22
57fe
d222
93fe
1022
13ff
1041
1166
1523
1505
158c
14f8
ENDCHAR
STARTCHAR 02-12-72
ENCODING 11368
SWIDTH 1024 0
DWIDTH 16 0
BBX 16 16 0 -2
BITMAP
0820
0820
ff7f
0844
2aac
2a38
5d10
9cb8
2a6e
c943
0800
0586
24c3
6409
4618
c3f0
ENDCHAR
STARTCHAR 02-12-73
ENCODING 11369
SWIDTH 1024 0
DWIDTH 16 0
BBX 16 16 0 -2
BITMAP
1020
13ff
1020
51fe
5800
55fe
d502
91fe
1084
1048
13ff
1000
11fe
1102
1102
11fe
ENDCHAR
STARTCHAR 02-12-74
ENCODING 11370
SWIDTH 1024 0
DWIDTH 16 0
BBX 16 16 0 -2
BITMAP
2a54
2a54
1428
2244
7ffe
4102
5ffa
0208
0608
0c18
3870
0180
24c6
644b
4619
c3f0
ENDCHAR
STARTCHAR 02-12-75
ENCODING 11371
SWIDTH 1024 0
DWIDTH 16 0
BBX 16 16 0 -2
BITMAP
1e20
0420
7f7e
1244
1eec
1238
1e10
1238
7e6c
0246
0180
24c6
2443
6409
4618
c3f0
ENDCHAR
STARTCHAR 02-12-76
ENCODING 11372
SWIDTH 1024 0
DWIDTH 16 0
BBX 16 16 0 -2
BITMAP
1040
1040
17ff
5088
5a8a
5504
d3fe
9505
11fc
1104
11fc
1020
1124
1326
1623
1060
ENDCHAR
STARTCHAR 02-12-77
ENCODING 11373
SWIDTH 1024 0
DWIDTH 16 0
BBX 16 16 0 -2
BITMAP
1020
13fe
fc20
11fc
1048
3bff
3484
51fe
5285
90fc
1084
10fc
2486
244b
6619
c3f0
ENDCHAR
STARTCHAR 02-12-78
ENCODING 11374
SWIDTH 1024 0
DWIDTH 16 0
BBX 16 16 0 -2
BITMAP
7ffe
5110
5f14
4012
5ffe
5110
5f38
5128
df2c
9164
9346
0080
24c6
244b
6619
c3f0
ENDCHAR
STARTCHAR 02-12-79
ENCODING 11375
SWIDTH 1024 0
DWIDTH 16 0
BBX 16 16 0 -2
BITMAP
2400
24be
2702
2424
a498
b388
ad7f
a789
a50a
2928
27ae
2128
22a8
2278
242c
2447
ENDCHAR
STARTCHAR 02-12-80
ENCODING 11376
SWIDTH 1024 0
DWIDTH 16 0
BBX 16 16 0 -2
BITMAP
5484
5584
3504
7ffe
2104
1224
7fb4
0814
7f84
0804
7f9c
0080
24c6
244b
6619
c3f0
ENDCHAR
STARTCHAR 02-12-81
ENCODING 11377
SWIDTH 1024 0
DWIDTH 16 0
BBX 16 16 0 -2
BITMAP
1048
13ff
1048
51fe
5952
55fe
d400
93ff
1201
12fd
1084
10fc
1084
10fc
1084
10fc
ENDCHAR
STARTCHAR 02-12-82
ENCODING 11378
SWIDTH 1024 0
DWIDTH 16 0
BBX 16 16 0 -2
BITMAP
0820
0824
7f26
0822
0820
ffff
0020
0022
0032
0016
0014
001c
0008
001d
0077
03c2
ENDCHAR
STARTCHAR 02-12-83
ENCODING 11379
SWIDTH 1024 0
DWIDTH 16 0
BBX 16 16 0 -2
BITMAP
082c
4826
4822
4820
483f
7be0
0822
0822
f826
482c
4838
4810
4838
486d
88c7
0b82
ENDCHAR
STARTCHAR 02-12-84
ENCODING 11380
SWIDTH 1024 0
DWIDTH 16 0
BBX 16 16 0 -2
BITMAP
0094
7d16
9452
7690
221f
6370
c190
3e12
0812
0816
7f1c
1008
1c1d
3635
6267
c1c2
ENDCHAR
STARTCHAR 02-12-85
ENCODING 11381
SWIDTH 1024 0
DWIDTH 16 0
BBX 16 16 0 -2
BITMAP
0014
ff96
4212
421f
8470
a510
d692
0012
ff96
0014
7f1c
4108
7f1d
4115
4137
7f62
ENDCHAR
STARTCHAR 02-12-86
ENCODING 11382
SWIDTH 1024 0
DWIDTH 16 0
BBX 16 16 0 -2
BITMAP
000c
0078
3fc0
2000
3ffe
2002
3ffe
2080
2080
3fff
6140
4766
5c2c
c430
079c
1c07
ENDCHAR
STARTCHAR 02-12-87
ENCODING 11383
SWIDTH 1024 0
DWIDTH 16 0
BBX 16 16 0 -2
BITMAP
0100
0100
0100
0100
1ff0
0100
0100
0100
01f0
1f00
0100
0100
0100
0100
0100
0700
ENDCHAR
STARTCHAR 02-12-88
ENCODING 11384
SWIDTH 1024 0
DWIDTH 16 0
BBX 16 16 0 -2
BITMAP
1020
1020
1020
1020
fe20
1030
1038
102c
1e26
f023
1020
1020
1020
1020
1020
7020
ENDCHAR
STARTCHAR 02-12-89
ENCODING 11385
SWIDTH 1024 0
DWIDTH 16 0
BBX 16 16 0 -2
BITMAP
2000
20f8
2008
2008
f888
2088
2088
2088
3888
e088
218c
2104
2104
2306
2202
e603
ENDCHAR
STARTCHAR 02-12-90
ENCODING 11386
SWIDTH 1024 0
DWIDTH 16 0
BBX 16 16 0 -2
BITMAP
2020
2020
2220
222e
fa3a
22e2
23a2
2622
3a22
e226
2220
2220
2200
2201
2303
e1fe
ENDCHAR
STARTCHAR 02-12-91
ENCODING 11387
SWIDTH 1024 0
DWIDTH 16 0
BBX 16 16 0 -2
BITMAP
1000
17ff
1090
1090
fc90
1090
1090
1090
1c90
f090
1090
1190
1110
1111
1319
760f
ENDCHAR
STARTCHAR 02-12-92
ENCODING 11388
SWIDTH 1024 0
DWIDTH 16 0
BBX 16 16 0 -2
BITMAP
2100
2100
2100
21ff
fb01
2223
2622
2020
3820
e070
2050
2050
20d8
2088
218c
e307
ENDCHAR
STARTCHAR 02-12-93
ENCODING 11389
SWIDTH 1024 0
DWIDTH 16 0
BBX 16 16 0 -2
BITMAP
1000
13fc
1044
1044
fc44
1044
1044
13ff
1c44
f044
1044
1044
1044
1044
13ff
7000
ENDCHAR
STARTCHAR 02-12-94
ENCODING 11390
SWIDTH 1024 0
DWIDTH 16 0
BBX 16 16 0 -2
BITMAP
1000
11ff
1100
1100
fd00
11fe
1142
1146
1d64
f12c
1138
1110
1338
122c
1666
70c3
ENDCHAR
STARTCHAR 02-13-01
ENCODING 11553
SWIDTH 1024 0
DWIDTH 16 0
BBX 16 16 0 -2
BITMAP
100c
1038
11e0
1020
fc20
11fe
1020
1020
1c20
f3ff
1020
1020
1020
1020
1020
70e0
ENDCHAR
STARTCHAR 02-13-02
ENCODING 11554
SWIDTH 1024 0
DWIDTH 16 0
BBX 16 16 0 -2
BITMAP
2000
27ff
2020
2020
fbfe
2222
2222
2272
3a52
e2da
228a
2202
2202
2202
2202
620e
ENDCHAR
STARTCHAR 02-13-03
ENCODING 11555
SWIDTH 1024 0
DWIDTH 16 0
BBX 16 16 0 -2
BITMAP
1010
1010
1010
11ff
fd01
1101
1040
1046
1c5c
f070
1040
1040
1040
1041
1063
703e
ENDCHAR
STARTCHAR 02-13-04
ENCODING 11556
SWIDTH 1024 0
DWIDTH 16 0
BBX 16 16 0 -2
BITMAP
1000
1f7e
3142
2342
724e
d641
0c63
383e
efe0
0100
3ffc
0100
ffff
0100
0100
0700
ENDCHAR
STARTCHAR 02-13-05
ENCODING 11557
SWIDTH 1024 0
DWIDTH 16 0
BBX 16 16 0 -2
BITMAP
2020
2020
23fe
2222
fa22
23fe
2222
2222
3bfe
e020
2022
2036
201c
2071
21dd
6707
ENDCHAR
STARTCHAR 02-13-06
ENCODING 11558
SWIDTH 1024 0
DWIDTH 16 0
BBX 16 16 0 -2
BITMAP
2000
23fe
2080
2084
f984
213e
23e2
2000
3820
e020
23fe
2020
2020
2020
27ff
6000
ENDCHAR
STARTCHAR 02-13-07
ENCODING 11559
SWIDTH 1024 0
DWIDTH 16 0
BBX 16 16 0 -2
BITMAP
1010
1010
1010
11ff
fc44
10c6
1183
1044
1c44
f0ec
10b8
1010
1038
106c
10c6
7183
ENDCHAR
STARTCHAR 02-13-08
ENCODING 11560
SWIDTH 1024 0
DWIDTH 16 0
BBX 16 16 0 -2
BITMAP
0800
087e
ff42
1142
2242
7e42
0b7e
3000
c0e0
0f80
0100
3ffc
0100
ffff
0100
0700
ENDCHAR
STARTCHAR 02-13-09
ENCODING 11561
SWIDTH 1024 0
DWIDTH 16 0
BBX 16 16 0 -2
BITMAP
2020
2020
23fe
2020
f9fc
2020
23fe
2040
3844
e7ff
2084
21a4
2134
2314
2604
601c
ENDCHAR
STARTCHAR 02-13-10
ENCODING 11562
SWIDTH 1024 0
DWIDTH 16 0
BBX 16 16 0 -2
BITMAP
2241
2363
2126
2004
fbff
2201
2241
2040
3bfe
e042
20c2
2082
2082
2186
2304
661c
ENDCHAR
STARTCHAR 02-13-11
ENCODING 11563
SWIDTH 1024 0
DWIDTH 16 0
BBX 16 16 0 -2
BITMAP
0020
3020
1924
c326
6623
00e4
181c
71f0
c000
07e0
0100
3ffe
0100
ffff
0100
0700
ENDCHAR
STARTCHAR 02-13-12
ENCODING 11564
SWIDTH 1024 0
DWIDTH 16 0
BBX 16 16 0 -2
BITMAP
2000
23fe
2020
21fc
f820
2020
27ff
2000
3888
e088
27ff
2088
2188
2108
2308
6608
ENDCHAR
STARTCHAR 02-13-13
ENCODING 11565
SWIDTH 1024 0
DWIDTH 16 0
BBX 16 16 0 -2
BITMAP
2002
270e
2278
2208
fc08
2448
274e
2148
3d48
e548
2748
2a48
227f
2700
25c0
6c7f
ENDCHAR
STARTCHAR 02-13-14
ENCODING 11566
SWIDTH 1024 0
DWIDTH 16 0
BBX 16 16 0 -2
BITMAP
1006
101c
11f4
1126
fd32
1313
1221
1020
1dff
f044
10c4
108c
11e8
103c
1066
71c3
ENDCHAR
STARTCHAR 02-13-15
ENCODING 11567
SWIDTH 1024 0
DWIDTH 16 0
BBX 16 16 0 -2
BITMAP
2020
2120
2120
23fe
fa20
2420
2020
27ff
3820
e000
21fc
2104
2104
2104
2104
61fc
ENDCHAR
STARTCHAR 02-13-16
ENCODING 11568
SWIDTH 1024 0
DWIDTH 16 0
BBX 16 16 0 -2
BITMAP
2024
2026
2022
27ff
f820
2222
2326
212c
3820
e030
20b8
21ac
2326
2623
2020
60e0
ENDCHAR
STARTCHAR 02-13-17
ENCODING 11569
SWIDTH 1024 0
DWIDTH 16 0
BBX 16 16 0 -2
BITMAP
2020
2124
2326
2222
f820
23fe
2202
2202
3bfe
e202
2202
23fe
2202
2202
2202
620e
ENDCHAR
STARTCHAR 02-13-18
ENCODING 11570
SWIDTH 1024 0
DWIDTH 16 0
BBX 16 16 0 -2
BITMAP
200c
2038
23e0
2020
fbff
20a8
21ac
2326
3a03
e1f8
2048
204e
20c2
2082
2186
631c
ENDCHAR
STARTCHAR 02-13-19
ENCODING 11571
SWIDTH 1024 0
DWIDTH 16 0
BBX 16 16 0 -2
BITMAP
2040
2040
27fe
2040
fbfc
2244
2244
23fc
3a44
e244
23fc
2040
2fff
2040
2040
6040
ENDCHAR
STARTCHAR 02-13-20
ENCODING 11572
SWIDTH 1024 0
DWIDTH 16 0
BBX 16 16 0 -2
BITMAP
2088
2088
27ff
2088
f8ac
2022
23ff
2220
3a22
e232
2216
2214
221c
2639
24ed
6c07
ENDCHAR
STARTCHAR 02-13-21
ENCODING 11573
SWIDTH 1024 0
DWIDTH 16 0
BBX 16 16 0 -2
BITMAP
2020
2070
20d8
218c
fb07
21fc
2020
23fe
3a22
e222
2222
23fe
2050
20d8
218c
6707
ENDCHAR
STARTCHAR 02-13-22
ENCODING 11574
SWIDTH 1024 0
DWIDTH 16 0
BBX 16 16 0 -2
BITMAP
2020
2020
23ff
2200
fa44
2244
22ff
2284
3ba4
e2b4
2294
2284
2284
2284
2484
609c
ENDCHAR
STARTCHAR 02-13-23
ENCODING 11575
SWIDTH 1024 0
DWIDTH 16 0
BBX 16 16 0 -2
BITMAP
2020
2070
20d8
218c
fb07
20f8
2000
23fe
3a92
e292
23fe
2292
2292
2292
2292
6296
ENDCHAR
STARTCHAR 02-13-24
ENCODING 11576
SWIDTH 1024 0
DWIDTH 16 0
BBX 16 16 0 -2
BITMAP
2006
203c
21e4
2326
fa12
23fe
2022
2022
37ff
e022
2022
23fe
2020
2020
2020
60e0
ENDCHAR
STARTCHAR 02-13-25
ENCODING 11577
SWIDTH 1024 0
DWIDTH 16 0
BBX 16 16 0 -2
BITMAP
2020
2020
23fe
2104
f90c
2188
2088
27ff
3802
e1f2
2112
2112
2112
21f2
2002
600e
ENDCHAR
STARTCHAR 02-13-26
ENCODING 11578
SWIDTH 1024 0
DWIDTH 16 0
BBX 16 16 0 -2
BITMAP
0000
7f7e
4822
7e24
4214
7e18
486c
7f07
00e0
0f80
0100
3ffc
0100
ffff
0100
0700
ENDCHAR
STARTCHAR 02-13-27
ENCODING 11579
SWIDTH 1024 0
DWIDTH 16 0
BBX 16 16 0 -2
BITMAP
2084
20cc
2048
2000
fbff
2048
2048
2249
3a49
e249
2249
23cf
2048
2048
2048
63ff
ENDCHAR
STARTCHAR 02-13-28
ENCODING 11580
SWIDTH 1024 0
DWIDTH 16 0
BBX 16 16 0 -2
BITMAP
2006
203c
23e0
f820
27ff
2020
21ae
2322
3a22
e3ae
2222
2222
23fe
2020
2020
6020
ENDCHAR
STARTCHAR 02-13-29
ENCODING 11581
SWIDTH 1024 0
DWIDTH 16 0
BBX 16 16 0 -2
BITMAP
2100
2100
23fe
fa52
2592
20e2
2132
2256
3884
e01c
2060
2130
2506
250b
2d19
68f0
ENDCHAR
STARTCHAR 02-13-30
ENCODING 11582
SWIDTH 1024 0
DWIDTH 16 0
BBX 16 16 0 -2
BITMAP
2084
2084
23ff
2084
f8fc
2084
20fc
2084
3884
e7ff
2248
2248
228f
2300
2200
63ff
ENDCHAR
STARTCHAR 02-13-31
ENCODING 11583
SWIDTH 1024 0
DWIDTH 16 0
BBX 16 16 0 -2
BITMAP
2020
2070
20d8
218c
fb06
26fb
2000
21fc
3904
e1fc
2000
2088
27ff
2088
2188
6308
ENDCHAR
STARTCHAR 02-13-32
ENCODING 11584
SWIDTH 1024 0
DWIDTH 16 0
BBX 16 16 0 -2
BITMAP
2000
27ff
2400
24fc
fc84
24fc
2484
24fc
3c20
e5fe
2448
24d8
2430
25ce
2400
67ff
ENDCHAR
STARTCHAR 02-13-33
ENCODING 11585
SWIDTH 1024 0
DWIDTH 16 0
BBX 16 16 0 -2
BITMAP
1c10
f091
1093
fd92
1138
3828
346c
51c6
9003
0fe0
0100
3ffc
0100
ffff
0100
0700
ENDCHAR
STARTCHAR 02-13-34
ENCODING 11586
SWIDTH 1024 0
DWIDTH 16 0
BBX 16 16 0 -2
BITMAP
2020
2020
23ff
2249
fa49
20c8
218f
2300
3828
e024
27ff
2050
20d8
218c
2306
6e03
ENDCHAR
STARTCHAR 02-13-35
ENCODING 11587
SWIDTH 1024 0
DWIDTH 16 0
BBX 16 16 0 -2
BITMAP
2124
2124
27ff
2124
f924
213c
2100
21fe
3820
e7ff
20a8
20a8
21ac
2326
2623
6020
ENDCHAR
STARTCHAR 02-13-36
ENCODING 11588
SWIDTH 1024 0
DWIDTH 16 0
BBX 16 16 0 -2
BITMAP
2020
2020
23ff
2241
fac5
2088
21fe
2310
3510
e1fe
2110
2110
21fe
2110
2110
61ff
ENDCHAR
STARTCHAR 02-13-37
ENCODING 11589
SWIDTH 1024 0
DWIDTH 16 0
BBX 16 16 0 -2
BITMAP
2020
2020
27ff
2000
f9fc
2104
21fc
2800
37ff
6401
a4f9
2489
2489
24f9
2401
6407
ENDCHAR
STARTCHAR 02-13-38
ENCODING 11590
SWIDTH 1024 0
DWIDTH 16 0
BBX 16 16 0 -2
BITMAP
2608
2310
217e
2642
fb42
2142
207e
2740
3940
e17e
2142
2142
2142
237e
2680
6c7f
ENDCHAR
STARTCHAR 02-13-39
ENCODING 11591
SWIDTH 1024 0
DWIDTH 16 0
BBX 16 16 0 -2
BITMAP
2204
23c4
225f
2754
f5d4
2094
21bf
2304
3604
e020
27ff
20a8
21ac
2326
2623
6020
ENDCHAR
STARTCHAR 02-13-40
ENCODING 11592
SWIDTH 1024 0
DWIDTH 16 0
BBX 16 16 0 -2
BITMAP
2006
203c
23e4
2246
fa62
2623
2401
20c0
3b9e
e202
2202
23de
2202
2202
2202
63fe
ENDCHAR
STARTCHAR 02-13-41
ENCODING 11593
SWIDTH 1024 0
DWIDTH 16 0
BBX 16 16 0 -2
BITMAP
2222
2326
2124
23fe
fa02
22fa
2088
2088
38f8
e020
2020
21fc
2020
2020
27ff
6000
ENDCHAR
STARTCHAR 02-13-42
ENCODING 11594
SWIDTH 1024 0
DWIDTH 16 0
BBX 16 16 0 -2
BITMAP
1020
1020
13ff
1000
fd4a
1132
114a
1102
1dfe
f020
13ff
1241
1249
12f5
1201
7203
ENDCHAR
STARTCHAR 02-13-43
ENCODING 11595
SWIDTH 1024 0
DWIDTH 16 0
BBX 16 16 0 -2
BITMAP
2020
2020
27ff
2490
fc90
27fe
2492
2492
37fe
e400
2510
25d6
251c
2510
29d1
630f
ENDCHAR
STARTCHAR 02-13-44
ENCODING 11596
SWIDTH 1024 0
DWIDTH 16 0
BBX 16 16 0 -2
BITMAP
2000
23ff
2200
227c
fa44
2244
227c
2200
3aee
e2aa
22aa
22aa
22ee
2200
23ff
6000
ENDCHAR
STARTCHAR 02-13-45
ENCODING 11597
SWIDTH 1024 0
DWIDTH 16 0
BBX 16 16 0 -2
BITMAP
2000
23ff
2048
23ff
fa49
2249
23ff
2000
39fe
e000
23ff
2020
2124
2326
2623
60e0
ENDCHAR
STARTCHAR 02-13-46
ENCODING 11598
SWIDTH 1024 0
DWIDTH 16 0
BBX 16 16 0 -2
BITMAP
2108
2548
2d6f
293a
f112
2fea
292a
292a
392a
ebae
2d64
2924
292e
292a
292a
687b
ENDCHAR
STARTCHAR 02-13-47
ENCODING 11599
SWIDTH 1024 0
DWIDTH 16 0
BBX 16 16 0 -2
BITMAP
2222
2326
2124
27ff
fc01
25fd
2104
21fc
3800
e1fc
2020
23fe
2020
27ff
2020
60e0
ENDCHAR
STARTCHAR 02-13-48
ENCODING 11600
SWIDTH 1024 0
DWIDTH 16 0
BBX 16 16 0 -2
BITMAP
2018
23f4
2246
2422
fbfc
2204
2204
23fe
3a02
e202
23ff
2601
2415
2d55
2343
620e
ENDCHAR
STARTCHAR 02-13-49
ENCODING 11601
SWIDTH 1024 0
DWIDTH 16 0
BBX 16 16 0 -2
BITMAP
201c
23f0
2040
27ff
f888
21fc
268b
20f8
3800
e3fe
2202
22fa
228a
22fa
2202
6206
ENDCHAR
STARTCHAR 02-13-50
ENCODING 11602
SWIDTH 1024 0
DWIDTH 16 0
BBX 16 16 0 -2
BITMAP
2222
2326
2124
27ff
fc01
25fd
2104
21fc
3800
e3fe
2222
2222
23fe
2222
2222
63fe
ENDCHAR
STARTCHAR 02-13-51
ENCODING 11603
SWIDTH 1024 0
DWIDTH 16 0
BBX 16 16 0 -2
BITMAP
2210
2210
27df
2524
f882
2020
27ff
2020
3924
e124
22aa
2272
2050
20d8
218c
6707
ENDCHAR
STARTCHAR 02-13-52
ENCODING 11604
SWIDTH 1024 0
DWIDTH 16 0
BBX 16 16 0 -2
BITMAP
2110
2120
23ff
fa20
27fe
2a20
23fe
3a20
e3ff
2000
279e
2492
2492
24f2
2402
640e
ENDCHAR
STARTCHAR 02-13-53
ENCODING 11605
SWIDTH 1024 0
DWIDTH 16 0
BBX 16 16 0 -2
BITMAP
2008
2788
24be
2480
f4a2
24b6
2794
247f
3408
e788
2cbe
2c88
3488
2488
2788
6008
ENDCHAR
STARTCHAR 02-13-54
ENCODING 11606
SWIDTH 1024 0
DWIDTH 16 0
BBX 16 16 0 -2
BITMAP
2000
27df
2104
27df
fd55
2555
26db
2451
3c53
e020
27ff
20a8
21ac
2326
2623
6020
ENDCHAR
STARTCHAR 02-13-55
ENCODING 11607
SWIDTH 1024 0
DWIDTH 16 0
BBX 16 16 0 -2
BITMAP
2020
21fc
2104
21fc
f904
21fc
2104
23fe
3a22
e3fe
2222
23fe
2000
27ff
2104
6204
ENDCHAR
STARTCHAR 02-13-56
ENCODING 11608
SWIDTH 1024 0
DWIDTH 16 0
BBX 16 16 0 -2
BITMAP
0020
7f3f
4840
7f3e
4100
7f7f
4855
7f7f
0000
0ff0
0080
3ffc
0080
ffff
0080
0380
ENDCHAR
STARTCHAR 02-13-57
ENCODING 11609
SWIDTH 1024 0
DWIDTH 16 0
BBX 16 16 0 -2
BITMAP
2010
2410
26ff
2242
f424
26ff
2291
20ff
3691
e2bd
22a5
22bd
2281
2683
2500
6cff
ENDCHAR
STARTCHAR 02-13-58
ENCODING 11610
SWIDTH 1024 0
DWIDTH 16 0
BBX 16 16 0 -2
BITMAP
2020
203c
2020
27ff
fc41
25f8
2442
25fe
3d24
e5fc
2524
25fc
2420
2952
2145
623c
ENDCHAR
STARTCHAR 02-13-59
ENCODING 11611
SWIDTH 1024 0
DWIDTH 16 0
BBX 16 16 0 -2
BITMAP
21a0
2336
2222
2336
fa52
2356
2252
27ff
3904
e2fa
2421
21fc
2020
23fe
2020
60e0
ENDCHAR
STARTCHAR 02-13-60
ENCODING 11612
SWIDTH 1024 0
DWIDTH 16 0
BBX 16 16 0 -2
BITMAP
2108
2108
2fef
2448
f28f
2fe1
200f
27c8
344f
e7c8
244f
27c8
244f
2448
2449
64c7
ENDCHAR
STARTCHAR 02-13-61
ENCODING 11613
SWIDTH 1024 0
DWIDTH 16 0
BBX 16 16 0 -2
BITMAP
27df
2451
27df
2451
f7df
2421
25fd
2421
35fd
e5ad
2575
2525
25fd
24a9
2525
6423
ENDCHAR
STARTCHAR 02-13-62
ENCODING 11614
SWIDTH 1024 0
DWIDTH 16 0
BBX 16 16 0 -2
BITMAP
2000
23de
2252
23de
fa52
23de
2252
23de
3954
e222
2080
27ff
2104
23c8
207c
63c6
ENDCHAR
STARTCHAR 02-13-63
ENCODING 11615
SWIDTH 1024 0
DWIDTH 16 0
BBX 16 16 0 -2
BITMAP
2252
2294
23df
26b4
fbde
2294
23de
2294
3bdf
e000
23fe
210c
20d8
2070
21dc
6707
ENDCHAR
STARTCHAR 02-13-64
ENCODING 11616
SWIDTH 1024 0
DWIDTH 16 0
BBX 16 16 0 -2
BITMAP
2000
27fe
2492
27fe
f800
210a
261f
22b4
3914
e25e
27d4
2154
211e
2554
2554
611f
ENDCHAR
STARTCHAR 02-13-65
ENCODING 11617
SWIDTH 1024 0
DWIDTH 16 0
BBX 16 16 0 -2
BITMAP
0808
0808
ff7f
1408
3608
637e
0022
ffa2
0236
7a14
4a1c
4a08
7a1c
0214
0236
0e63
ENDCHAR
STARTCHAR 02-13-66
ENCODING 11618
SWIDTH 1024 0
DWIDTH 16 0
BBX 16 16 0 -2
BITMAP
0040
fe40
0440
287f
3044
10c4
feac
13a8
1428
3038
3010
5038
5028
906c
10c6
7183
ENDCHAR
STARTCHAR 02-13-67
ENCODING 11619
SWIDTH 1024 0
DWIDTH 16 0
BBX 16 16 0 -2
BITMAP
0020
7e20
1020
103f
7c64
2444
24cc
2428
ff28
0038
7e10
4238
4228
426c
4246
7ec3
ENDCHAR
STARTCHAR 02-13-68
ENCODING 11620
SWIDTH 1024 0
DWIDTH 16 0
BBX 16 16 0 -2
BITMAP
1020
2020
7e20
423f
7e64
4244
7ecc
0828
ff28
1038
1e10
1238
3228
266c
64c6
cd83
ENDCHAR
STARTCHAR 02-13-69
ENCODING 11621
SWIDTH 1024 0
DWIDTH 16 0
BBX 16 16 0 -2
BITMAP
0008
ff88
800f
9e08
9208
927e
9e22
8022
bbb6
aa94
aa9c
aa88
bb9c
8014
ffb6
0063
ENDCHAR
STARTCHAR 02-13-70
ENCODING 11622
SWIDTH 1024 0
DWIDTH 16 0
BBX 16 16 0 -2
BITMAP
0010
7f10
5510
551f
7f32
0822
7f66
0814
ff94
221c
1408
ff88
081c
7f14
0836
0863
ENDCHAR
STARTCHAR 02-13-71
ENCODING 11623
SWIDTH 1024 0
DWIDTH 16 0
BBX 16 16 0 -2
BITMAP
0820
7f7f
0844
ffa8
1c10
2a2c
4943
3fff
2040
2ffe
2248
275c
2952
61f0
475c
dc47
ENDCHAR
STARTCHAR 02-13-72
ENCODING 11624
SWIDTH 1024 0
DWIDTH 16 0
BBX 16 16 0 -2
BITMAP
3004
6ac4
4447
6ac4
4044
6aff
4451
4a51
fffb
802a
bfae
0204
07e4
fc0e
040a
1c1b
ENDCHAR
STARTCHAR 02-13-73
ENCODING 11625
SWIDTH 1024 0
DWIDTH 16 0
BBX 16 16 0 -2
BITMAP
0100
ffff
1810
2660
03c0
0e70
f81f
0000
ffff
0810
0ff0
0810
0ff0
081f
fff0
0010
ENDCHAR
STARTCHAR 02-13-74
ENCODING 11626
SWIDTH 1024 0
DWIDTH 16 0
BBX 16 16 0 -2
BITMAP
3002
e78e
94b8
94a0
f7a0
143f
1424
f7a4
80a4
80a4
f7a4
1424
1424
17a4
3c44
e004
ENDCHAR
STARTCHAR 02-13-75
ENCODING 11627
SWIDTH 1024 0
DWIDTH 16 0
BBX 16 16 0 -2
BITMAP
3002
678e
42b8
52a0
74a0
d1bf
0024
ffa4
2424
e7a4
80a4
80a4
e7a4
2424
2444
ff84
ENDCHAR
STARTCHAR 02-13-76
ENCODING 11628
SWIDTH 1024 0
DWIDTH 16 0
BBX 16 16 0 -2
BITMAP
ff82
808e
ffb8
8820
eba0
883f
ffa4
a4a4
ffa4
9024
bfa4
fea4
aaa4
bea4
8ac4
bd84
ENDCHAR
STARTCHAR 02-13-77
ENCODING 11629
SWIDTH 1024 0
DWIDTH 16 0
BBX 16 16 0 -2
BITMAP
1040
1040
1040
feff
1080
1180
107e
1e02
1204
1208
1208
32ff
2608
2408
6408
dc38
ENDCHAR
STARTCHAR 02-13-78
ENCODING 11630
SWIDTH 1024 0
DWIDTH 16 0
BBX 16 16 0 -2
BITMAP
1040
1040
1040
feff
2080
218e
3c78
2440
2440
247f
2448
2448
24c8
6488
4588
cc08
ENDCHAR
STARTCHAR 02-13-79
ENCODING 11631
SWIDTH 1024 0
DWIDTH 16 0
BBX 16 16 0 -2
BITMAP
0104
ffff
0100
3ffc
2104
3ffc
2104
3ffc
2104
0100
ffff
0200
07f8
0c08
1818
7070
ENDCHAR
STARTCHAR 02-13-80
ENCODING 11632
SWIDTH 1024 0
DWIDTH 16 0
BBX 16 16 0 -2
BITMAP
1008
13be
108a
fd0a
217f
220a
3b8a
28be
2888
2abe
2a88
2d7f
6908
4908
4b80
da7f
ENDCHAR
STARTCHAR 02-13-81
ENCODING 11633
SWIDTH 1024 0
DWIDTH 16 0
BBX 16 16 0 -2
BITMAP
0100
0100
0100
01fc
0100
0100
0100
ffff
0000
1ff8
1008
1008
1ff8
1008
1008
1ff8
ENDCHAR
STARTCHAR 02-13-82
ENCODING 11634
SWIDTH 1024 0
DWIDTH 16 0
BBX 16 16 0 -2
BITMAP
0000
1ff8
1008
1008
1ff8
1008
1008
1ff8
0000
0100
0100
ffff
0240
0660
1c38
f00f
ENDCHAR
STARTCHAR 02-13-83
ENCODING 11635
SWIDTH 1024 0
DWIDTH 16 0
BBX 16 16 0 -2
BITMAP
0100
2104
2104
3ffc
0100
0100
ffff
0000
0000
1ff8
1008
1008
1ff8
1008
1008
1ff8
ENDCHAR
STARTCHAR 02-13-84
ENCODING 11636
SWIDTH 1024 0
DWIDTH 16 0
BBX 16 16 0 -2
BITMAP
0020
0020
f820
8fff
8904
8904
8b8c
fc88
88d8
8870
8820
8870
f8d8
018c
0306
0603
ENDCHAR
STARTCHAR 02-13-85
ENCODING 11637
SWIDTH 1024 0
DWIDTH 16 0
BBX 16 16 0 -2
BITMAP
0000
00ff
7c80
4480
4480
44fe
44a2
7ca2
44b6
4494
449c
4488
7d9c
0114
0336
0063
ENDCHAR
STARTCHAR 02-13-86
ENCODING 11638
SWIDTH 1024 0
DWIDTH 16 0
BBX 16 16 0 -2
BITMAP
0006
001c
f9f0
8900
89ff
8901
8901
f901
89ff
8900
8900
8900
f900
0300
0200
0600
ENDCHAR
STARTCHAR 02-13-87
ENCODING 11639
SWIDTH 1024 0
DWIDTH 16 0
BBX 16 16 0 -2
BITMAP
0020
0020
f820
8bff
8840
88c0
8888
f988
8b18
89f0
8820
8864
f8c6
0082
01ff
0701
ENDCHAR
STARTCHAR 02-13-88
ENCODING 11640
SWIDTH 1024 0
DWIDTH 16 0
BBX 16 16 0 -2
BITMAP
0000
1ff8
1008
1ff8
1008
1ff8
0600
0c10
18f8
7f8e
0420
ffff
0420
0c20
1820
3020
ENDCHAR
STARTCHAR 02-13-89
ENCODING 11641
SWIDTH 1024 0
DWIDTH 16 0
BBX 16 16 0 -2
BITMAP
0000
03fe
f800
8800
89fc
8904
8904
f9fc
8904
8904
8904
89fc
f800
0000
07ff
0000
ENDCHAR
STARTCHAR 02-13-90
ENCODING 11642
SWIDTH 1024 0
DWIDTH 16 0
BBX 16 16 0 -2
BITMAP
0000
1ff8
1008
1ff8
1008
1ff8
0200
0400
7ffe
4002
47e2
4422
4422
4422
47e2
4006
ENDCHAR
STARTCHAR 02-13-91
ENCODING 11643
SWIDTH 1024 0
DWIDTH 16 0
BBX 16 16 0 -2
BITMAP
0088
0088
f888
8888
8bfe
8888
8888
f888
8888
8888
8fff
8800
f888
018c
0306
0603
ENDCHAR
STARTCHAR 02-13-92
ENCODING 11644
SWIDTH 1024 0
DWIDTH 16 0
BBX 16 16 0 -2
BITMAP
0100
0100
7ffe
0100
3ffc
0240
ffff
0420
0810
39fc
e90f
0908
09f8
0908
0908
09f8
ENDCHAR
STARTCHAR 02-13-93
ENCODING 11645
SWIDTH 1024 0
DWIDTH 16 0
BBX 16 16 0 -2
BITMAP
1108
1918
0910
3ffc
0280
0240
ffff
0c30
1818
39fc
e90f
0908
09f8
0908
0908
09f8
ENDCHAR
STARTCHAR 02-13-94
ENCODING 11646
SWIDTH 1024 0
DWIDTH 16 0
BBX 16 16 0 -2
BITMAP
0020
0070
f850
88d8
898c
8f77
8800
f9fc
8808
8810
8820
89fc
f904
0104
0104
01fc
ENDCHAR
STARTCHAR 02-14-01
ENCODING 11809
SWIDTH 1024 0
DWIDTH 16 0
BBX 16 16 0 -2
BITMAP
0000
01fe
f902
8902
89fe
8902
8902
f9fe
8902
8902
89fe
8850
f850
00d1
019b
070e
ENDCHAR
STARTCHAR 02-14-02
ENCODING 11810
SWIDTH 1024 0
DWIDTH 16 0
BBX 16 16 0 -2
BITMAP
0202
020e
f238
9220
9fa0
923f
9224
f224
93a4
9e24
9224
9224
f264
0244
02c4
0604
ENDCHAR
STARTCHAR 02-14-03
ENCODING 11811
SWIDTH 1024 0
DWIDTH 16 0
BBX 16 16 0 -2
BITMAP
0000
1ff8
1008
1ff8
1008
1ff8
0000
7c7e
4442
447e
7c42
447e
4442
4442
7cc2
018e
ENDCHAR
STARTCHAR 02-14-04
ENCODING 11812
SWIDTH 1024 0
DWIDTH 16 0
BBX 16 16 0 -2
BITMAP
2000
3e7e
2242
6642
4442
ff42
497e
4942
4942
7f42
1442
1442
347e
2401
6603
c3fe
ENDCHAR
STARTCHAR 02-14-05
ENCODING 11813
SWIDTH 1024 0
DWIDTH 16 0
BBX 16 16 0 -2
BITMAP
0090
0090
f890
8bfe
8a92
8a92
8a92
fbfe
8a92
8a92
8a92
8fff
f800
0088
018c
0306
ENDCHAR
STARTCHAR 02-14-06
ENCODING 11814
SWIDTH 1024 0
DWIDTH 16 0
BBX 16 16 0 -2
BITMAP
0040
0040
f87e
8840
8bfc
8a04
8a04
fbfc
8a04
8a04
8bfc
8840
ffff
0040
0040
0040
ENDCHAR
STARTCHAR 02-14-07
ENCODING 11815
SWIDTH 1024 0
DWIDTH 16 0
BBX 16 16 0 -2
BITMAP
0020
0020
fbfe
8800
8904
8904
8b8c
fada
8c01
8820
8fff
8820
f820
0020
0020
0020
ENDCHAR
STARTCHAR 02-14-08
ENCODING 11816
SWIDTH 1024 0
DWIDTH 16 0
BBX 16 16 0 -2
BITMAP
0000
03fe
fa02
8a22
8afa
8a22
8afa
fa22
8a02
8afa
8a8a
8a8a
fafa
0202
0602
040e
ENDCHAR
STARTCHAR 02-14-09
ENCODING 11817
SWIDTH 1024 0
DWIDTH 16 0
BBX 16 16 0 -2
BITMAP
0040
0040
fbff
8888
88a8
8924
8bfe
fd25
8924
89fc
8924
8924
f9fc
0021
0033
001e
ENDCHAR
STARTCHAR 02-14-10
ENCODING 11818
SWIDTH 1024 0
DWIDTH 16 0
BBX 16 16 0 -2
BITMAP
0110
0310
f210
94ff
9910
9110
9310
f210
967e
9a10
9210
9210
f210
0210
02ff
0200
ENDCHAR
STARTCHAR 02-14-11
ENCODING 11819
SWIDTH 1024 0
DWIDTH 16 0
BBX 16 16 0 -2
BITMAP
0040
01fc
f884
8884
8bff
8800
89fc
f904
89fc
8808
89fe
8908
f908
07ff
0008
0008
ENDCHAR
STARTCHAR 02-14-12
ENCODING 11820
SWIDTH 1024 0
DWIDTH 16 0
BBX 16 16 0 -2
BITMAP
0000
01fe
f902
89fe
8902
8902
89fe
f820
8920
89fe
8b20
8a20
f8fc
0020
0020
03ff
ENDCHAR
STARTCHAR 02-14-13
ENCODING 11821
SWIDTH 1024 0
DWIDTH 16 0
BBX 16 16 0 -2
BITMAP
0020
0020
fbfe
8820
89fc
8850
8fff
f888
8904
8bfe
8d05
8904
f9fc
0104
0104
01fc
ENDCHAR
STARTCHAR 02-14-14
ENCODING 11822
SWIDTH 1024 0
DWIDTH 16 0
BBX 16 16 0 -2
BITMAP
0000
1ff8
1008
1ff8
1008
1ff8
1020
2244
1428
0810
1224
7d7e
0002
2444
6666
c223
ENDCHAR
STARTCHAR 02-14-15
ENCODING 11823
SWIDTH 1024 0
DWIDTH 16 0
BBX 16 16 0 -2
BITMAP
0020
0040
f9fe
8902
89fe
8902
89fe
f800
89ae
8820
89ae
8820
fbff
0020
0020
0020
ENDCHAR
STARTCHAR 02-14-16
ENCODING 11824
SWIDTH 1024 0
DWIDTH 16 0
BBX 16 16 0 -2
BITMAP
0000
03ff
fa00
8a44
8afe
8a44
8a20
fbff
8a40
8afe
8b42
8a42
fa7e
0200
03ff
0000
ENDCHAR
STARTCHAR 02-14-17
ENCODING 11825
SWIDTH 1024 0
DWIDTH 16 0
BBX 16 16 0 -2
BITMAP
0088
07ff
f888
88f8
8820
8bfe
8a22
fbfe
8820
8bfe
8820
8fff
f850
00d8
018c
0707
ENDCHAR
STARTCHAR 02-14-18
ENCODING 11826
SWIDTH 1024 0
DWIDTH 16 0
BBX 16 16 0 -2
BITMAP
0108
0108
ffe8
920f
929a
94d2
974a
f00a
97ca
944e
97c4
9444
f7ce
044a
044a
04db
ENDCHAR
STARTCHAR 02-14-19
ENCODING 11827
SWIDTH 1024 0
DWIDTH 16 0
BBX 16 16 0 -2
BITMAP
0010
01ff
fc10
84fe
8400
84fe
8482
fcfe
8444
8428
85ff
8400
fcfe
0082
0082
00fe
ENDCHAR
STARTCHAR 02-14-20
ENCODING 11828
SWIDTH 1024 0
DWIDTH 16 0
BBX 16 16 0 -2
BITMAP
0000
fefe
2020
4442
feff
1211
7c7e
1010
feff
0000
1ff8
1008
1ff8
1008
1008
1ff8
ENDCHAR
STARTCHAR 02-14-21
ENCODING 11829
SWIDTH 1024 0
DWIDTH 16 0
BBX 16 16 0 -2
BITMAP
07df
0000
f7df
9555
9555
9020
97ff
f490
97fe
9492
97fe
9510
f5de
0510
09d1
030f
ENDCHAR
STARTCHAR 02-14-22
ENCODING 11830
SWIDTH 1024 0
DWIDTH 16 0
BBX 16 16 0 -2
BITMAP
0000
1ff8
1008
1ff8
1008
1ff8
0000
3ff8
0060
0180
0100
ffff
0100
0100
0100
0700
ENDCHAR
STARTCHAR 02-14-23
ENCODING 11831
SWIDTH 1024 0
DWIDTH 16 0
BBX 16 16 0 -2
BITMAP
0808
7e7e
4848
4848
fefe
1010
3939
6929
cf67
0000
1ff8
1008
1ff8
1008
1008
1ff8
ENDCHAR
STARTCHAR 02-14-24
ENCODING 11832
SWIDTH 1024 0
DWIDTH 16 0
BBX 16 16 0 -2
BITMAP
10fe
1082
1082
fefe
1082
1082
10fe
1040
feff
2191
2391
64b9
44e9
7ec5
c2fb
0206
ENDCHAR
STARTCHAR 02-14-25
ENCODING 11833
SWIDTH 1024 0
DWIDTH 16 0
BBX 16 16 0 -2
BITMAP
0020
7820
4bff
4a21
4a71
7a59
4ac9
4aad
4a21
7a71
4a59
4ac9
4a8d
4a01
ca01
9a07
ENDCHAR
STARTCHAR 02-14-26
ENCODING 11834
SWIDTH 1024 0
DWIDTH 16 0
BBX 16 16 0 -2
BITMAP
0000
7bfe
4840
49fc
4884
7884
4bff
4840
4840
7bff
4884
488c
49e8
4838
c8ee
9b83
ENDCHAR
STARTCHAR 02-14-27
ENCODING 11835
SWIDTH 1024 0
DWIDTH 16 0
BBX 16 16 0 -2
BITMAP
0000
003e
ffa2
94a2
94a2
94be
a4a2
c3a2
80a2
9cbe
94a2
94a2
ffa2
0062
0042
00ce
ENDCHAR
STARTCHAR 02-14-28
ENCODING 11836
SWIDTH 1024 0
DWIDTH 16 0
BBX 16 16 0 -2
BITMAP
1000
11fe
1040
fc40
1040
13ff
3880
3480
3080
51fe
5002
9002
1006
1004
1004
101c
ENDCHAR
STARTCHAR 02-14-29
ENCODING 11837
SWIDTH 1024 0
DWIDTH 16 0
BBX 16 16 0 -2
BITMAP
1040
1040
1040
fc40
13f8
1048
3848
3548
35c8
50c8
50e8
90a8
1188
1109
1309
1607
ENDCHAR
STARTCHAR 02-14-30
ENCODING 11838
SWIDTH 1024 0
DWIDTH 16 0
BBX 16 16 0 -2
BITMAP
1000
11ff
1048
fe48
1048
1048
3848
3448
3248
5048
5048
9048
10c8
1089
1189
1307
ENDCHAR
STARTCHAR 02-14-31
ENCODING 11839
SWIDTH 1024 0
DWIDTH 16 0
BBX 16 16 0 -2
BITMAP
1000
10ff
1006
fe0c
1018
1010
3810
35ff
3210
5010
5010
9010
1010
1010
1010
1070
ENDCHAR
STARTCHAR 02-14-32
ENCODING 11840
SWIDTH 1024 0
DWIDTH 16 0
BBX 16 16 0 -2
BITMAP
1006
101c
10f0
fe20
1020
1020
382f
35f8
3220
5020
5020
9020
1020
1021
1033
101e
ENDCHAR
STARTCHAR 02-14-33
ENCODING 11841
SWIDTH 1024 0
DWIDTH 16 0
BBX 16 16 0 -2
BITMAP
1020
1020
1120
fd26
113a
1162
39a2
3722
3122
5126
5120
9100
1100
1101
1183
10fe
ENDCHAR
STARTCHAR 02-14-34
ENCODING 11842
SWIDTH 1024 0
DWIDTH 16 0
BBX 16 16 0 -2
BITMAP
1020
1020
1020
fc7f
1041
10c1
3983
3562
3436
5014
500c
9018
1030
1060
11c0
1300
ENDCHAR
STARTCHAR 02-14-35
ENCODING 11843
SWIDTH 1024 0
DWIDTH 16 0
BBX 16 16 0 -2
BITMAP
1088
1088
118c
fd04
1306
128b
3888
3488
35d8
5250
5030
9020
1070
10d8
118c
1307
ENDCHAR
STARTCHAR 02-14-36
ENCODING 11844
SWIDTH 1024 0
DWIDTH 16 0
BBX 16 16 0 -2
BITMAP
1020
1020
1020
ffff
1020
1020
3924
3524
3524
5124
5124
9325
1225
1627
1020
1020
ENDCHAR
STARTCHAR 02-14-37
ENCODING 11845
SWIDTH 1024 0
DWIDTH 16 0
BBX 16 16 0 -2
BITMAP
1040
1040
1040
fe7f
10d1
1093
3992
3410
3210
5038
5028
9028
106c
1044
10c6
1183
ENDCHAR
STARTCHAR 02-14-38
ENCODING 11846
SWIDTH 1024 0
DWIDTH 16 0
BBX 16 16 0 -2
BITMAP
1020
1026
103c
fde0
1020
1020
3924
3524
3524
5124
5124
91fc
1020
1021
1033
101e
ENDCHAR
STARTCHAR 02-14-39
ENCODING 11847
SWIDTH 1024 0
DWIDTH 16 0
BBX 16 16 0 -2
BITMAP
1002
100e
10f8
fe88
1088
1088
3888
34ff
3288
5088
5088
908c
1084
1085
10e7
1382
ENDCHAR
STARTCHAR 02-14-40
ENCODING 11848
SWIDTH 1024 0
DWIDTH 16 0
BBX 16 16 0 -2
BITMAP
1000
10fe
1088
fc88
1088
1088
3888
37ff
3428
5028
5068
9048
10c8
1188
1708
1038
ENDCHAR
STARTCHAR 02-14-41
ENCODING 11849
SWIDTH 1024 0
DWIDTH 16 0
BBX 16 16 0 -2
BITMAP
1010
1010
1010
feff
1010
1010
5454
5454
5454
5454
54d4
d495
9195
9317
1010
1010
ENDCHAR
STARTCHAR 02-14-42
ENCODING 11850
SWIDTH 1024 0
DWIDTH 16 0
BBX 16 16 0 -2
BITMAP
0420
0420
ffff
0420
0420
7ffe
4002
4102
0100
ffff
0540
0d60
1930
311c
e107
0100
ENDCHAR
STARTCHAR 02-14-43
ENCODING 11851
SWIDTH 1024 0
DWIDTH 16 0
BBX 16 16 0 -2
BITMAP
1000
11f0
1000
fc00
11e0
1020
3822
37b6
34bc
50a8
50a8
91ac
1124
1326
1623
10e0
ENDCHAR
STARTCHAR 02-14-44
ENCODING 11852
SWIDTH 1024 0
DWIDTH 16 0
BBX 16 16 0 -2
BITMAP
1000
11fe
1020
fca4
11a6
1122
3922
3420
33ff
5020
5020
9020
1020
1020
1020
1020
ENDCHAR
STARTCHAR 02-14-45
ENCODING 11853
SWIDTH 1024 0
DWIDTH 16 0
BBX 16 16 0 -2
BITMAP
0600
0c08
18f8
7f8c
0004
1ff8
1008
1008
1ff8
0100
ffff
0520
0d30
391c
e107
0100
ENDCHAR
STARTCHAR 02-14-46
ENCODING 11854
SWIDTH 1024 0
DWIDTH 16 0
BBX 16 16 0 -2
BITMAP
1020
1030
1078
fccc
1186
137b
3800
3400
31fe
5042
5042
9042
1042
104e
1040
1040
ENDCHAR
STARTCHAR 02-14-47
ENCODING 11855
SWIDTH 1024 0
DWIDTH 16 0
BBX 16 16 0 -2
BITMAP
1020
10a4
11a6
fd22
1020
11fe
3820
3420
3020
53ff
5020
9020
1020
1020
1020
1020
ENDCHAR
STARTCHAR 02-14-48
ENCODING 11856
SWIDTH 1024 0
DWIDTH 16 0
BBX 16 16 0 -2
BITMAP
0080
3080
1880
c3ff
6080
0080
1880
707e
c000
0100
ffff
0540
0d60
3938
e10f
0100
ENDCHAR
STARTCHAR 02-14-49
ENCODING 11857
SWIDTH 1024 0
DWIDTH 16 0
BBX 16 16 0 -2
BITMAP
1000
11ff
1111
fd11
1111
11ff
3911
3511
3111
51ff
5010
9010
1010
1010
1010
1010
ENDCHAR
STARTCHAR 02-14-50
ENCODING 11858
SWIDTH 1024 0
DWIDTH 16 0
BBX 16 16 0 -2
BITMAP
1010
1010
1010
fdff
1111
1111
3911
35ff
3111
5111
5111
91ff
1010
1010
1010
1010
ENDCHAR
STARTCHAR 02-14-51
ENCODING 11859
SWIDTH 1024 0
DWIDTH 16 0
BBX 16 16 0 -2
BITMAP
0100
0100
ffff
0520
0d30
1918
310c
eff7
0000
0000
7ffe
0100
0910
391c
e107
0700
ENDCHAR
STARTCHAR 02-14-52
ENCODING 11860
SWIDTH 1024 0
DWIDTH 16 0
BBX 16 16 0 -2
BITMAP
1000
11fe
1102
fd02
1102
1102
3902
35fe
3448
5048
5048
9048
10c8
1089
1189
1307
ENDCHAR
STARTCHAR 02-14-53
ENCODING 11861
SWIDTH 1024 0
DWIDTH 16 0
BBX 16 16 0 -2
BITMAP
1040
1040
1040
ffff
1040
1148
3988
3508
353e
5308
5508
9108
1108
1108
117f
1100
ENDCHAR
STARTCHAR 02-14-54
ENCODING 11862
SWIDTH 1024 0
DWIDTH 16 0
BBX 16 16 0 -2
BITMAP
1020
1020
13fe
fe02
1202
11fc
3818
3430
3420
53ff
5020
9020
1020
1020
1020
10e0
ENDCHAR
STARTCHAR 02-14-55
ENCODING 11863
SWIDTH 1024 0
DWIDTH 16 0
BBX 16 16 0 -2
BITMAP
1020
1020
13ff
fe01
1201
1008
3808
37ff
3408
5188
50c8
9048
1008
1008
1008
1038
ENDCHAR
STARTCHAR 02-14-56
ENCODING 11864
SWIDTH 1024 0
DWIDTH 16 0
BBX 16 16 0 -2
BITMAP
1020
103e
1062
fec6
11ac
1018
3830
34e8
320f
5019
5033
90ea
1006
100c
1038
11e0
ENDCHAR
STARTCHAR 02-14-57
ENCODING 11865
SWIDTH 1024 0
DWIDTH 16 0
BBX 16 16 0 -2
BITMAP
1082
10c6
1044
fdff
1044
1044
3844
3444
35ff
5044
5044
9044
1044
10c4
1084
1184
ENDCHAR
STARTCHAR 02-14-58
ENCODING 11866
SWIDTH 1024 0
DWIDTH 16 0
BBX 16 16 0 -2
BITMAP
1000
11ff
1010
fc20
11ff
1129
3929
3529
3529
5129
5129
9129
1129
1129
1129
1103
ENDCHAR
STARTCHAR 02-14-59
ENCODING 11867
SWIDTH 1024 0
DWIDTH 16 0
BBX 16 16 0 -2
BITMAP
1022
1022
11fe
fc24
102c
1028
3bff
3430
3460
51fe
5310
9010
1010
1010
1010
1070
ENDCHAR
STARTCHAR 02-14-60
ENCODING 11868
SWIDTH 1024 0
DWIDTH 16 0
BBX 16 16 0 -2
BITMAP
1022
1022
11fe
fc24
102c
1028
3bff
3430
3460
51c6
535c
9070
1040
1041
1063
103e
ENDCHAR
STARTCHAR 02-14-61
ENCODING 11869
SWIDTH 1024 0
DWIDTH 16 0
BBX 16 16 0 -2
BITMAP
1008
100a
100b
fc09
11ff
1008
3808
35e8
3488
5088
508c
90e4
1384
1005
1007
1002
ENDCHAR
STARTCHAR 02-14-62
ENCODING 11870
SWIDTH 1024 0
DWIDTH 16 0
BBX 16 16 0 -2
BITMAP
0100
0100
ffff
0440
2444
2444
6446
cc43
1840
0100
ffff
0540
0d60
3938
e10f
0100
ENDCHAR
STARTCHAR 02-14-63
ENCODING 11871
SWIDTH 1024 0
DWIDTH 16 0
BBX 16 16 0 -2
BITMAP
1020
1122
11a6
fca4
10a4
1020
3820
37ff
3048
5048
5048
9048
10c8
1089
1189
1307
ENDCHAR
STARTCHAR 02-14-64
ENCODING 11872
SWIDTH 1024 0
DWIDTH 16 0
BBX 16 16 0 -2
BITMAP
1080
10fc
1188
fd10
13ff
1100
3900
357c
3144
5144
5144
914c
1140
1141
1263
103e
ENDCHAR
STARTCHAR 02-14-65
ENCODING 11873
SWIDTH 1024 0
DWIDTH 16 0
BBX 16 16 0 -2
BITMAP
1020
1020
13fe
fe02
1242
1040
3840
37ff
3484
518c
5108
93d8
1070
10d8
118c
1306
ENDCHAR
STARTCHAR 02-14-66
ENCODING 11874
SWIDTH 1024 0
DWIDTH 16 0
BBX 16 16 0 -2
BITMAP
0100
0100
01fc
0100
1ff8
1008
1ff8
1008
1008
1ff8
0100
ffff
0520
0d30
391c
e107
ENDCHAR
STARTCHAR 02-14-67
ENCODING 11875
SWIDTH 1024 0
DWIDTH 16 0
BBX 16 16 0 -2
BITMAP
1020
1060
1040
fd8e
1102
1102
3902
3502
31ce
5102
5102
9102
1102
1102
11fe
1000
ENDCHAR
STARTCHAR 02-14-68
ENCODING 11876
SWIDTH 1024 0
DWIDTH 16 0
BBX 16 16 0 -2
BITMAP
1000
11fc
1024
fc27
1061
1041
38c3
35ae
3020
53ff
50a8
90ac
11a6
1323
1020
1020
ENDCHAR
STARTCHAR 02-14-69
ENCODING 11877
SWIDTH 1024 0
DWIDTH 16 0
BBX 16 16 0 -2
BITMAP
1000
11fe
1122
fd22
11fe
1122
3922
35fe
3000
5020
51fe
9022
1062
1046
10c4
139c
ENDCHAR
STARTCHAR 02-14-70
ENCODING 11878
SWIDTH 1024 0
DWIDTH 16 0
BBX 16 16 0 -2
BITMAP
1008
1008
1308
fdaa
10aa
106b
3b49
3588
308a
501a
5086
9084
118c
1108
1318
1030
ENDCHAR
STARTCHAR 02-14-71
ENCODING 11879
SWIDTH 1024 0
DWIDTH 16 0
BBX 16 16 0 -2
BITMAP
1000
11ff
1010
fe30
107c
10d6
3993
3410
3210
5000
50fe
9082
1082
1082
1082
10fe
ENDCHAR
STARTCHAR 02-14-72
ENCODING 11880
SWIDTH 1024 0
DWIDTH 16 0
BBX 16 16 0 -2
BITMAP
1000
13ff
1048
fc48
1048
13cf
3a49
3649
3249
5249
53cf
9048
10c8
1088
1188
1308
ENDCHAR
STARTCHAR 02-14-73
ENCODING 11881
SWIDTH 1024 0
DWIDTH 16 0
BBX 16 16 0 -2
BITMAP
0100
0100
7ffe
0520
0d30
1918
710e
07e0
1c38
f10f
0110
3130
15c0
0d60
1938
370c
ENDCHAR
STARTCHAR 02-14-74
ENCODING 11882
SWIDTH 1024 0
DWIDTH 16 0
BBX 16 16 0 -2
BITMAP
1024
1026
1022
fdff
1020
1122
39a6
34ac
3020
5030
50b8
91ac
1326
1223
1020
10e0
ENDCHAR
STARTCHAR 02-14-75
ENCODING 11883
SWIDTH 1024 0
DWIDTH 16 0
BBX 16 16 0 -2
BITMAP
1110
1110
1116
fddc
1110
1110
3911
35cf
3700
5020
5020
93fe
1020
1020
13ff
1000
ENDCHAR
STARTCHAR 02-14-76
ENCODING 11884
SWIDTH 1024 0
DWIDTH 16 0
BBX 16 16 0 -2
BITMAP
1000
11fe
1102
fd02
11fe
1102
3902
3502
31fe
5102
5102
9102
11fe
1084
1186
1303
ENDCHAR
STARTCHAR 02-14-77
ENCODING 11885
SWIDTH 1024 0
DWIDTH 16 0
BBX 16 16 0 -2
BITMAP
1001
13e9
1229
fe29
1229
13e9
3909
3509
35e9
5129
5129
9121
1321
1261
1241
16c7
ENDCHAR
STARTCHAR 02-14-78
ENCODING 11886
SWIDTH 1024 0
DWIDTH 16 0
BBX 16 16 0 -2
BITMAP
1000
11fe
1102
fd02
11fe
1102
3902
35fe
3102
5102
51fe
9048
1048
10c9
1189
1307
ENDCHAR
STARTCHAR 02-14-79
ENCODING 11887
SWIDTH 1024 0
DWIDTH 16 0
BBX 16 16 0 -2
BITMAP
1020
1020
11fe
fd22
1122
1122
39fe
3420
37ff
5221
5221
9221
13ff
1020
1020
1020
ENDCHAR
STARTCHAR 02-14-80
ENCODING 11888
SWIDTH 1024 0
DWIDTH 16 0
BBX 16 16 0 -2
BITMAP
1040
107c
10c8
fd98
1110
11fe
3922
3522
3122
51fe
5060
9050
10d0
1091
119b
130e
ENDCHAR
STARTCHAR 02-14-81
ENCODING 11889
SWIDTH 1024 0
DWIDTH 16 0
BBX 16 16 0 -2
BITMAP
1020
1020
13ff
fc20
1124
1124
3924
36aa
32aa
5071
5050
90d8
1088
118c
1106
1303
ENDCHAR
STARTCHAR 02-14-82
ENCODING 11890
SWIDTH 1024 0
DWIDTH 16 0
BBX 16 16 0 -2
BITMAP
1000
11ff
1000
fe00
10fe
1082
3882
3482
32fe
5000
5044
9064
102c
1008
11ff
1000
ENDCHAR
STARTCHAR 02-14-83
ENCODING 11891
SWIDTH 1024 0
DWIDTH 16 0
BBX 16 16 0 -2
BITMAP
1000
10fc
1004
fdff
1004
10fc
3800
37ff
3401
55fd
5084
90cc
1058
1070
11dc
1307
ENDCHAR
STARTCHAR 02-14-84
ENCODING 11892
SWIDTH 1024 0
DWIDTH 16 0
BBX 16 16 0 -2
BITMAP
2002
278e
2138
f908
2208
2208
77ae
68a8
a2a8
a2a8
22a8
27a8
293f
2380
26e0
2c3f
ENDCHAR
STARTCHAR 02-14-85
ENCODING 11893
SWIDTH 1024 0
DWIDTH 16 0
BBX 16 16 0 -2
BITMAP
1094
1094
11ff
fd15
1315
137f
3554
3954
357f
5115
5115
9115
1135
1125
1125
1143
ENDCHAR
STARTCHAR 02-14-86
ENCODING 11894
SWIDTH 1024 0
DWIDTH 16 0
BBX 16 16 0 -2
BITMAP
0810
ffff
0810
05e0
1c30
37fc
6216
0630
0c60
0100
ffff
0520
0d30
391c
e107
0100
ENDCHAR
STARTCHAR 02-14-87
ENCODING 11895
SWIDTH 1024 0
DWIDTH 16 0
BBX 16 16 0 -2
BITMAP
1010
1010
10fe
fc10
1092
1082
31ff
3882
3482
5400
51ff
9048
1048
10c9
1189
1307
ENDCHAR
STARTCHAR 02-14-88
ENCODING 11896
SWIDTH 1024 0
DWIDTH 16 0
BBX 16 16 0 -2
BITMAP
1088
1088
13ff
fc88
10ac
1022
39ff
3520
3522
5132
5116
9114
111c
1339
12ed
1607
ENDCHAR
STARTCHAR 02-14-89
ENCODING 11897
SWIDTH 1024 0
DWIDTH 16 0
BBX 16 16 0 -2
BITMAP
1048
1048
13ff
fc48
1000
1084
3884
3584
317f
5304
5124
9134
1114
1104
1104
111c
ENDCHAR
STARTCHAR 02-14-90
ENCODING 11898
SWIDTH 1024 0
DWIDTH 16 0
BBX 16 16 0 -2
BITMAP
0440
1c40
f0fe
1092
fdb2
1022
3862
54c6
d404
111c
0100
ffff
0520
0d30
391c
e107
ENDCHAR
STARTCHAR 02-14-91
ENCODING 11899
SWIDTH 1024 0
DWIDTH 16 0
BBX 16 16 0 -2
BITMAP
101c
11f0
1020
ffff
1020
11fe
3822
37ff
3422
51fe
5070
90f8
10a8
11ac
1327
1020
ENDCHAR
STARTCHAR 02-14-92
ENCODING 11900
SWIDTH 1024 0
DWIDTH 16 0
BBX 16 16 0 -2
BITMAP
1006
101c
10f4
fea6
10b2
1193
3901
3410
3210
51ff
5054
9054
10d6
1092
1193
1010
ENDCHAR
STARTCHAR 02-14-93
ENCODING 11901
SWIDTH 1024 0
DWIDTH 16 0
BBX 16 16 0 -2
BITMAP
1000
11fc
1104
fdfc
1104
1104
39fc
3400
33ff
5008
53ff
9108
1188
1088
1008
1038
ENDCHAR
STARTCHAR 02-14-94
ENCODING 11902
SWIDTH 1024 0
DWIDTH 16 0
BBX 16 16 0 -2
BITMAP
1000
10fe
1080
fefc
1080
10fc
3880
3480
37ff
5092
d096
909c
1088
108c
10e6
1383
ENDCHAR
STARTCHAR 02-15-01
ENCODING 12065
SWIDTH 1024 0
DWIDTH 16 0
BBX 16 16 0 -2
BITMAP
100e
11f8
1100
fdfe
1102
1102
39fe
3510
3512
51ff
5110
9138
1128
136c
1246
16c3
ENDCHAR
STARTCHAR 02-15-02
ENCODING 12066
SWIDTH 1024 0
DWIDTH 16 0
BBX 16 16 0 -2
BITMAP
1088
1088
13fe
fc88
1088
1088
3bff
3400
3400
51fc
5104
9104
11fc
1104
1104
11fc
ENDCHAR
STARTCHAR 02-15-03
ENCODING 12067
SWIDTH 1024 0
DWIDTH 16 0
BBX 16 16 0 -2
BITMAP
1004
1004
1044
fa5f
1184
1084
394c
360e
340d
5055
5254
91a4
1084
1144
1204
1004
ENDCHAR
STARTCHAR 02-15-04
ENCODING 12068
SWIDTH 1024 0
DWIDTH 16 0
BBX 16 16 0 -2
BITMAP
1124
1326
1222
fbfe
1050
1050
3bff
3488
3104
53fe
550b
9108
1138
1102
1106
10fc
ENDCHAR
STARTCHAR 02-15-05
ENCODING 12069
SWIDTH 1024 0
DWIDTH 16 0
BBX 16 16 0 -2
BITMAP
2000
27ff
2240
fa40
227f
23d1
2251
725b
6a4a
abca
a24e
2244
224e
23ca
265b
2051
ENDCHAR
STARTCHAR 02-15-06
ENCODING 12070
SWIDTH 1024 0
DWIDTH 16 0
BBX 16 16 0 -2
BITMAP
2020
203e
2020
fbff
2201
2222
2238
72e0
6a22
aa1e
a200
2248
2648
2449
2cc9
2187
ENDCHAR
STARTCHAR 02-15-07
ENCODING 12071
SWIDTH 1024 0
DWIDTH 16 0
BBX 16 16 0 -2
BITMAP
1000
11fc
1104
fd04
11fc
1104
3904
35fc
3504
5104
51fc
9104
17ff
1088
118c
1306
ENDCHAR
STARTCHAR 02-15-08
ENCODING 12072
SWIDTH 1024 0
DWIDTH 16 0
BBX 16 16 0 -2
BITMAP
2006
203c
23e0
f840
2040
27ff
2088
718c
6b06
ae43
a040
2252
225b
2649
2448
20c0
ENDCHAR
STARTCHAR 02-15-09
ENCODING 12073
SWIDTH 1024 0
DWIDTH 16 0
BBX 16 16 0 -2
BITMAP
2020
2020
27ff
f850
20d8
218c
2707
70f8
6800
a800
a7ff
2020
2124
2326
2623
20e0
ENDCHAR
STARTCHAR 02-15-10
ENCODING 12074
SWIDTH 1024 0
DWIDTH 16 0
BBX 16 16 0 -2
BITMAP
2000
23ff
2200
fafe
2282
22fe
2282
72fe
6a00
aafe
a20c
2210
27ff
2410
2c10
2070
ENDCHAR
STARTCHAR 02-15-11
ENCODING 12075
SWIDTH 1024 0
DWIDTH 16 0
BBX 16 16 0 -2
BITMAP
1000
13ff
1200
fefe
1282
12fe
3a82
36fe
3220
53ff
5244
92e8
123c
12e6
1200
13ff
ENDCHAR
STARTCHAR 02-15-12
ENCODING 12076
SWIDTH 1024 0
DWIDTH 16 0
BBX 16 16 0 -2
BITMAP
0420
ffff
0000
3e44
3244
2e44
3244
2e04
221c
0100
ffff
0520
0d30
391c
e107
0100
ENDCHAR
STARTCHAR 02-15-13
ENCODING 12077
SWIDTH 1024 0
DWIDTH 16 0
BBX 16 16 0 -2
BITMAP
2000
23ff
2048
fbff
2249
2249
23ff
7040
6840
abff
a084
208c
21e8
2038
20ee
2383
ENDCHAR
STARTCHAR 02-15-14
ENCODING 12078
SWIDTH 1024 0
DWIDTH 16 0
BBX 16 16 0 -2
BITMAP
2100
21ff
2110
fb10
22ff
2691
26ff
7291
6aff
aa10
a250
22b0
2238
222c
2266
22c3
ENDCHAR
STARTCHAR 02-15-15
ENCODING 12079
SWIDTH 1024 0
DWIDTH 16 0
BBX 16 16 0 -2
BITMAP
11fc
1104
1104
fdfc
1104
1104
39fc
3480
31ff
5321
5621
9271
12d1
128b
13f2
100e
ENDCHAR
STARTCHAR 02-15-16
ENCODING 12080
SWIDTH 1024 0
DWIDTH 16 0
BBX 16 16 0 -2
BITMAP
100a
1009
1008
ffff
1208
12e8
3a09
3689
33eb
52aa
52ae
92e4
1255
128d
1217
1462
ENDCHAR
STARTCHAR 02-15-17
ENCODING 12081
SWIDTH 1024 0
DWIDTH 16 0
BBX 16 16 0 -2
BITMAP
1000
11fe
104c
fe30
11ff
1052
3854
3490
3510
5020
53ff
90a8
10ac
11a6
1323
1020
ENDCHAR
STARTCHAR 02-15-18
ENCODING 12082
SWIDTH 1024 0
DWIDTH 16 0
BBX 16 16 0 -2
BITMAP
100c
1038
11e0
fc20
13ff
10a8
39ac
3726
3223
51fc
5104
9104
11fc
1104
1104
11fc
ENDCHAR
STARTCHAR 02-15-19
ENCODING 12083
SWIDTH 1024 0
DWIDTH 16 0
BBX 16 16 0 -2
BITMAP
2000
27df
2041
f841
27df
2410
2410
77df
6945
ab4d
a659
21c7
234d
2659
20c3
238e
ENDCHAR
STARTCHAR 02-15-20
ENCODING 12084
SWIDTH 1024 0
DWIDTH 16 0
BBX 16 16 0 -2
BITMAP
0100
0100
7ffe
4812
310c
06c0
383c
eff7
0810
0810
0ff0
0100
ffff
0540
3938
e10f
ENDCHAR
STARTCHAR 02-15-21
ENCODING 12085
SWIDTH 1024 0
DWIDTH 16 0
BBX 16 16 0 -2
BITMAP
0800
083c
ff24
0824
7e24
0047
ff00
817e
bd22
0022
0836
ff1c
2a08
6b1c
c9b6
0863
ENDCHAR
STARTCHAR 02-15-22
ENCODING 12086
SWIDTH 1024 0
DWIDTH 16 0
BBX 16 16 0 -2
BITMAP
2000
207f
7f20
c83e
0822
ffa2
143e
3620
637f
c100
ffff
0520
0d30
391c
e107
0100
ENDCHAR
STARTCHAR 02-15-23
ENCODING 12087
SWIDTH 1024 0
DWIDTH 16 0
BBX 16 16 0 -2
BITMAP
1010
1038
ff28
106c
7ec6
4393
4210
7efe
4210
4238
7e38
1054
ff56
1093
1010
1010
ENDCHAR
STARTCHAR 02-15-24
ENCODING 12088
SWIDTH 1024 0
DWIDTH 16 0
BBX 16 16 0 -2
BITMAP
1022
11fa
1024
fc28
13ff
1060
388c
35f1
3683
507e
5000
90fe
1082
10fe
1082
10fe
ENDCHAR
STARTCHAR 02-15-25
ENCODING 12089
SWIDTH 1024 0
DWIDTH 16 0
BBX 16 16 0 -2
BITMAP
1040
1040
13ff
fe41
12c9
1090
39fe
3710
3110
51fe
5110
9110
11fe
1110
1110
11ff
ENDCHAR
STARTCHAR 02-15-26
ENCODING 12090
SWIDTH 1024 0
DWIDTH 16 0
BBX 16 16 0 -2
BITMAP
0040
7948
4a44
4840
4bfe
6890
5890
4fff
490c
6b26
5e23
4bfe
48a8
49ac
cb26
9820
ENDCHAR
STARTCHAR 02-15-27
ENCODING 12091
SWIDTH 1024 0
DWIDTH 16 0
BBX 16 16 0 -2
BITMAP
1020
1020
11fe
fc20
1020
13ff
3840
3448
30bc
53e6
5000
91fe
1152
1152
1152
13ff
ENDCHAR
STARTCHAR 02-15-28
ENCODING 12092
SWIDTH 1024 0
DWIDTH 16 0
BBX 16 16 0 -2
BITMAP
0100
ffff
0000
0ff0
0810
7ffe
4002
4ff2
4812
4ff6
0100
ffff
0520
1d38
f10f
0100
ENDCHAR
STARTCHAR 02-15-29
ENCODING 12093
SWIDTH 1024 0
DWIDTH 16 0
BBX 16 16 0 -2
BITMAP
0000
7e7e
4242
4242
4242
7e7e
0810
0810
feff
1818
1c38
2a54
2a54
4992
8991
0810
ENDCHAR
STARTCHAR 02-15-30
ENCODING 12094
SWIDTH 1024 0
DWIDTH 16 0
BBX 16 16 0 -2
BITMAP
0100
7ffe
0100
1ff8
0000
7ffe
4002
5ffa
0200
0ff8
3408
07f8
0100
7ffe
0910
710e
ENDCHAR
STARTCHAR 02-15-31
ENCODING 12095
SWIDTH 1024 0
DWIDTH 16 0
BBX 16 16 0 -2
BITMAP
1020
1020
13ff
fe01
12fd
1020
39fe
3522
3522
51fe
5122
9122
11fe
1084
1186
1303
ENDCHAR
STARTCHAR 02-15-32
ENCODING 12096
SWIDTH 1024 0
DWIDTH 16 0
BBX 16 16 0 -2
BITMAP
2084
2088
23ff
fd10
21fe
2110
21fe
3d10
e110
01ff
0100
ffff
0520
1d38
f10f
0100
ENDCHAR
STARTCHAR 02-15-33
ENCODING 12097
SWIDTH 1024 0
DWIDTH 16 0
BBX 16 16 0 -2
BITMAP
1000
11fe
1020
ffff
1221
11ac
3820
35ac
3420
51fe
5002
9002
13ff
1002
1002
11fe
ENDCHAR
STARTCHAR 02-15-34
ENCODING 12098
SWIDTH 1024 0
DWIDTH 16 0
BBX 16 16 0 -2
BITMAP
1000
11fe
1122
fd22
11fe
1122
3922
35fe
3420
51fe
5020
93ff
1000
1152
135b
1249
ENDCHAR
STARTCHAR 02-15-35
ENCODING 12099
SWIDTH 1024 0
DWIDTH 16 0
BBX 16 16 0 -2
BITMAP
1080
1080
11ff
fd44
127c
1044
387c
3444
3444
51ff
5101
917d
1145
1145
117d
1103
ENDCHAR
STARTCHAR 02-15-36
ENCODING 12100
SWIDTH 1024 0
DWIDTH 16 0
BBX 16 16 0 -2
BITMAP
1020
1020
13ff
fe01
1221
11fe
3848
3586
3400
53ff
5004
91e4
1124
1124
11e4
100c
ENDCHAR
STARTCHAR 02-15-37
ENCODING 12101
SWIDTH 1024 0
DWIDTH 16 0
BBX 16 16 0 -2
BITMAP
1048
1084
11fe
fc02
1084
1129
3bff
3430
30cc
5387
5010
91e4
1018
10e2
100c
11f0
ENDCHAR
STARTCHAR 02-15-38
ENCODING 12102
SWIDTH 1024 0
DWIDTH 16 0
BBX 16 16 0 -2
BITMAP
1020
1122
1122
fdfe
1088
1090
39fe
3510
3310
51fe
5110
9110
11fe
1110
1110
11ff
ENDCHAR
STARTCHAR 02-15-39
ENCODING 12103
SWIDTH 1024 0
DWIDTH 16 0
BBX 16 16 0 -2
BITMAP
0410
447e
45d2
7c5c
05f0
fc04
27ff
2484
64c4
c44c
0100
ffff
0520
1d38
f10f
0100
ENDCHAR
STARTCHAR 02-15-40
ENCODING 12104
SWIDTH 1024 0
DWIDTH 16 0
BBX 16 16 0 -2
BITMAP
2090
249f
24b1
fceb
24d6
278c
2098
70f2
6f82
a4bf
a482
2492
249a
248a
2882
208e
ENDCHAR
STARTCHAR 02-15-41
ENCODING 12105
SWIDTH 1024 0
DWIDTH 16 0
BBX 16 16 0 -2
BITMAP
1006
13fc
1200
fffe
1202
13fe
3a00
367c
3644
527c
5200
92fe
1292
16fe
1481
107f
ENDCHAR
STARTCHAR 02-15-42
ENCODING 12106
SWIDTH 1024 0
DWIDTH 16 0
BBX 16 16 0 -2
BITMAP
10fe
1082
10fe
fc82
10fe
1000
39ff
3529
31ff
5000
53ff
90c6
106c
1038
10ec
1387
ENDCHAR
STARTCHAR 02-15-43
ENCODING 12107
SWIDTH 1024 0
DWIDTH 16 0
BBX 16 16 0 -2
BITMAP
1000
133c
1194
fc55
1355
1035
38a4
352c
3300
5020
53ff
90a4
10a4
11a6
1323
1020
ENDCHAR
STARTCHAR 02-15-44
ENCODING 12108
SWIDTH 1024 0
DWIDTH 16 0
BBX 16 16 0 -2
BITMAP
1020
1020
13ff
fe48
1248
13ff
3a49
3649
33ff
5288
528b
92ee
1288
1488
14e9
1187
ENDCHAR
STARTCHAR 02-15-45
ENCODING 12109
SWIDTH 1024 0
DWIDTH 16 0
BBX 16 16 0 -2
BITMAP
1020
103e
1020
fdff
1121
11fe
3920
351e
3100
517e
5142
917e
1142
127e
1242
10ff
ENDCHAR
STARTCHAR 02-15-46
ENCODING 12110
SWIDTH 1024 0
DWIDTH 16 0
BBX 16 16 0 -2
BITMAP
1088
1088
13ff
fc88
11fe
1122
39fe
3522
35fe
5020
53ff
9221
1229
123d
12e5
1203
ENDCHAR
STARTCHAR 02-15-47
ENCODING 12111
SWIDTH 1024 0
DWIDTH 16 0
BBX 16 16 0 -2
BITMAP
100a
1009
13ff
fc08
11e8
1008
3bfc
3404
35f4
5114
51f4
9116
11f2
1112
11f2
131b
ENDCHAR
STARTCHAR 02-15-48
ENCODING 12112
SWIDTH 1024 0
DWIDTH 16 0
BBX 16 16 0 -2
BITMAP
11fe
1002
13ff
fc02
11fe
1000
3bef
3489
34e9
538f
5004
93ff
1084
10c4
1044
101c
ENDCHAR
STARTCHAR 02-15-49
ENCODING 12113
SWIDTH 1024 0
DWIDTH 16 0
BBX 16 16 0 -2
BITMAP
1088
108a
13eb
fc09
1228
1148
3bff
3408
33ea
522a
522e
93e4
1224
1225
13ef
101a
ENDCHAR
STARTCHAR 02-15-50
ENCODING 12114
SWIDTH 1024 0
DWIDTH 16 0
BBX 16 16 0 -2
BITMAP
13df
1251
1251
fbdf
1000
11fe
3922
35fe
3522
5122
51fe
9020
13ff
1020
1020
1020
ENDCHAR
STARTCHAR 02-15-51
ENCODING 12115
SWIDTH 1024 0
DWIDTH 16 0
BBX 16 16 0 -2
BITMAP
1000
3ffc
5248
1248
ffff
1248
1248
1248
3ffc
0810
7efe
2854
2c54
6ad6
c993
0810
ENDCHAR
STARTCHAR 02-15-52
ENCODING 12116
SWIDTH 1024 0
DWIDTH 16 0
BBX 16 16 0 -2
BITMAP
1222
1124
1020
fbff
10a8
11ac
3b27
3520
31c4
527f
5254
9554
10df
1084
1184
1304
ENDCHAR
STARTCHAR 02-15-53
ENCODING 12117
SWIDTH 1024 0
DWIDTH 16 0
BBX 16 16 0 -2
BITMAP
1000
13df
1251
ffdf
1251
13df
3a01
3679
3649
5249
5279
9249
1249
1279
1201
1207
ENDCHAR
STARTCHAR 02-15-54
ENCODING 12118
SWIDTH 1024 0
DWIDTH 16 0
BBX 16 16 0 -2
BITMAP
1006
101c
11f0
fd24
10a8
13ff
38a8
34ac
31a6
5323
51fe
9122
11fe
1122
1122
11fe
ENDCHAR
STARTCHAR 02-15-55
ENCODING 12119
SWIDTH 1024 0
DWIDTH 16 0
BBX 16 16 0 -2
BITMAP
1000
11fe
1020
ffff
1221
11ae
3820
35ae
3000
51fe
5000
93ff
1040
10c4
108e
11f3
ENDCHAR
STARTCHAR 02-15-56
ENCODING 12120
SWIDTH 1024 0
DWIDTH 16 0
BBX 16 16 0 -2
BITMAP
1110
1488
2620
03e0
1414
aaaa
a0a0
b2b1
1e1f
0100
ffff
0520
0d30
391c
e107
0100
ENDCHAR
STARTCHAR 02-15-57
ENCODING 12121
SWIDTH 1024 0
DWIDTH 16 0
BBX 16 16 0 -2
BITMAP
20c0
239e
2202
fbde
2202
23fe
2000
7222
6b32
aaaa
a222
2332
22aa
2222
23ba
2663
ENDCHAR
STARTCHAR 02-15-58
ENCODING 12122
SWIDTH 1024 0
DWIDTH 16 0
BBX 16 16 0 -2
BITMAP
107c
1044
1044
fe7c
1000
11ef
3929
3529
33ef
5010
51ff
9054
1054
10d6
1193
1010
ENDCHAR
STARTCHAR 02-15-59
ENCODING 12123
SWIDTH 1024 0
DWIDTH 16 0
BBX 16 16 0 -2
BITMAP
000e
79fa
4b13
52fd
5820
49ff
4802
4bff
5802
41fe
0100
ffff
0520
1d38
f10f
0100
ENDCHAR
STARTCHAR 02-15-60
ENCODING 12124
SWIDTH 1024 0
DWIDTH 16 0
BBX 16 16 0 -2
BITMAP
1088
1088
11fe
fc88
13ff
1124
39fc
3622
33fe
5125
51fc
9124
11fc
1020
13fe
1020
ENDCHAR
STARTCHAR 02-15-61
ENCODING 12125
SWIDTH 1024 0
DWIDTH 16 0
BBX 16 16 0 -2
BITMAP
1000
11fe
112a
fdfe
1010
13ff
3810
34fe
3682
52fe
5282
92fe
1282
12fe
1200
13ff
ENDCHAR
STARTCHAR 02-15-62
ENCODING 12126
SWIDTH 1024 0
DWIDTH 16 0
BBX 16 16 0 -2
BITMAP
1000
11fe
1020
fbff
1221
11ad
3821
35ac
3000
51fe
5122
9122
11fe
1122
1122
11fe
ENDCHAR
STARTCHAR 02-15-63
ENCODING 12127
SWIDTH 1024 0
DWIDTH 16 0
BBX 16 16 0 -2
BITMAP
13ff
1048
13ff
fe49
1249
13ff
3800
35fe
3302
51fe
5102
91fe
1102
11fe
1084
1303
ENDCHAR
STARTCHAR 02-15-64
ENCODING 12128
SWIDTH 1024 0
DWIDTH 16 0
BBX 16 16 0 -2
BITMAP
1000
11fe
114a
fd4a
11fe
1020
39fe
3420
37ff
5084
5048
93ff
1020
11fe
1020
1020
ENDCHAR
STARTCHAR 02-15-65
ENCODING 12129
SWIDTH 1024 0
DWIDTH 16 0
BBX 16 16 0 -2
BITMAP
1020
1122
1122
fdfe
1000
1224
3b28
357e
34c8
507e
5748
917e
1148
117e
1380
16ff
ENDCHAR
STARTCHAR 02-15-66
ENCODING 12130
SWIDTH 1024 0
DWIDTH 16 0
BBX 16 16 0 -2
BITMAP
1020
1020
13ff
fe01
12ff
1152
3ad4
3548
3484
517b
5200
91fe
10a4
11a6
1323
1060
ENDCHAR
STARTCHAR 02-15-67
ENCODING 12131
SWIDTH 1024 0
DWIDTH 16 0
BBX 16 16 0 -2
BITMAP
1000
11fe
1020
ffff
1221
12ad
3a21
34ac
3000
53ff
5020
93ff
1249
1249
1249
124b
ENDCHAR
STARTCHAR 02-15-68
ENCODING 12132
SWIDTH 1024 0
DWIDTH 16 0
BBX 16 16 0 -2
BITMAP
2082
2102
27ea
fd26
2522
27ea
2526
7522
6fe3
aa9e
a2a2
22aa
22fa
2681
24c3
2c7e
ENDCHAR
STARTCHAR 02-15-69
ENCODING 12133
SWIDTH 1024 0
DWIDTH 16 0
BBX 16 16 0 -2
BITMAP
1000
13ff
1244
ffff
1244
12fe
3a92
36fe
3292
52fe
5210
92ff
1295
129d
14f5
1083
ENDCHAR
STARTCHAR 02-15-70
ENCODING 12134
SWIDTH 1024 0
DWIDTH 16 0
BBX 16 16 0 -2
BITMAP
0ff0
0910
0ff0
0910
0ff0
7e7e
5252
7e7e
5252
7e7e
0100
7ffe
0520
1d38
710e
0100
ENDCHAR
STARTCHAR 02-15-71
ENCODING 12135
SWIDTH 1024 0
DWIDTH 16 0
BBX 16 16 0 -2
BITMAP
0100
7ffe
0100
1ff8
1108
ffff
8f21
b939
0620
39fc
0000
1ff8
1008
ffff
0910
710e
ENDCHAR
STARTCHAR 02-15-72
ENCODING 12136
SWIDTH 1024 0
DWIDTH 16 0
BBX 16 16 0 -2
BITMAP
1010
11ff
1010
fefe
1000
11ff
3929
35ff
3282
50fe
5082
90fe
1082
10fe
1044
1183
ENDCHAR
STARTCHAR 02-15-73
ENCODING 12137
SWIDTH 1024 0
DWIDTH 16 0
BBX 16 16 0 -2
BITMAP
1048
13ff
1048
fc20
12fd
1186
38fc
3586
36fd
5020
53ff
90a8
11ac
1126
1323
1020
ENDCHAR
STARTCHAR 02-15-74
ENCODING 12138
SWIDTH 1024 0
DWIDTH 16 0
BBX 16 16 0 -2
BITMAP
2410
267c
2254
fc7c
2610
22ff
2000
767c
6a44
aa7c
a244
227c
2244
267c
2582
2cff
ENDCHAR
STARTCHAR 02-15-75
ENCODING 12139
SWIDTH 1024 0
DWIDTH 16 0
BBX 16 16 0 -2
BITMAP
2100
213e
27e2
faa2
22be
22a2
27e2
713e
6922
afe2
a13e
2394
2554
2934
2125
2163
ENDCHAR
STARTCHAR 02-15-76
ENCODING 12140
SWIDTH 1024 0
DWIDTH 16 0
BBX 16 16 0 -2
BITMAP
1010
5210
7efe
2844
7e6c
4228
7efe
4010
7efe
4210
7e10
0100
7ffe
0d30
791e
0100
ENDCHAR
STARTCHAR 02-15-77
ENCODING 12141
SWIDTH 1024 0
DWIDTH 16 0
BBX 16 16 0 -2
BITMAP
2010
279e
20a2
fd44
233f
2229
27e9
727f
6a90
a229
a255
222e
2254
2226
2245
2618
ENDCHAR
STARTCHAR 02-15-78
ENCODING 12142
SWIDTH 1024 0
DWIDTH 16 0
BBX 16 16 0 -2
BITMAP
2110
2110
27ff
fc50
229e
27e2
201e
77d0
6c5e
a7d0
a45e
27d0
245e
2450
2459
24cf
ENDCHAR
STARTCHAR 02-15-79
ENCODING 12143
SWIDTH 1024 0
DWIDTH 16 0
BBX 16 16 0 -2
BITMAP
79fe
4b24
4afa
5010
51ff
4802
4bff
4802
59fe
42a2
4695
447c
0100
ffff
0910
710e
ENDCHAR
STARTCHAR 02-15-80
ENCODING 12144
SWIDTH 1024 0
DWIDTH 16 0
BBX 16 16 0 -2
BITMAP
2200
221f
27d1
fd11
211f
27f1
2251
729f
6fd1
ac91
a7df
248a
27ca
248a
27da
2033
ENDCHAR
STARTCHAR 02-15-81
ENCODING 12145
SWIDTH 1024 0
DWIDTH 16 0
BBX 16 16 0 -2
BITMAP
23de
2252
23de
fa52
23de
2252
23de
7110
6fff
aa20
a3fe
2220
23fe
2220
2220
23ff
ENDCHAR
STARTCHAR 02-15-82
ENCODING 12146
SWIDTH 1024 0
DWIDTH 16 0
BBX 16 16 0 -2
BITMAP
27ff
2491
2491
ffff
2112
2224
247f
72a4
6924
aa7f
a7e4
2124
257f
2564
2564
213f
ENDCHAR
STARTCHAR 02-15-83
ENCODING 12147
SWIDTH 1024 0
DWIDTH 16 0
BBX 16 16 0 -2
BITMAP
13df
1000
13df
fe55
12d5
1020
3bff
3648
33ff
5249
53ff
9288
12ef
1288
14e9
1187
ENDCHAR
STARTCHAR 02-15-84
ENCODING 12148
SWIDTH 1024 0
DWIDTH 16 0
BBX 16 16 0 -2
BITMAP
1294
13df
1084
ffff
114a
114a
3a73
35fe
3502
51fe
5102
91fe
1102
11fe
1084
1303
ENDCHAR
STARTCHAR 02-15-85
ENCODING 12149
SWIDTH 1024 0
DWIDTH 16 0
BBX 16 16 0 -2
BITMAP
27ff
2090
27ff
fc91
24f1
2240
27ef
7249
6bc9
a90f
a7e9
2529
27ef
2109
27e9
2113
ENDCHAR
STARTCHAR 02-15-86
ENCODING 12150
SWIDTH 1024 0
DWIDTH 16 0
BBX 16 16 0 -2
BITMAP
2088
27ff
2088
ffdf
2451
27df
2451
77df
6c21
adfd
a421
25fd
2575
25fd
24a9
2527
ENDCHAR
STARTCHAR 02-15-87
ENCODING 12151
SWIDTH 1024 0
DWIDTH 16 0
BBX 16 16 0 -2
BITMAP
0820
0820
0820
7f7f
0841
08d3
0812
0810
ff10
1010
1038
3228
222c
2764
3d46
61c3
ENDCHAR
STARTCHAR 02-15-88
ENCODING 12152
SWIDTH 1024 0
DWIDTH 16 0
BBX 16 16 0 -2
BITMAP
1020
1020
1020
ff7f
1041
10d3
1012
7e10
0010
0010
7e38
4228
422c
4264
4246
7ec3
ENDCHAR
STARTCHAR 02-15-89
ENCODING 12153
SWIDTH 1024 0
DWIDTH 16 0
BBX 16 16 0 -2
BITMAP
0820
0820
ffa0
003f
3e61
224b
3e8a
0008
7f08
4108
5d1c
5514
5514
5d36
4122
4363
ENDCHAR
STARTCHAR 02-15-90
ENCODING 12154
SWIDTH 1024 0
DWIDTH 16 0
BBX 16 16 0 -2
BITMAP
0820
4920
4b20
da7f
9441
36d3
6312
c110
2210
a290
b6b8
ab28
662c
5564
cd46
88c3
ENDCHAR
STARTCHAR 02-15-91
ENCODING 12155
SWIDTH 1024 0
DWIDTH 16 0
BBX 16 16 0 -2
BITMAP
0080
1080
10fc
1080
1080
ffff
0100
1ff8
1108
1188
1088
ffff
1108
3108
6108
c038
ENDCHAR
STARTCHAR 02-15-92
ENCODING 12156
SWIDTH 1024 0
DWIDTH 16 0
BBX 16 16 0 -2
BITMAP
1010
11ff
1010
50fe
5010
51ff
5e00
50fe
5082
50fe
5082
50fe
5082
5efe
7044
c183
ENDCHAR
STARTCHAR 02-15-93
ENCODING 12157
SWIDTH 1024 0
DWIDTH 16 0
BBX 16 16 0 -2
BITMAP
0080
0080
00fc
0080
0480
07f8
0c08
1808
7618
0310
01b0
0060
00c0
0380
0e00
1800
ENDCHAR
STARTCHAR 02-15-94
ENCODING 12158
SWIDTH 1024 0
DWIDTH 16 0
BBX 16 16 0 -2
BITMAP
0000
fef8
2088
2088
3c88
258f
6700
4400
75fe
dc82
08c6
186c
1038
3078
60cc
c387
ENDCHAR
STARTCHAR 02-78-01
ENCODING 28193
SWIDTH 1024 0
DWIDTH 16 0
BBX 16 16 0 -2
BITMAP
0000
fbfe
2040
2040
38f0
2810
6b9f
4a91
ea95
3a92
13b6
1029
30e0
2000
67ff
c000
ENDCHAR
STARTCHAR 02-78-02
ENCODING 28194
SWIDTH 1024 0
DWIDTH 16 0
BBX 16 16 0 -2
BITMAP
0020
fc70
20d8
218c
3b07
28f8
6800
4bde
ea52
3a52
13de
1000
3104
2104
638e
c6db
ENDCHAR
STARTCHAR 02-78-03
ENCODING 28195
SWIDTH 1024 0
DWIDTH 16 0
BBX 16 16 0 -2
BITMAP
1000
207c
fe44
8244
8244
fe87
8200
82fe
fe42
0066
8024
863c
fc18
803c
c666
7cc3
ENDCHAR
STARTCHAR 02-78-04
ENCODING 28196
SWIDTH 1024 0
DWIDTH 16 0
BBX 16 16 0 -2
BITMAP
0100
663c
1824
6724
0824
ff47
1000
3e7e
6222
be22
2236
3e1c
2208
221c
2236
2663
ENDCHAR
STARTCHAR 02-78-05
ENCODING 28197
SWIDTH 1024 0
DWIDTH 16 0
BBX 16 16 0 -2
BITMAP
1100
113c
7f24
1224
1624
1447
ff00
147e
2222
7e22
a236
221c
3e08
221c
2236
3e63
ENDCHAR
STARTCHAR 02-78-06
ENCODING 28198
SWIDTH 1024 0
DWIDTH 16 0
BBX 16 16 0 -2
BITMAP
3000
e07c
8e44
8244
ee44
82c7
8380
fe00
92fe
5442
3866
fe2c
1018
543c
d666
92c3
ENDCHAR
STARTCHAR 02-78-07
ENCODING 28199
SWIDTH 1024 0
DWIDTH 16 0
BBX 16 16 0 -2
BITMAP
3020
606e
ceca
aa8a
aa8a
aaea
ee93
aa80
aaff
aa91
aa9b
ea8e
2ee4
298e
689b
c8b1
ENDCHAR
STARTCHAR 02-78-08
ENCODING 28200
SWIDTH 1024 0
DWIDTH 16 0
BBX 16 16 0 -2
BITMAP
7fbc
4824
4f27
5440
7fbe
4a14
5108
7fb6
0000
7ffe
1108
1108
391c
6d36
0100
ffff
ENDCHAR
STARTCHAR 02-78-09
ENCODING 28201
SWIDTH 1024 0
DWIDTH 16 0
BBX 16 16 0 -2
BITMAP
0fc0
1080
fffc
2004
3ffc
1040
1f7d
1043
fffe
0840
7ffc
2104
3ffc
0648
1c41
f03f
ENDCHAR
STARTCHAR 02-78-10
ENCODING 28202
SWIDTH 1024 0
DWIDTH 16 0
BBX 16 16 0 -2
BITMAP
0006
fe1c
44f0
4420
7c20
443e
44e0
4420
7c20
443f
45e0
4420
7c20
c421
0433
041e
ENDCHAR
STARTCHAR 02-78-11
ENCODING 28203
SWIDTH 1024 0
DWIDTH 16 0
BBX 16 16 0 -2
BITMAP
0c0a
3809
e008
21ff
2008
3c49
e049
21fa
204a
3c4c
e0c5
2087
218a
2331
3003
1ffe
ENDCHAR
STARTCHAR 02-78-12
ENCODING 28204
SWIDTH 1024 0
DWIDTH 16 0
BBX 16 16 0 -2
BITMAP
2020
2124
2124
fb66
261b
2070
23c0
200c
39f8
e020
203e
23e0
203f
27e0
2031
601e
ENDCHAR
STARTCHAR 02-78-13
ENCODING 28205
SWIDTH 1024 0
DWIDTH 16 0
BBX 16 16 0 -2
BITMAP
0c80
3880
e1fe
2302
20aa
3caa
e022
20fa
2022
3c72
e0aa
2126
2004
201d
3003
1ffe
ENDCHAR
STARTCHAR 02-78-14
ENCODING 28206
SWIDTH 1024 0
DWIDTH 16 0
BBX 16 16 0 -2
BITMAP
0820
7f20
087f
ffa4
2a18
c967
0000
7fff
4000
41e0
4700
41f8
4f00
41fd
9f03
00fe
ENDCHAR
STARTCHAR 02-78-15
ENCODING 28207
SWIDTH 1024 0
DWIDTH 16 0
BBX 16 16 0 -2
BITMAP
0c20
3bff
e000
21fe
2102
3d7a
e14a
21fe
2084
3cfc
e084
20fc
2000
23fe
3001
1fff
ENDCHAR
STARTCHAR 02-78-16
ENCODING 28208
SWIDTH 1024 0
DWIDTH 16 0
BBX 16 16 0 -2
BITMAP
3f83
249e
3f84
2484
ffe7
aabc
fbe4
aaa4
fbe7
041c
ffe4
9024
3f84
6885
0505
ffe3
ENDCHAR
STARTCHAR 02-78-17
ENCODING 28209
SWIDTH 1024 0
DWIDTH 16 0
BBX 16 16 0 -2
BITMAP
0000
0380
00c0
0040
0000
0700
0180
0080
0000
0040
00c0
0180
0100
0300
0200
0600
ENDCHAR
STARTCHAR 02-78-18
ENCODING 28210
SWIDTH 1024 0
DWIDTH 16 0
BBX 16 16 0 -2
BITMAP
0000
7ffc
0018
0060
0184
fd0c
0518
0db0
09c0
1960
1130
3118
610c
c107
0100
0300
ENDCHAR
STARTCHAR 02-78-19
ENCODING 28211
SWIDTH 1024 0
DWIDTH 16 0
BBX 16 16 0 -2
BITMAP
0100
0100
2104
310c
1918
0930
0120
0500
0de0
1938
710c
c106
0102
0100
0100
0700
ENDCHAR
STARTCHAR 02-78-20
ENCODING 28212
SWIDTH 1024 0
DWIDTH 16 0
BBX 16 16 0 -2
BITMAP
0000
61e0
3020
1020
0020
c020
6020
2020
0070
1050
1050
30d8
2088
618c
4306
c603
ENDCHAR
STARTCHAR 02-78-21
ENCODING 28213
SWIDTH 1024 0
DWIDTH 16 0
BBX 16 16 0 -2
BITMAP
0080
6080
3080
1080
07f8
c088
6088
2088
0088
1088
1088
3188
2108
6309
4609
cc07
ENDCHAR
STARTCHAR 02-78-22
ENCODING 28214
SWIDTH 1024 0
DWIDTH 16 0
BBX 16 16 0 -2
BITMAP
0040
6040
3040
1040
07f8
c048
6048
2348
01c8
10c8
10e8
31a8
2128
6309
4609
cc07
ENDCHAR
STARTCHAR 02-78-23
ENCODING 28215
SWIDTH 1024 0
DWIDTH 16 0
BBX 16 16 0 -2
BITMAP
0000
67f8
3088
1088
0088
c088
6088
23e8
0088
1088
1088
3088
218c
6105
4307
c602
ENDCHAR
STARTCHAR 02-78-24
ENCODING 28216
SWIDTH 1024 0
DWIDTH 16 0
BBX 16 16 0 -2
BITMAP
01e0
6020
3020
13fe
0222
c222
6222
2272
0252
12da
128a
3202
2202
6202
4202
c20e
ENDCHAR
STARTCHAR 02-78-25
ENCODING 28217
SWIDTH 1024 0
DWIDTH 16 0
BBX 16 16 0 -2
BITMAP
0000
63fe
3000
1000
0000
c000
67ff
2080
0080
1080
1188
310c
2104
613e
43e3
c601
ENDCHAR
STARTCHAR 02-78-26
ENCODING 28218
SWIDTH 1024 0
DWIDTH 16 0
BBX 16 16 0 -2
BITMAP
0000
67ff
3401
1401
0401
c0f8
6088
2088
0088
1088
1088
3088
2188
6109
4309
c607
ENDCHAR
STARTCHAR 02-78-27
ENCODING 28219
SWIDTH 1024 0
DWIDTH 16 0
BBX 16 16 0 -2
BITMAP
0040
6040
33f8
1048
00c8
c089
6189
2707
0020
1020
13fe
3020
2020
6020
4020
c020
ENDCHAR
STARTCHAR 02-78-28
ENCODING 28220
SWIDTH 1024 0
DWIDTH 16 0
BBX 16 16 0 -2
BITMAP
0000
67ff
3020
1020
0220
c23e
6222
2222
0222
1222
13fe
3002
2002
6006
4004
c01c
ENDCHAR
STARTCHAR 02-78-29
ENCODING 28221
SWIDTH 1024 0
DWIDTH 16 0
BBX 16 16 0 -2
BITMAP
0100
6100
3100
11ff
0149
c349
6249
2649
00c9
1099
1191
3331
2621
6063
40c2
c00e
ENDCHAR
STARTCHAR 02-78-30
ENCODING 28222
SWIDTH 1024 0
DWIDTH 16 0
BBX 16 16 0 -2
BITMAP
0000
7ffe
0100
0100
ffff
0240
0c30
391c
e107
1918
0d70
0180
07e0
1d38
f10f
0700
ENDCHAR
STARTCHAR 02-78-31
ENCODING 28223
SWIDTH 1024 0
DWIDTH 16 0
BBX 16 16 0 -2
BITMAP
0024
6026
3022
17ff
0020
c020
6124
2124
0124
1124
1124
3325
2225
6627
4020
c020
ENDCHAR
STARTCHAR 02-78-32
ENCODING 28224
SWIDTH 1024 0
DWIDTH 16 0
BBX 16 16 0 -2
BITMAP
0000
63fe
3202
1202
0202
c2fa
628a
228a
028a
128a
12fa
3202
2202
6202
4202
c20e
ENDCHAR
STARTCHAR 02-78-33
ENCODING 28225
SWIDTH 1024 0
DWIDTH 16 0
BBX 16 16 0 -2
BITMAP
0008
6788
3488
1488
05bf
c509
6509
2489
0489
1489
1489
3589
2419
6413
4432
c46e
ENDCHAR
STARTCHAR 02-78-34
ENCODING 28226
SWIDTH 1024 0
DWIDTH 16 0
BBX 16 16 0 -2
BITMAP
0040
6040
3040
17ff
0090
c198
6108
230c
0246
1643
10c0
3084
2184
611e
41f2
c703
ENDCHAR
STARTCHAR 02-78-35
ENCODING 28227
SWIDTH 1024 0
DWIDTH 16 0
BBX 16 16 0 -2
BITMAP
0040
60c0
338f
1249
0249
c249
6249
2249
0249
1249
1249
33c9
264f
6048
40c8
c188
ENDCHAR
STARTCHAR 02-78-36
ENCODING 28228
SWIDTH 1024 0
DWIDTH 16 0
BBX 16 16 0 -2
BITMAP
0110
6110
3110
1510
0513
c5de
6510
2510
0510
1510
1510
3510
2510
6511
45d1
cf0f
ENDCHAR
STARTCHAR 02-78-37
ENCODING 28229
SWIDTH 1024 0
DWIDTH 16 0
BBX 16 16 0 -2
BITMAP
0006
601c
33f0
1210
0210
c210
63ff
2210
0210
1218
1208
33c8
260c
6005
47f7
c002
ENDCHAR
STARTCHAR 02-78-38
ENCODING 28230
SWIDTH 1024 0
DWIDTH 16 0
BBX 16 16 0 -2
BITMAP
0020
6120
3120
1120
01fe
c320
6620
2020
0020
13fe
1020
3020
2020
6020
47ff
c000
ENDCHAR
STARTCHAR 02-78-39
ENCODING 28231
SWIDTH 1024 0
DWIDTH 16 0
BBX 16 16 0 -2
BITMAP
0020
6020
3020
17ff
0401
c401
64f9
2008
0008
1088
1088
3088
218c
6104
4306
c603
ENDCHAR
STARTCHAR 02-78-40
ENCODING 28232
SWIDTH 1024 0
DWIDTH 16 0
BBX 16 16 0 -2
BITMAP
0084
6084
3184
1104
037f
c204
6604
2a44
0264
1224
1204
3204
2204
6204
4204
c21c
ENDCHAR
STARTCHAR 02-78-41
ENCODING 28233
SWIDTH 1024 0
DWIDTH 16 0
BBX 16 16 0 -2
BITMAP
0000
63fc
3044
1044
00c4
c18c
6318
2000
0fdf
1249
1249
3249
2249
6659
44d3
cdb6
ENDCHAR
STARTCHAR 02-78-42
ENCODING 28234
SWIDTH 1024 0
DWIDTH 16 0
BBX 16 16 0 -2
BITMAP
0010
6020
31fe
1102
0162
c132
6112
2102
07ff
1102
1122
3122
2122
6122
4302
c60e
ENDCHAR
STARTCHAR 02-78-43
ENCODING 28235
SWIDTH 1024 0
DWIDTH 16 0
BBX 16 16 0 -2
BITMAP
0040
6040
3040
17ff
0080
c080
61be
2104
0308
1508
117f
3108
2108
6108
4108
c138
ENDCHAR
STARTCHAR 02-78-44
ENCODING 28236
SWIDTH 1024 0
DWIDTH 16 0
BBX 16 16 0 -2
BITMAP
00e0
6030
30d8
118c
0306
c603
61fc
2020
0020
1020
11fc
3020
2020
6020
47ff
c000
ENDCHAR
STARTCHAR 02-78-45
ENCODING 28237
SWIDTH 1024 0
DWIDTH 16 0
BBX 16 16 0 -2
BITMAP
0000
67ff
3020
1060
0040
c3fe
6202
2202
0202
1202
13fe
3202
2202
6202
4202
c3fe
ENDCHAR
STARTCHAR 02-78-46
ENCODING 28238
SWIDTH 1024 0
DWIDTH 16 0
BBX 16 16 0 -2
BITMAP
0040
6040
37ff
1080
0080
c1fe
6302
2d02
01fe
1102
1102
31fe
2102
6102
4102
c10e
ENDCHAR
STARTCHAR 02-78-47
ENCODING 28239
SWIDTH 1024 0
DWIDTH 16 0
BBX 16 16 0 -2
BITMAP
0000
67df
3104
1104
0104
c104
61c4
271f
0104
1104
1104
3104
2304
6204
4604
cc04
ENDCHAR
STARTCHAR 02-78-48
ENCODING 28240
SWIDTH 1024 0
DWIDTH 16 0
BBX 16 16 0 -2
BITMAP
0800
0f7e
f812
0f12
7832
0f22
f866
08cc
0100
0102
7d86
056c
0d30
391c
e107
0700
ENDCHAR
STARTCHAR 02-78-49
ENCODING 28241
SWIDTH 1024 0
DWIDTH 16 0
BBX 16 16 0 -2
BITMAP
0020
6020
33fe
1020
0020
c020
67ff
2000
0020
1020
13fe
3020
2020
6020
47ff
c000
ENDCHAR
STARTCHAR 02-78-50
ENCODING 28242
SWIDTH 1024 0
DWIDTH 16 0
BBX 16 16 0 -2
BITMAP
0060
60f0
3198
130c
06f7
c000
61fc
2004
0008
1010
1020
33fc
2204
6204
4204
c3fc
ENDCHAR
STARTCHAR 02-78-51
ENCODING 28243
SWIDTH 1024 0
DWIDTH 16 0
BBX 16 16 0 -2
BITMAP
0000
63fe
3202
1202
0202
c202
63fe
2020
0020
1120
113e
3120
2320
62a0
4670
cc1f
ENDCHAR
STARTCHAR 02-78-52
ENCODING 28244
SWIDTH 1024 0
DWIDTH 16 0
BBX 16 16 0 -2
BITMAP
0304
61cc
3078
11cc
0706
c040
6fff
2080
0120
13fe
1e22
3222
2222
6222
4226
c020
ENDCHAR
STARTCHAR 02-78-53
ENCODING 28245
SWIDTH 1024 0
DWIDTH 16 0
BBX 16 16 0 -2
BITMAP
0042
61d2
3712
1112
0112
cfd2
6112
2112
0392
1352
1552
3512
2902
6102
4102
c10e
ENDCHAR
STARTCHAR 02-78-54
ENCODING 28246
SWIDTH 1024 0
DWIDTH 16 0
BBX 16 16 0 -2
BITMAP
0000
63fc
3204
1204
03fc
c204
6204
23fc
0204
1204
13fc
3090
2090
6191
4313
ce0e
ENDCHAR
STARTCHAR 02-78-55
ENCODING 28247
SWIDTH 1024 0
DWIDTH 16 0
BBX 16 16 0 -2
BITMAP
0102
6106
310c
17d8
0130
c102
6386
234c
0558
0570
2901
2103
6106
410c
4118
c170
ENDCHAR
STARTCHAR 02-78-56
ENCODING 28248
SWIDTH 1024 0
DWIDTH 16 0
BBX 16 16 0 -2
BITMAP
0000
63fe
3022
1122
0362
c646
60c4
218c
0000
1020
1030
3092
2283
6285
46c4
c47c
ENDCHAR
STARTCHAR 02-78-57
ENCODING 28249
SWIDTH 1024 0
DWIDTH 16 0
BBX 16 16 0 -2
BITMAP
0042
6042
33fe
1044
0048
c7ff
6020
23fc
0088
1310
1c20
33ff
2020
6020
4020
c0e0
ENDCHAR
STARTCHAR 02-78-58
ENCODING 28250
SWIDTH 1024 0
DWIDTH 16 0
BBX 16 16 0 -2
BITMAP
0020
6020
37ff
1020
0020
c3fe
6222
2222
0222
13fe
10a8
30a8
21ac
6326
4623
c020
ENDCHAR
STARTCHAR 02-78-59
ENCODING 28251
SWIDTH 1024 0
DWIDTH 16 0
BBX 16 16 0 -2
BITMAP
0080
6084
3184
113e
07e3
c100
6100
23fe
0620
1020
17ff
3050
20d8
618c
4306
c603
ENDCHAR
STARTCHAR 02-78-60
ENCODING 28252
SWIDTH 1024 0
DWIDTH 16 0
BBX 16 16 0 -2
BITMAP
0000
61fc
3104
1104
01fc
c104
61fc
2000
0000
13fe
1020
3020
2020
6020
47ff
c000
ENDCHAR
STARTCHAR 02-78-61
ENCODING 28253
SWIDTH 1024 0
DWIDTH 16 0
BBX 16 16 0 -2
BITMAP
0040
60c4
3086
11fa
0020
c3ff
6048
2084
0313
1060
1188
3031
21c3
600e
4038
c1e0
ENDCHAR
STARTCHAR 02-78-62
ENCODING 28254
SWIDTH 1024 0
DWIDTH 16 0
BBX 16 16 0 -2
BITMAP
0000
67df
3145
1249
04d3
c145
6659
2000
03fc
1104
118c
30d8
2070
60d8
418c
cf07
ENDCHAR
STARTCHAR 02-78-63
ENCODING 28255
SWIDTH 1024 0
DWIDTH 16 0
BBX 16 16 0 -2
BITMAP
000c
6078
37c0
1080
0080
cfff
6110
231c
0e47
1044
174c
3168
2350
625c
4647
c0c0
ENDCHAR
STARTCHAR 02-78-64
ENCODING 28256
SWIDTH 1024 0
DWIDTH 16 0
BBX 16 16 0 -2
BITMAP
0040
61c0
371f
1111
0111
c7f1
6111
2191
0351
1331
1711
3511
2d1f
6100
4100
c100
ENDCHAR
STARTCHAR 02-78-65
ENCODING 28257
SWIDTH 1024 0
DWIDTH 16 0
BBX 16 16 0 -2
BITMAP
0020
6020
37ff
1401
0401
c1fc
6104
2104
01fc
1100
1100
31fe
2102
6102
4102
c1fe
ENDCHAR
STARTCHAR 02-78-66
ENCODING 28258
SWIDTH 1024 0
DWIDTH 16 0
BBX 16 16 0 -2
BITMAP
0001
67f5
3415
1415
07f5
c445
6445
25f5
0555
1555
1551
3551
2551
6d71
4841
c047
ENDCHAR
STARTCHAR 02-78-67
ENCODING 28259
SWIDTH 1024 0
DWIDTH 16 0
BBX 16 16 0 -2
BITMAP
0020
6020
33fe
1202
0202
c100
61de
2152
0352
1252
17d2
3096
2190
6111
4313
c60e
ENDCHAR
STARTCHAR 02-78-68
ENCODING 28260
SWIDTH 1024 0
DWIDTH 16 0
BBX 16 16 0 -2
BITMAP
0000
61fc
3104
11fc
0104
c104
61fc
2000
03fe
1008
17ff
3108
2188
6088
4008
c038
ENDCHAR
STARTCHAR 02-78-69
ENCODING 28261
SWIDTH 1024 0
DWIDTH 16 0
BBX 16 16 0 -2
BITMAP
0084
618c
3108
17df
0108
c108
6108
21c8
071f
1108
1108
3108
2308
6208
4608
cc08
ENDCHAR
STARTCHAR 02-78-70
ENCODING 28262
SWIDTH 1024 0
DWIDTH 16 0
BBX 16 16 0 -2
BITMAP
0000
63fe
3202
1202
03fe
c200
6210
2292
0292
12fe
1210
3210
2292
6692
4492
ccfe
ENDCHAR
STARTCHAR 02-78-71
ENCODING 28263
SWIDTH 1024 0
DWIDTH 16 0
BBX 16 16 0 -2
BITMAP
0020
6020
37ff
1020
03fe
c050
67ff
2088
0124
1623
11fc
3020
27ff
6020
4020
c020
ENDCHAR
STARTCHAR 02-78-72
ENCODING 28264
SWIDTH 1024 0
DWIDTH 16 0
BBX 16 16 0 -2
BITMAP
0000
61fc
3104
11fc
0104
c104
61fc
2000
03fe
1020
1020
37ff
2050
60d8
418c
c707
ENDCHAR
STARTCHAR 02-78-73
ENCODING 28265
SWIDTH 1024 0
DWIDTH 16 0
BBX 16 16 0 -2
BITMAP
0000
61fe
3102
1102
01fe
c102
6102
21fe
0000
13ff
1201
3201
23ff
6201
4201
c3ff
ENDCHAR
STARTCHAR 02-78-74
ENCODING 28266
SWIDTH 1024 0
DWIDTH 16 0
BBX 16 16 0 -2
BITMAP
0090
6090
3090
17fe
0492
c492
6492
27fe
0492
1492
1492
3fff
2000
6108
430c
c606
ENDCHAR
STARTCHAR 02-78-75
ENCODING 28267
SWIDTH 1024 0
DWIDTH 16 0
BBX 16 16 0 -2
BITMAP
0020
6020
33fe
1020
07ff
c088
6188
230f
0040
107c
10c4
318c
2358
6070
40dc
c787
ENDCHAR
STARTCHAR 02-78-76
ENCODING 28268
SWIDTH 1024 0
DWIDTH 16 0
BBX 16 16 0 -2
BITMAP
0020
6020
37ff
1020
0124
c124
6124
23ae
02aa
1673
1070
30a8
21ac
6326
4623
c020
ENDCHAR
STARTCHAR 02-78-77
ENCODING 28269
SWIDTH 1024 0
DWIDTH 16 0
BBX 16 16 0 -2
BITMAP
0088
6088
37ff
1088
0088
c020
63fe
2222
0222
1222
17ff
3050
20d8
618c
4306
c603
ENDCHAR
STARTCHAR 02-78-78
ENCODING 28270
SWIDTH 1024 0
DWIDTH 16 0
BBX 16 16 0 -2
BITMAP
0104
618c
3088
17ff
0020
c040
63fe
2202
0202
13fe
1202
3202
23fe
6202
4202
c3fe
ENDCHAR
STARTCHAR 02-78-79
ENCODING 28271
SWIDTH 1024 0
DWIDTH 16 0
BBX 16 16 0 -2
BITMAP
0000
67fc
3404
1434
05e4
c444
65f4
2554
0554
15f4
1444
3444
2454
6475
45d5
c803
ENDCHAR
STARTCHAR 02-78-80
ENCODING 28272
SWIDTH 1024 0
DWIDTH 16 0
BBX 16 16 0 -2
BITMAP
0020
6020
37ff
1104
018c
c088
67ff
2421
0421
13fe
1222
3222
2222
6226
4020
c020
ENDCHAR
STARTCHAR 02-78-81
ENCODING 28273
SWIDTH 1024 0
DWIDTH 16 0
BBX 16 16 0 -2
BITMAP
0020
6020
37ff
1482
04c6
c444
67ff
2410
0492
1492
1492
34fe
2410
6430
4c60
d8c0
ENDCHAR
STARTCHAR 02-78-82
ENCODING 28274
SWIDTH 1024 0
DWIDTH 16 0
BBX 16 16 0 -2
BITMAP
0020
6020
37ff
1401
05fd
c000
61fc
2104
0104
11fc
1104
3104
21fc
6000
47ff
c000
ENDCHAR
STARTCHAR 02-78-83
ENCODING 28275
SWIDTH 1024 0
DWIDTH 16 0
BBX 16 16 0 -2
BITMAP
0104
6088
33fe
1020
0020
c3fe
6020
2020
07ff
1000
1020
37ff
2050
60d8
418c
c707
ENDCHAR
STARTCHAR 02-78-84
ENCODING 28276
SWIDTH 1024 0
DWIDTH 16 0
BBX 16 16 0 -2
BITMAP
0104
6104
37ff
1104
01fc
c104
6104
21fc
0020
17ff
10a8
31ac
2124
6326
4623
c020
ENDCHAR
STARTCHAR 02-78-85
ENCODING 28277
SWIDTH 1024 0
DWIDTH 16 0
BBX 16 16 0 -2
BITMAP
0106
610c
3138
1508
0588
c548
6d7f
2908
0108
1108
113e
3122
2122
6122
4122
c13e
ENDCHAR
STARTCHAR 02-78-86
ENCODING 28278
SWIDTH 1024 0
DWIDTH 16 0
BBX 16 16 0 -2
BITMAP
0040
63fc
3084
1084
07ff
c000
63fc
2204
03fc
1010
17fe
3210
2210
63ff
4010
c010
ENDCHAR
STARTCHAR 02-78-87
ENCODING 28279
SWIDTH 1024 0
DWIDTH 16 0
BBX 16 16 0 -2
BITMAP
0020
6070
30d8
118c
0777
c000
61fc
2104
01fc
1104
11fd
3123
2136
6118
41ec
c707
ENDCHAR
STARTCHAR 02-78-88
ENCODING 28280
SWIDTH 1024 0
DWIDTH 16 0
BBX 16 16 0 -2
BITMAP
0000
67ff
3040
13fe
0202
c202
63fe
2202
0202
13fe
1202
3202
23fe
6104
4306
c603
ENDCHAR
STARTCHAR 02-78-89
ENCODING 28281
SWIDTH 1024 0
DWIDTH 16 0
BBX 16 16 0 -2
BITMAP
0000
6fff
3041
127a
0240
c740
6cff
2000
03fc
1204
13fc
3204
23fc
6204
4204
c21c
ENDCHAR
STARTCHAR 02-78-90
ENCODING 28282
SWIDTH 1024 0
DWIDTH 16 0
BBX 16 16 0 -2
BITMAP
0078
610c
3306
1603
01fc
c044
60c4
2184
031c
1000
13fe
3292
2292
6292
47ff
c000
ENDCHAR
STARTCHAR 02-78-91
ENCODING 28283
SWIDTH 1024 0
DWIDTH 16 0
BBX 16 16 0 -2
BITMAP
0104
618c
3088
17ff
0000
c3c2
6252
2252
0352
12d2
1252
3352
22c2
6242
4242
c2ce
ENDCHAR
STARTCHAR 02-78-92
ENCODING 28284
SWIDTH 1024 0
DWIDTH 16 0
BBX 16 16 0 -2
BITMAP
0102
6102
37c2
1102
011f
cfe2
6002
2112
011a
17ca
1102
3102
2102
61c2
4702
cc0e
ENDCHAR
STARTCHAR 02-78-93
ENCODING 28285
SWIDTH 1024 0
DWIDTH 16 0
BBX 16 16 0 -2
BITMAP
03fe
6202
3202
13fe
0210
c210
63ff
2208
0209
1385
1603
33fe
2202
63fe
4202
c3fe
ENDCHAR
STARTCHAR 02-78-94
ENCODING 28286
SWIDTH 1024 0
DWIDTH 16 0
BBX 16 16 0 -2
BITMAP
0006
603c
33e0
1000
0242
c366
6124
2000
027e
1242
1242
327e
2242
6242
4242
c27e
ENDCHAR
STARTCHAR 02-79-01
ENCODING 28449
SWIDTH 1024 0
DWIDTH 16 0
BBX 16 16 0 -2
BITMAP
0044
6088
37ff
1090
03fe
c092
6092
27ff
0092
1092
13fe
3198
2294
6696
4c93
c090
ENDCHAR
STARTCHAR 02-79-02
ENCODING 28450
SWIDTH 1024 0
DWIDTH 16 0
BBX 16 16 0 -2
BITMAP
0000
67ff
3090
1090
03fe
c292
6292
23fe
0020
17ff
10a8
31ac
2124
6326
4623
c020
ENDCHAR
STARTCHAR 02-79-03
ENCODING 28451
SWIDTH 1024 0
DWIDTH 16 0
BBX 16 16 0 -2
BITMAP
0040
6080
33fc
1204
03fc
c204
63fc
2204
03fc
1048
1044
37ff
2090
6198
430c
ce07
ENDCHAR
STARTCHAR 02-79-04
ENCODING 28452
SWIDTH 1024 0
DWIDTH 16 0
BBX 16 16 0 -2
BITMAP
0008
6faa
3aab
0ae9
0a88
cabe
6f88
2a88
0a88
2aff
2a88
2a88
6f88
4008
4008
c008
ENDCHAR
STARTCHAR 02-79-05
ENCODING 28453
SWIDTH 1024 0
DWIDTH 16 0
BBX 16 16 0 -2
BITMAP
0078
610c
3306
1643
00c8
c19c
63e6
2000
07de
10c6
114a
3252
20c6
614a
4252
c0c6
ENDCHAR
STARTCHAR 02-79-06
ENCODING 28454
SWIDTH 1024 0
DWIDTH 16 0
BBX 16 16 0 -2
BITMAP
0200
6200
37fe
1400
0df8
c000
67fc
2084
0494
12a4
1ffc
31c4
22a5
66b5
4c9b
c081
ENDCHAR
STARTCHAR 02-79-07
ENCODING 28455
SWIDTH 1024 0
DWIDTH 16 0
BBX 16 16 0 -2
BITMAP
0000
67ff
3400
1444
0448
c4fe
6590
24fc
0490
14fc
1490
3490
24fe
6400
47ff
c000
ENDCHAR
STARTCHAR 02-79-08
ENCODING 28456
SWIDTH 1024 0
DWIDTH 16 0
BBX 16 16 0 -2
BITMAP
0108
6108
3388
16df
0452
cff2
692a
210a
0fee
0104
2544
254e
6d4a
495a
4913
c333
ENDCHAR
STARTCHAR 02-79-09
ENCODING 28457
SWIDTH 1024 0
DWIDTH 16 0
BBX 16 16 0 -2
BITMAP
0120
6120
337f
12c2
0626
c51c
6d76
35c3
057e
0542
257e
2542
657e
4442
4442
c446
ENDCHAR
STARTCHAR 02-79-10
ENCODING 28458
SWIDTH 1024 0
DWIDTH 16 0
BBX 16 16 0 -2
BITMAP
0020
603e
3020
13ff
0221
c2fc
6221
221f
0202
12fc
1292
3254
27ff
6410
4c10
c070
ENDCHAR
STARTCHAR 02-79-11
ENCODING 28459
SWIDTH 1024 0
DWIDTH 16 0
BBX 16 16 0 -2
BITMAP
0020
6020
37ff
1088
0070
c088
67ff
2400
0490
14fe
1510
3410
24fe
6410
4810
c1ff
ENDCHAR
STARTCHAR 02-79-12
ENCODING 28460
SWIDTH 1024 0
DWIDTH 16 0
BBX 16 16 0 -2
BITMAP
0020
63fe
3222
17ff
0222
c3fe
6020
23fe
0222
13fe
1040
37ff
2084
61c8
4078
c3ce
ENDCHAR
STARTCHAR 02-79-13
ENCODING 28461
SWIDTH 1024 0
DWIDTH 16 0
BBX 16 16 0 -2
BITMAP
0088
6088
37ff
1088
00f8
c020
63fe
2222
0222
13fe
1020
33fe
2020
63fe
4020
c7ff
ENDCHAR
STARTCHAR 02-79-14
ENCODING 28462
SWIDTH 1024 0
DWIDTH 16 0
BBX 16 16 0 -2
BITMAP
03ff
6200
32fe
1200
03ff
c24a
624c
2276
03c3
12fe
1282
32fe
2682
64fe
4c82
c086
ENDCHAR
STARTCHAR 02-79-15
ENCODING 28463
SWIDTH 1024 0
DWIDTH 16 0
BBX 16 16 0 -2
BITMAP
0020
6020
33fe
1252
0252
c79f
6000
2020
03fe
1020
17ff
3000
2020
63fe
4020
c7ff
ENDCHAR
STARTCHAR 02-79-16
ENCODING 28464
SWIDTH 1024 0
DWIDTH 16 0
BBX 16 16 0 -2
BITMAP
0020
63fe
3222
1222
03fe
c020
63fe
2222
0222
13fe
1020
3040
2566
6523
4d09
c8f8
ENDCHAR
STARTCHAR 02-79-17
ENCODING 28465
SWIDTH 1024 0
DWIDTH 16 0
BBX 16 16 0 -2
BITMAP
0020
6222
3222
13fe
0110
c120
63fe
2220
0620
2bfe
2220
2220
63fe
4220
4220
c3ff
ENDCHAR
STARTCHAR 02-79-18
ENCODING 28466
SWIDTH 1024 0
DWIDTH 16 0
BBX 16 16 0 -2
BITMAP
0020
6020
37ff
1104
0088
c7ff
6000
23fe
0202
13fe
1202
33fe
2202
63fe
4109
ce07
ENDCHAR
STARTCHAR 02-79-19
ENCODING 28467
SWIDTH 1024 0
DWIDTH 16 0
BBX 16 16 0 -2
BITMAP
0100
61fc
3308
1210
07fe
c222
6222
23fe
0020
10c2
1326
30d4
2338
60d4
4713
c070
ENDCHAR
STARTCHAR 02-79-20
ENCODING 28468
SWIDTH 1024 0
DWIDTH 16 0
BBX 16 16 0 -2
BITMAP
0108
6110
33fe
1620
03fc
c220
63fc
2220
03fe
1020
17ff
30a8
21ac
6326
4623
c020
ENDCHAR
STARTCHAR 02-79-21
ENCODING 28469
SWIDTH 1024 0
DWIDTH 16 0
BBX 16 16 0 -2
BITMAP
0020
63fe
3022
17ff
0022
c3fe
6020
22aa
03ae
1222
13fe
3222
23ae
66aa
44aa
cc22
ENDCHAR
STARTCHAR 02-79-22
ENCODING 28470
SWIDTH 1024 0
DWIDTH 16 0
BBX 16 16 0 -2
BITMAP
0000
67df
3451
17df
0410
c451
63cf
2000
0088
13fe
1088
3088
27ff
6088
418c
c707
ENDCHAR
STARTCHAR 02-79-23
ENCODING 28471
SWIDTH 1024 0
DWIDTH 16 0
BBX 16 16 0 -2
BITMAP
0020
6040
37fe
1492
0492
cfff
6030
23e2
0156
1354
1658
30c8
21cc
6346
4e43
c040
ENDCHAR
STARTCHAR 02-79-24
ENCODING 28472
SWIDTH 1024 0
DWIDTH 16 0
BBX 16 16 0 -2
BITMAP
0104
6104
37df
1104
038e
c34d
6555
2924
0104
1000
13fc
3204
23fc
6204
4204
c3fc
ENDCHAR
STARTCHAR 02-79-25
ENCODING 28473
SWIDTH 1024 0
DWIDTH 16 0
BBX 16 16 0 -2
BITMAP
0108
6198
3090
17fe
0090
c492
6696
2294
0fff
1000
13fc
3204
23fc
6204
4204
c3fc
ENDCHAR
STARTCHAR 02-79-26
ENCODING 28474
SWIDTH 1024 0
DWIDTH 16 0
BBX 16 16 0 -2
BITMAP
0000
63fe
3020
17ff
0421
c5ad
6421
21ac
0000
13fe
1000
37ff
2080
6184
413e
c3e3
ENDCHAR
STARTCHAR 02-79-27
ENCODING 28475
SWIDTH 1024 0
DWIDTH 16 0
BBX 16 16 0 -2
BITMAP
0000
67df
3451
17df
0451
c7df
6401
2421
05fd
1421
1471
3471
24a9
6525
4421
c407
ENDCHAR
STARTCHAR 02-79-28
ENCODING 28476
SWIDTH 1024 0
DWIDTH 16 0
BBX 16 16 0 -2
BITMAP
0010
6410
36fe
1210
01ff
c444
6628
22fe
0010
16fe
1210
33ff
2210
6610
4500
ccff
ENDCHAR
STARTCHAR 02-79-29
ENCODING 28477
SWIDTH 1024 0
DWIDTH 16 0
BBX 16 16 0 -2
BITMAP
0020
67ff
3000
11fc
0104
c174
6154
2174
0104
11fc
1002
33fc
2020
67ff
40a8
c727
ENDCHAR
STARTCHAR 02-79-30
ENCODING 28478
SWIDTH 1024 0
DWIDTH 16 0
BBX 16 16 0 -2
BITMAP
0200
63ff
3649
1c89
07d9
c577
6540
27c4
0554
155f
17e4
3444
247f
6444
4444
c8c4
ENDCHAR
STARTCHAR 02-79-31
ENCODING 28479
SWIDTH 1024 0
DWIDTH 16 0
BBX 16 16 0 -2
BITMAP
0100
61de
3102
13d4
0648
cd54
60a3
2300
0d24
10a8
17ff
30a8
21ac
6326
4623
c020
ENDCHAR
STARTCHAR 02-79-32
ENCODING 28480
SWIDTH 1024 0
DWIDTH 16 0
BBX 16 16 0 -2
BITMAP
07df
6145
3249
14d3
0145
c659
6020
23fe
0124
1124
12aa
34f9
2050
60d8
418c
c707
ENDCHAR
STARTCHAR 02-79-33
ENCODING 28481
SWIDTH 1024 0
DWIDTH 16 0
BBX 16 16 0 -2
BITMAP
0103
411e
6ff0
2450
06d0
829f
cff2
4112
0112
2ff2
2112
2392
6552
4912
4122
c102
ENDCHAR
STARTCHAR 02-79-34
ENCODING 28482
SWIDTH 1024 0
DWIDTH 16 0
BBX 16 16 0 -2
BITMAP
0014
4f16
6912
2910
0f1f
8070
df92
4912
0f16
2914
2f1c
2908
6f1c
5915
4137
c162
ENDCHAR
STARTCHAR 02-79-35
ENCODING 28483
SWIDTH 1024 0
DWIDTH 16 0
BBX 16 16 0 -2
BITMAP
0012
6792
34a4
14bf
04e4
c7a4
64a4
24bf
04a4
17a4
14a4
34bf
24a4
64a4
47a4
c03f
ENDCHAR
STARTCHAR 02-79-36
ENCODING 28484
SWIDTH 1024 0
DWIDTH 16 0
BBX 16 16 0 -2
BITMAP
0104
6555
3555
128a
0451
c000
63fe
2202
0020
17ff
10a8
30a8
21ac
6326
4623
c020
ENDCHAR
STARTCHAR 02-79-37
ENCODING 28485
SWIDTH 1024 0
DWIDTH 16 0
BBX 16 16 0 -2
BITMAP
0020
61fc
3104
11fc
0104
c1fc
6104
23fe
0222
13fe
1222
33fe
2000
67ff
4104
c204
ENDCHAR
STARTCHAR 02-79-38
ENCODING 28486
SWIDTH 1024 0
DWIDTH 16 0
BBX 16 16 0 -2
BITMAP
0088
67ff
3088
1110
03ff
c620
6bfe
2220
03fe
1220
13ff
3000
27fe
608c
4070
c78f
ENDCHAR
STARTCHAR 02-79-39
ENCODING 28487
SWIDTH 1024 0
DWIDTH 16 0
BBX 16 16 0 -2
BITMAP
0001
67c3
3446
17cc
0458
c7c1
6103
2fe6
000c
17d8
1440
37c1
2103
6546
492c
c318
ENDCHAR
STARTCHAR 02-79-40
ENCODING 28488
SWIDTH 1024 0
DWIDTH 16 0
BBX 16 16 0 -2
BITMAP
0222
6646
3474
1555
0252
c272
6454
2555
0777
1020
17ff
30a8
21ac
6326
4623
c020
ENDCHAR
STARTCHAR 02-79-41
ENCODING 28489
SWIDTH 1024 0
DWIDTH 16 0
BBX 16 16 0 -2
BITMAP
07ff
6020
31fc
1104
01fc
c104
67ff
2421
0292
1285
147c
3080
21fc
6684
4078
c787
ENDCHAR
STARTCHAR 02-79-42
ENCODING 28490
SWIDTH 1024 0
DWIDTH 16 0
BBX 16 16 0 -2
BITMAP
0020
67ff
3448
15fe
0448
c478
6400
27ff
0420
15fe
1522
35fe
2d22
69fe
5884
c303
ENDCHAR
STARTCHAR 02-79-43
ENCODING 28491
SWIDTH 1024 0
DWIDTH 16 0
BBX 16 16 0 -2
BITMAP
0200
cfbc
68a4
0aa7
1fc0
c8be
6a92
0a94
0888
33b7
2000
27fc
6524
4524
5fff
c000
ENDCHAR
STARTCHAR 02-79-44
ENCODING 28492
SWIDTH 1024 0
DWIDTH 16 0
BBX 16 16 0 -2
BITMAP
0100
61de
3102
13d4
0248
c554
60a3
2300
0050
13de
1050
33de
2050
63de
4050
c7ff
ENDCHAR
STARTCHAR 02-79-45
ENCODING 28493
SWIDTH 1024 0
DWIDTH 16 0
BBX 16 16 0 -2
BITMAP
0f9f
c891
6f9f
0891
0f9f
c801
6b0d
09b9
0811
2b7d
2911
283d
68a5
4925
4b3d
c803
ENDCHAR
STARTCHAR 02-79-46
ENCODING 28494
SWIDTH 1024 0
DWIDTH 16 0
BBX 16 16 0 -2
BITMAP
0020
6070
31dc
1707
00f8
c000
6777
2555
0777
1000
13fe
3292
23fe
6292
4292
c296
ENDCHAR
STARTCHAR 02-79-47
ENCODING 28495
SWIDTH 1024 0
DWIDTH 16 0
BBX 16 16 0 -2
BITMAP
0078
6090
37fe
1202
03fe
c110
61de
2111
07ff
1088
17fe
3222
23fe
6094
4191
c30f
ENDCHAR
STARTCHAR 02-79-48
ENCODING 28496
SWIDTH 1024 0
DWIDTH 16 0
BBX 16 16 0 -2
BITMAP
0020
67ff
3000
13de
0252
c3de
6088
23fe
0088
13fe
1088
37ff
20c8
638a
40e4
c383
ENDCHAR
STARTCHAR 02-79-49
ENCODING 28497
SWIDTH 1024 0
DWIDTH 16 0
BBX 16 16 0 -2
BITMAP
1249
d75d
7249
175d
1249
d75d
7249
1fff
0000
2ffe
2000
27fc
6404
47fc
4110
dfff
ENDCHAR
STARTCHAR 02-79-50
ENCODING 28498
SWIDTH 1024 0
DWIDTH 16 0
BBX 16 16 0 -2
BITMAP
0492
6294
3fff
1108
07fe
c040
63fc
2040
0fff
1480
17be
3492
2794
6488
4f94
c0a3
ENDCHAR
STARTCHAR 02-79-51
ENCODING 28499
SWIDTH 1024 0
DWIDTH 16 0
BBX 16 16 0 -2
BITMAP
0020
67ff
3490
17fe
0492
c7fe
6500
25ff
0401
1555
1623
35fc
2420
67fe
4884
c1fa
ENDCHAR
STARTCHAR 02-79-52
ENCODING 28500
SWIDTH 1024 0
DWIDTH 16 0
BBX 16 16 0 -2
BITMAP
07ff
6090
37ff
1491
07ff
c240
67ef
2249
03c9
110f
17e9
3529
27ef
6109
47e9
c113
ENDCHAR
STARTCHAR 02-79-53
ENCODING 28501
SWIDTH 1024 0
DWIDTH 16 0
BBX 16 16 0 -2
BITMAP
0280
4fe7
6aa9
2ff2
0aa4
8fff
c015
4ff5
0015
27df
2450
2450
67d0
4291
43f1
ce0f
ENDCHAR
STARTCHAR 02-79-54
ENCODING 28502
SWIDTH 1024 0
DWIDTH 16 0
BBX 16 16 0 -2
BITMAP
0100
0ff0
0810
0ff0
0106
7dcc
1930
e30f
1010
7e7e
4242
7e7e
1111
f6f6
3c3c
d2d3
ENDCHAR
STARTCHAR 02-79-55
ENCODING 28503
SWIDTH 1024 0
DWIDTH 16 0
BBX 16 16 0 -2
BITMAP
1548
5fc8
757f
3fc8
1548
9fff
d550
5fd2
003d
3fc0
207f
2f55
6955
4f55
4555
dfff
ENDCHAR
STARTCHAR 02-79-56
ENCODING 28504
SWIDTH 1024 0
DWIDTH 16 0
BBX 16 16 0 -2
BITMAP
0000
0000
0000
0000
0000
0000
2488
24cc
6666
c223
0000
0000
0000
0000
0000
0000
ENDCHAR
STARTCHAR 02-79-57
ENCODING 28505
SWIDTH 1024 0
DWIDTH 16 0
BBX 16 16 0 -2
BITMAP
0100
1104
138c
3298
26c0
0c60
3838
e44f
0440
0440
0440
0c40
0840
1841
3063
e03e
ENDCHAR
STARTCHAR 02-79-58
ENCODING 28506
SWIDTH 1024 0
DWIDTH 16 0
BBX 16 16 0 -2
BITMAP
1010
1010
1210
5210
5610
54fe
d410
9010
1010
1010
3810
2810
2c10
6610
41ff
c000
ENDCHAR
STARTCHAR 02-79-59
ENCODING 28507
SWIDTH 1024 0
DWIDTH 16 0
BBX 16 16 0 -2
BITMAP
0100
0100
7ffe
4002
4002
0100
0104
110c
1118
3380
2280
06c0
0460
0c30
381c
e007
ENDCHAR
STARTCHAR 02-79-60
ENCODING 28508
SWIDTH 1024 0
DWIDTH 16 0
BBX 16 16 0 -2
BITMAP
0000
1ffe
1040
1040
1040
ffff
0080
0180
0340
0641
1c63
f03e
0000
2444
6666
c223
ENDCHAR
STARTCHAR 02-79-61
ENCODING 28509
SWIDTH 1024 0
DWIDTH 16 0
BBX 16 16 0 -2
BITMAP
1010
1010
1010
15ff
5444
5444
d044
90ec
10a8
1138
3810
2838
2c28
646c
40c6
c183
ENDCHAR
STARTCHAR 02-79-62
ENCODING 28510
SWIDTH 1024 0
DWIDTH 16 0
BBX 16 16 0 -2
BITMAP
1010
1010
1010
15ff
5400
5400
d07c
9044
1044
1044
3844
2844
2cc4
6485
4185
c303
ENDCHAR
STARTCHAR 02-79-63
ENCODING 28511
SWIDTH 1024 0
DWIDTH 16 0
BBX 16 16 0 -2
BITMAP
0820
0820
ffff
0820
0820
0fe0
0100
0100
1104
110c
3398
2280
06c0
0c60
3838
e00f
ENDCHAR
STARTCHAR 02-79-64
ENCODING 28512
SWIDTH 1024 0
DWIDTH 16 0
BBX 16 16 0 -2
BITMAP
1000
11ff
1020
1420
5420
5460
d040
907e
10c2
10c2
3942
2842
2c42
6642
4042
c07e
ENDCHAR
STARTCHAR 02-79-65
ENCODING 28513
SWIDTH 1024 0
DWIDTH 16 0
BBX 16 16 0 -2
BITMAP
1000
11fe
1102
1502
5502
55f2
d112
9112
1112
1112
39f2
2902
2d02
6502
41fe
c000
ENDCHAR
STARTCHAR 02-79-66
ENCODING 28514
SWIDTH 1024 0
DWIDTH 16 0
BBX 16 16 0 -2
BITMAP
1000
10fc
1084
1484
5484
5484
d0fc
9084
1084
1084
3884
28fc
2c00
6400
41ff
c000
ENDCHAR
STARTCHAR 02-79-67
ENCODING 28515
SWIDTH 1024 0
DWIDTH 16 0
BBX 16 16 0 -2
BITMAP
0400
0c18
080c
1ffe
7002
0000
1ff8
1008
1008
1ff8
0100
338c
66d8
0c60
3838
e00f
ENDCHAR
STARTCHAR 02-79-68
ENCODING 28516
SWIDTH 1024 0
DWIDTH 16 0
BBX 16 16 0 -2
BITMAP
0000
0810
2b52
6e56
4894
1c38
362c
6266
0000
ffff
8001
8001
8001
0000
0000
0000
ENDCHAR
STARTCHAR 02-79-69
ENCODING 28517
SWIDTH 1024 0
DWIDTH 16 0
BBX 16 16 0 -2
BITMAP
1000
10fe
1082
1482
5482
54fe
d088
908c
1184
1166
3b3a
2a0b
2cc0
6470
4018
c008
ENDCHAR
STARTCHAR 02-79-70
ENCODING 28518
SWIDTH 1024 0
DWIDTH 16 0
BBX 16 16 0 -2
BITMAP
1082
10c6
1044
15ff
5410
5410
d010
90fe
1010
1010
3810
29ff
2c10
6410
4010
c010
ENDCHAR
STARTCHAR 02-79-71
ENCODING 28519
SWIDTH 1024 0
DWIDTH 16 0
BBX 16 16 0 -2
BITMAP
1028
1028
1129
15ab
54ae
5428
d028
9028
102e
10eb
39a9
2828
2c68
6449
40c9
c187
ENDCHAR
STARTCHAR 02-79-72
ENCODING 28520
SWIDTH 1024 0
DWIDTH 16 0
BBX 16 16 0 -2
BITMAP
1010
1010
10fe
1410
5410
5410
d1ff
9000
1010
1010
38fe
2c10
2410
6010
43ff
c000
ENDCHAR
STARTCHAR 02-79-73
ENCODING 28521
SWIDTH 1024 0
DWIDTH 16 0
BBX 16 16 0 -2
BITMAP
1000
13fe
1000
1400
55fc
5504
d104
91fc
1104
1104
3904
2dfc
2400
6000
47ff
c000
ENDCHAR
STARTCHAR 02-79-74
ENCODING 28522
SWIDTH 1024 0
DWIDTH 16 0
BBX 16 16 0 -2
BITMAP
1010
1010
10fe
1210
5610
5410
d1ff
9048
114a
114a
3b4b
2a49
2c48
64c8
4088
c198
ENDCHAR
STARTCHAR 02-79-75
ENCODING 28523
SWIDTH 1024 0
DWIDTH 16 0
BBX 16 16 0 -2
BITMAP
0000
3ffc
0204
ffff
0204
3ffc
0400
0ffc
3804
e804
0804
0ffc
0000
2444
6666
c223
ENDCHAR
STARTCHAR 02-79-76
ENCODING 28524
SWIDTH 1024 0
DWIDTH 16 0
BBX 16 16 0 -2
BITMAP
1000
10fe
1082
1282
56fe
5400
d0fe
9082
1082
10fe
3882
2882
2cfe
6482
4082
c08e
ENDCHAR
STARTCHAR 02-79-77
ENCODING 28525
SWIDTH 1024 0
DWIDTH 16 0
BBX 16 16 0 -2
BITMAP
1010
1092
1193
1511
5410
54fe
d082
9082
10fe
1082
3882
28fe
2c82
6482
4082
c08e
ENDCHAR
STARTCHAR 02-79-78
ENCODING 28526
SWIDTH 1024 0
DWIDTH 16 0
BBX 16 16 0 -2
BITMAP
0e00
787e
4042
7e42
427e
4240
7e41
403f
c100
9104
138c
3298
26c0
0c60
3838
e00f
ENDCHAR
STARTCHAR 02-79-79
ENCODING 28527
SWIDTH 1024 0
DWIDTH 16 0
BBX 16 16 0 -2
BITMAP
1040
10c4
1084
15fe
544a
5448
d08f
9140
107c
10c4
398c
2858
2c30
6478
40cc
c387
ENDCHAR
STARTCHAR 02-79-80
ENCODING 28528
SWIDTH 1024 0
DWIDTH 16 0
BBX 16 16 0 -2
BITMAP
0810
2952
2a54
0810
1428
2244
0000
7ff0
0010
0410
0410
3fd0
0410
0411
041b
040e
ENDCHAR
STARTCHAR 02-79-81
ENCODING 28529
SWIDTH 1024 0
DWIDTH 16 0
BBX 16 16 0 -2
BITMAP
1010
1010
101f
1210
56fe
5482
d082
90fe
1082
1082
38fe
2810
2dff
6410
4010
c010
ENDCHAR
STARTCHAR 02-79-82
ENCODING 28530
SWIDTH 1024 0
DWIDTH 16 0
BBX 16 16 0 -2
BITMAP
0100
1104
110c
3398
22c0
0660
1c38
700e
0810
2b52
6e56
4894
1c38
362c
6266
c0c3
ENDCHAR
STARTCHAR 02-79-83
ENCODING 28531
SWIDTH 1024 0
DWIDTH 16 0
BBX 16 16 0 -2
BITMAP
1044
1044
11ff
1444
5444
5410
d0fe
9092
1092
1092
39ff
2c28
246c
6044
40c6
c183
ENDCHAR
STARTCHAR 02-79-84
ENCODING 28532
SWIDTH 1024 0
DWIDTH 16 0
BBX 16 16 0 -2
BITMAP
1010
1010
11ff
1501
557d
5400
d07c
9044
1044
107c
3844
2844
2c7c
6400
41ff
c000
ENDCHAR
STARTCHAR 02-79-85
ENCODING 28533
SWIDTH 1024 0
DWIDTH 16 0
BBX 16 16 0 -2
BITMAP
1010
1111
1111
1511
55ff
5400
d1ff
9010
1020
11ff
3949
2949
2d49
6549
4149
c14b
ENDCHAR
STARTCHAR 02-79-86
ENCODING 28534
SWIDTH 1024 0
DWIDTH 16 0
BBX 16 16 0 -2
BITMAP
1010
3f10
621f
c432
0822
7f66
0114
011c
ff88
011c
0136
7f63
0000
2444
6666
c223
ENDCHAR
STARTCHAR 02-79-87
ENCODING 28535
SWIDTH 1024 0
DWIDTH 16 0
BBX 16 16 0 -2
BITMAP
1006
103c
11e0
1400
5522
55b6
d094
9000
113e
1122
3922
293e
2d22
6522
4122
c13e
ENDCHAR
STARTCHAR 02-79-88
ENCODING 28536
SWIDTH 1024 0
DWIDTH 16 0
BBX 16 16 0 -2
BITMAP
1006
103c
11e4
1526
5532
5513
d201
9060
11ce
1102
3902
29ce
2d02
6502
4102
c1fe
ENDCHAR
STARTCHAR 02-79-89
ENCODING 28537
SWIDTH 1024 0
DWIDTH 16 0
BBX 16 16 0 -2
BITMAP
2000
21fc
2104
29fc
a904
a9fc
a020
a222
2326
2124
27ff
7088
5988
4909
c309
8607
ENDCHAR
STARTCHAR 02-79-90
ENCODING 28538
SWIDTH 1024 0
DWIDTH 16 0
BBX 16 16 0 -2
BITMAP
2000
23ff
2048
2bff
aa49
b249
a3ff
a000
21fe
2000
23ff
7020
5924
4b26
c623
80e0
ENDCHAR
STARTCHAR 02-79-91
ENCODING 28539
SWIDTH 1024 0
DWIDTH 16 0
BBX 16 16 0 -2
BITMAP
2000
27df
2145
2a49
a8c3
a945
a249
a020
2040
21fe
2102
7102
51fe
5902
c902
81fe
ENDCHAR
STARTCHAR 02-79-92
ENCODING 28540
SWIDTH 1024 0
DWIDTH 16 0
BBX 16 16 0 -2
BITMAP
2210
231e
2122
2a54
ab08
a914
a063
a308
213e
2108
213e
7108
597f
4b08
c280
867f
ENDCHAR
STARTCHAR 02-79-93
ENCODING 28541
SWIDTH 1024 0
DWIDTH 16 0
BBX 16 16 0 -2
BITMAP
1000
13df
10c5
154b
56d5
5549
d230
9070
10dc
1387
3820
29c8
2c32
65c4
4018
c1e0
ENDCHAR
STARTCHAR 02-79-94
ENCODING 28542
SWIDTH 1024 0
DWIDTH 16 0
BBX 16 16 0 -2
BITMAP
2104
27ff
2104
29fc
a820
abfe
a222
a3fe
2020
23fe
2020
77ff
5050
58d8
c98c
8707
ENDCHAR
STARTCHAR 02-80-01
ENCODING 28705
SWIDTH 1024 0
DWIDTH 16 0
BBX 16 16 0 -2
BITMAP
11fe
1102
11fe
1502
55fe
5400
d3ff
9249
13ff
1000
3bfe
2884
2c48
6430
40ec
c387
ENDCHAR
STARTCHAR 02-80-02
ENCODING 28706
SWIDTH 1024 0
DWIDTH 16 0
BBX 16 16 0 -2
BITMAP
0814
ff92
007f
7f10
4118
7f38
0828
2a29
6b69
c94f
0904
338c
62c8
0660
1c38
f00f
ENDCHAR
STARTCHAR 02-80-03
ENCODING 28707
SWIDTH 1024 0
DWIDTH 16 0
BBX 16 16 0 -2
BITMAP
2088
2090
29ff
2910
b310
a5fe
a110
a110
21fe
2110
2110
71ff
5000
594a
cb4b
8201
ENDCHAR
STARTCHAR 02-80-04
ENCODING 28708
SWIDTH 1024 0
DWIDTH 16 0
BBX 16 16 0 -2
BITMAP
2004
2244
f99f
2244
2004
724e
6996
a245
2004
0100
110c
3398
62c0
0660
1c38
f00f
ENDCHAR
STARTCHAR 02-80-05
ENCODING 28709
SWIDTH 1024 0
DWIDTH 16 0
BBX 16 16 0 -2
BITMAP
61f8
3108
01f8
c108
61f8
0000
2fff
2100
63fe
4492
c126
0100
339c
66c0
1c70
f01f
ENDCHAR
STARTCHAR 02-80-06
ENCODING 28710
SWIDTH 1024 0
DWIDTH 16 0
BBX 16 16 0 -2
BITMAP
2000
27df
2451
2fdf
b451
a7df
a401
a421
2411
2555
2543
7641
5449
4c39
c401
8407
ENDCHAR
STARTCHAR 02-80-07
ENCODING 28711
SWIDTH 1024 0
DWIDTH 16 0
BBX 16 16 0 -2
BITMAP
1008
ffff
1008
0810
7f10
087c
ff94
2254
cb74
3e24
0875
ff53
0000
2444
6666
c333
ENDCHAR
STARTCHAR 02-80-08
ENCODING 28712
SWIDTH 1024 0
DWIDTH 16 0
BBX 16 16 0 -2
BITMAP
2108
2108
23df
2b14
aca2
a900
a7df
a451
27d1
2451
27d1
7411
57d1
4c17
c450
83d0
ENDCHAR
STARTCHAR 02-80-09
ENCODING 28713
SWIDTH 1024 0
DWIDTH 16 0
BBX 16 16 0 -2
BITMAP
0000
0000
0000
000c
00f8
3f80
0004
010c
6188
3098
1890
0810
0000
0000
0000
0000
ENDCHAR
STARTCHAR 02-80-10
ENCODING 28714
SWIDTH 1024 0
DWIDTH 16 0
BBX 16 16 0 -2
BITMAP
0000
0000
0000
000c
00f8
1f80
1118
110c
3186
2083
6081
c000
0000
0000
0000
0000
ENDCHAR
STARTCHAR 02-80-11
ENCODING 28715
SWIDTH 1024 0
DWIDTH 16 0
BBX 16 16 0 -2
BITMAP
0003
ff8e
94ba
92aa
ffaa
90aa
e8aa
aaaa
aaaa
eeaa
84aa
edaa
9baa
f2ab
80c9
ff81
ENDCHAR
STARTCHAR 02-80-12
ENCODING 28716
SWIDTH 1024 0
DWIDTH 16 0
BBX 16 16 0 -2
BITMAP
0240
0660
1c38
766e
0bc0
0660
1c38
f00f
1ff8
1108
1108
1ff8
1000
1001
1803
0ffe
ENDCHAR
STARTCHAR 02-80-13
ENCODING 28717
SWIDTH 1024 0
DWIDTH 16 0
BBX 16 16 0 -2
BITMAP
0660
1c38
766e
0bc0
1e78
f40f
07f0
3c30
0260
03c0
1e80
01fc
0f0c
0098
00f0
0780
ENDCHAR
STARTCHAR 02-80-14
ENCODING 28718
SWIDTH 1024 0
DWIDTH 16 0
BBX 16 16 0 -2
BITMAP
0020
0020
0020
0220
0120
01a0
00a0
0020
0060
01a0
0320
0620
0020
0020
0020
0020
ENDCHAR
STARTCHAR 02-80-15
ENCODING 28719
SWIDTH 1024 0
DWIDTH 16 0
BBX 16 16 0 -2
BITMAP
0904
498c
4888
4bfe
4820
7820
0820
09fc
f820
4820
4820
4fff
4820
4820
8820
0820
ENDCHAR
STARTCHAR 02-80-16
ENCODING 28720
SWIDTH 1024 0
DWIDTH 16 0
BBX 16 16 0 -2
BITMAP
4820
4820
4bff
4884
7c48
43ff
4201
4221
7820
4bff
4840
487e
4842
48c2
c982
8b0e
ENDCHAR
STARTCHAR 02-80-17
ENCODING 28721
SWIDTH 1024 0
DWIDTH 16 0
BBX 16 16 0 -2
BITMAP
4810
4bff
4a10
4afe
7e12
43ff
4212
42fe
7a10
4afe
4a92
4afe
4a92
4cfe
c892
8896
ENDCHAR
STARTCHAR 02-80-18
ENCODING 28722
SWIDTH 1024 0
DWIDTH 16 0
BBX 16 16 0 -2
BITMAP
1000
51fe
5022
5022
7ca2
d0a2
90a2
11a2
1122
1c62
7042
d042
10c6
1084
1184
131c
ENDCHAR
STARTCHAR 02-80-19
ENCODING 28723
SWIDTH 1024 0
DWIDTH 16 0
BBX 16 16 0 -2
BITMAP
0000
fefe
4242
6666
2c2c
1818
6c6c
c6c7
1100
1100
3ffc
2100
0100
ffff
0100
0100
ENDCHAR
STARTCHAR 02-80-20
ENCODING 28724
SWIDTH 1024 0
DWIDTH 16 0
BBX 16 16 0 -2
BITMAP
0848
184c
3044
67ff
a020
2030
2018
200d
1107
1100
3ffc
2100
0100
ffff
0100
0100
ENDCHAR
STARTCHAR 02-80-21
ENCODING 28725
SWIDTH 1024 0
DWIDTH 16 0
BBX 16 16 0 -2
BITMAP
1010
5010
5010
5010
7dff
d010
9010
1010
1010
1cfe
f082
1082
1082
1082
1082
10fe
ENDCHAR
STARTCHAR 02-80-22
ENCODING 28726
SWIDTH 1024 0
DWIDTH 16 0
BBX 16 16 0 -2
BITMAP
1020
5020
51ff
5101
7d01
d0fe
9004
1008
1c10
71ff
d010
1010
1010
1010
1010
1070
ENDCHAR
STARTCHAR 02-80-23
ENCODING 28727
SWIDTH 1024 0
DWIDTH 16 0
BBX 16 16 0 -2
BITMAP
1010
5090
5090
51fe
7d10
d010
9010
11ff
1c10
7000
d0fe
1082
1082
1082
10fe
1000
ENDCHAR
STARTCHAR 02-80-24
ENCODING 28728
SWIDTH 1024 0
DWIDTH 16 0
BBX 16 16 0 -2
BITMAP
0804
7f04
087f
ff84
0824
7f34
0814
0f84
f81c
0100
1100
3ff8
2100
ffff
0100
0100
ENDCHAR
STARTCHAR 02-80-25
ENCODING 28729
SWIDTH 1024 0
DWIDTH 16 0
BBX 16 16 0 -2
BITMAP
2010
2038
646c
44c6
ffbb
0200
10fe
5004
7c0c
9008
10fe
fe82
1082
1082
10fe
1000
ENDCHAR
STARTCHAR 02-80-26
ENCODING 28730
SWIDTH 1024 0
DWIDTH 16 0
BBX 16 16 0 -2
BITMAP
0610
0330
0160
01c0
0080
01c0
0740
1c40
00e0
01a0
0720
1c20
0020
0020
0060
01c0
ENDCHAR
STARTCHAR 02-80-27
ENCODING 28731
SWIDTH 1024 0
DWIDTH 16 0
BBX 16 16 0 -2
BITMAP
0208
020c
0204
ffff
0400
0400
0410
0e10
0a30
0b20
1960
31c0
60e0
c1b0
071c
1c07
ENDCHAR
STARTCHAR 02-80-28
ENCODING 28732
SWIDTH 1024 0
DWIDTH 16 0
BBX 16 16 0 -2
BITMAP
0880
8880
5080
2080
27f8
5088
9088
1088
3088
3088
5088
9188
1108
1309
3209
e607
ENDCHAR
STARTCHAR 02-80-29
ENCODING 28733
SWIDTH 1024 0
DWIDTH 16 0
BBX 16 16 0 -2
BITMAP
0840
8840
5040
2040
23f8
5048
9048
1148
30c8
3048
5068
90a8
10a8
1189
330d
e607
ENDCHAR
STARTCHAR 02-80-30
ENCODING 28734
SWIDTH 1024 0
DWIDTH 16 0
BBX 16 16 0 -2
BITMAP
0840
88c0
5084
2184
213e
57eb
9088
1088
3088
3088
5088
9088
1188
1109
3309
e607
ENDCHAR
STARTCHAR 02-80-31
ENCODING 28735
SWIDTH 1024 0
DWIDTH 16 0
BBX 16 16 0 -2
BITMAP
0840
8843
507e
27c0
2040
5244
9244
1244
3244
3244
53fc
9040
1040
1041
3067
e03c
ENDCHAR
STARTCHAR 02-80-32
ENCODING 28736
SWIDTH 1024 0
DWIDTH 16 0
BBX 16 16 0 -2
BITMAP
0820
8920
5120
2120
21fe
5320
9220
1020
3020
31fc
5020
9020
1020
1020
37ff
e000
ENDCHAR
STARTCHAR 02-80-33
ENCODING 28737
SWIDTH 1024 0
DWIDTH 16 0
BBX 16 16 0 -2
BITMAP
0800
8bfe
5042
2042
20c2
5086
9184
131c
3000
31fe
5102
9102
1102
1102
3102
e1fe
ENDCHAR
STARTCHAR 02-80-34
ENCODING 28738
SWIDTH 1024 0
DWIDTH 16 0
BBX 16 16 0 -2
BITMAP
0820
8820
5020
2020
23fe
5222
9222
1222
3222
33fe
5222
9222
1222
1222
33fe
e000
ENDCHAR
STARTCHAR 02-80-35
ENCODING 28739
SWIDTH 1024 0
DWIDTH 16 0
BBX 16 16 0 -2
BITMAP
0820
8870
5050
20d8
218c
5306
96fb
1020
3020
33fe
5020
9124
1124
1326
3623
e0e0
ENDCHAR
STARTCHAR 02-80-36
ENCODING 28740
SWIDTH 1024 0
DWIDTH 16 0
BBX 16 16 0 -2
BITMAP
0800
89fc
5000
27ff
2000
51fc
9000
1000
31fc
3000
5000
93fe
1202
1202
3202
e3fe
ENDCHAR
STARTCHAR 02-80-37
ENCODING 28741
SWIDTH 1024 0
DWIDTH 16 0
BBX 16 16 0 -2
BITMAP
0820
883e
5020
23ff
2201
5222
9238
12e0
3222
321e
5200
9248
1248
1249
34c9
e187
ENDCHAR
STARTCHAR 02-80-38
ENCODING 28742
SWIDTH 1024 0
DWIDTH 16 0
BBX 16 16 0 -2
BITMAP
7e10
4214
4216
7e12
4210
42ff
7e10
0010
7e10
4238
7e28
4228
7e2c
4264
4246
46c3
ENDCHAR
STARTCHAR 02-80-39
ENCODING 28743
SWIDTH 1024 0
DWIDTH 16 0
BBX 16 16 0 -2
BITMAP
1102
950a
550a
6fea
290a
610a
afea
210a
210a
6fea
a92a
292a
2922
2922
2962
c10e
ENDCHAR
STARTCHAR 02-80-40
ENCODING 28744
SWIDTH 1024 0
DWIDTH 16 0
BBX 16 16 0 -2
BITMAP
080c
8878
53c8
264c
2424
53fc
9044
1044
37ff
3044
5044
93fc
1040
1040
3040
e1c0
ENDCHAR
STARTCHAR 02-80-41
ENCODING 28745
SWIDTH 1024 0
DWIDTH 16 0
BBX 16 16 0 -2
BITMAP
0888
8888
57ff
2088
2088
5100
91fe
1302
32f2
3692
5092
9092
10f2
1002
3006
e01c
ENDCHAR
STARTCHAR 02-80-42
ENCODING 28746
SWIDTH 1024 0
DWIDTH 16 0
BBX 16 16 0 -2
BITMAP
0820
8820
57ff
20a8
20a8
51ac
9326
1603
31fc
3104
51fc
9104
11fc
1000
37ff
e000
ENDCHAR
STARTCHAR 02-80-43
ENCODING 28747
SWIDTH 1024 0
DWIDTH 16 0
BBX 16 16 0 -2
BITMAP
0800
8bfe
5222
23fe
2222
5222
93fe
1000
33fe
3202
53fe
9202
13fe
1202
3202
e206
ENDCHAR
STARTCHAR 02-80-44
ENCODING 28748
SWIDTH 1024 0
DWIDTH 16 0
BBX 16 16 0 -2
BITMAP
0800
8bfe
5084
2048
23ff
5052
90d4
1190
3310
3020
57ff
90a8
11ac
1326
3623
e020
ENDCHAR
STARTCHAR 02-80-45
ENCODING 28749
SWIDTH 1024 0
DWIDTH 16 0
BBX 16 16 0 -2
BITMAP
0800
8fbe
5482
2482
2482
57be
9400
147e
37a2
3436
5414
979c
1408
141c
3436
e463
ENDCHAR
STARTCHAR 02-80-46
ENCODING 28750
SWIDTH 1024 0
DWIDTH 16 0
BBX 16 16 0 -2
BITMAP
0800
8bff
5201
22fd
2084
5084
90fc
1084
3084
30fc
5020
93ff
1000
1048
30cc
e387
ENDCHAR
STARTCHAR 02-80-47
ENCODING 28751
SWIDTH 1024 0
DWIDTH 16 0
BBX 16 16 0 -2
BITMAP
0820
7f20
087f
ffc2
0822
ffb6
101c
3f14
6136
c763
0108
0104
ffff
0420
1c38
f00f
ENDCHAR
STARTCHAR 02-80-48
ENCODING 28752
SWIDTH 1024 0
DWIDTH 16 0
BBX 16 16 0 -2
BITMAP
0818
8bf4
5246
2422
23fc
5204
9204
13fe
3202
3202
53ff
9601
1415
1955
3343
e20e
ENDCHAR
STARTCHAR 02-80-49
ENCODING 28753
SWIDTH 1024 0
DWIDTH 16 0
BBX 16 16 0 -2
BITMAP
0820
8870
50d8
218c
2707
50f8
9000
13de
3252
3252
53de
9000
1104
1104
338e
e6db
ENDCHAR
STARTCHAR 02-80-50
ENCODING 28754
SWIDTH 1024 0
DWIDTH 16 0
BBX 16 16 0 -2
BITMAP
1200
97bf
5c85
2105
27cd
5559
9553
17c0
3554
355f
57d4
9444
147f
1444
3444
e8c4
ENDCHAR
STARTCHAR 02-80-51
ENCODING 28755
SWIDTH 1024 0
DWIDTH 16 0
BBX 16 16 0 -2
BITMAP
08f8
8888
5088
20f8
2000
53de
9252
1252
33de
3020
57ff
90a8
11ac
1326
3623
e020
ENDCHAR
STARTCHAR 02-80-52
ENCODING 28756
SWIDTH 1024 0
DWIDTH 16 0
BBX 16 16 0 -2
BITMAP
1000
97ff
5124
2222
27ff
5222
9376
12aa
3376
3222
5376
92aa
1376
1222
3222
e226
ENDCHAR
STARTCHAR 02-80-53
ENCODING 28757
SWIDTH 1024 0
DWIDTH 16 0
BBX 16 16 0 -2
BITMAP
080e
8bf8
5020
27ff
2020
53fe
9222
12aa
32aa
33fe
5020
93fe
1020
17ff
3292
e449
ENDCHAR
STARTCHAR 02-80-54
ENCODING 28758
SWIDTH 1024 0
DWIDTH 16 0
BBX 16 16 0 -2
BITMAP
0820
8bff
5201
21fe
20a4
5328
9030
11fe
3702
31fe
5102
91fe
1102
11fe
3084
e303
ENDCHAR
STARTCHAR 02-80-55
ENCODING 28759
SWIDTH 1024 0
DWIDTH 16 0
BBX 16 16 0 -2
BITMAP
0820
8fff
5448
25fe
2448
5478
9400
17ff
3420
35fe
5522
95fe
1522
19fe
3084
e303
ENDCHAR
STARTCHAR 02-80-56
ENCODING 28760
SWIDTH 1024 0
DWIDTH 16 0
BBX 16 16 0 -2
BITMAP
279e
2492
a79e
4000
4fff
a808
2bc8
290f
2ffa
6a52
abca
2a4e
2bc4
324e
23ca
c65b
ENDCHAR
STARTCHAR 02-80-57
ENCODING 28761
SWIDTH 1024 0
DWIDTH 16 0
BBX 16 16 0 -2
BITMAP
1020
1020
1020
fea4
10a4
30a6
21a2
c523
6c24
2824
186c
3008
2418
6430
5e60
f2c0
ENDCHAR
STARTCHAR 02-80-58
ENCODING 28762
SWIDTH 1024 0
DWIDTH 16 0
BBX 16 16 0 -2
BITMAP
0000
7ffe
0100
0130
0118
0108
0100
3ffc
0100
0100
0100
0100
0100
0100
ffff
0000
ENDCHAR
STARTCHAR 02-80-59
ENCODING 28763
SWIDTH 1024 0
DWIDTH 16 0
BBX 16 16 0 -2
BITMAP
0002
0122
f922
2122
2122
2122
2122
f922
2122
2122
2122
2122
3922
e302
0202
0602
ENDCHAR
STARTCHAR 02-80-60
ENCODING 28764
SWIDTH 1024 0
DWIDTH 16 0
BBX 16 16 0 -2
BITMAP
0000
01fe
f802
2002
2002
2002
21fe
f900
2100
2100
2100
2100
3901
e183
00fe
0000
ENDCHAR
STARTCHAR 02-80-61
ENCODING 28765
SWIDTH 1024 0
DWIDTH 16 0
BBX 16 16 0 -2
BITMAP
0078
0008
f88c
2084
2186
2102
2343
f840
2040
2040
20c4
2084
3884
e09e
00f2
0383
ENDCHAR
STARTCHAR 02-80-62
ENCODING 28766
SWIDTH 1024 0
DWIDTH 16 0
BBX 16 16 0 -2
BITMAP
0020
0020
f820
23fe
2020
2020
2020
f820
23ff
2050
2050
20d8
3888
e18c
0306
0603
ENDCHAR
STARTCHAR 02-80-63
ENCODING 28767
SWIDTH 1024 0
DWIDTH 16 0
BBX 16 16 0 -2
BITMAP
0000
01fe
f902
2102
2102
21fe
2102
f902
2102
21fe
2102
2102
3b02
e202
0602
0c0e
ENDCHAR
STARTCHAR 02-80-64
ENCODING 28768
SWIDTH 1024 0
DWIDTH 16 0
BBX 16 16 0 -2
BITMAP
0000
01fe
fc20
2020
2020
2020
2020
fdfe
2020
2020
2020
2020
3c20
e020
03ff
0000
ENDCHAR
STARTCHAR 02-80-65
ENCODING 28769
SWIDTH 1024 0
DWIDTH 16 0
BBX 16 16 0 -2
BITMAP
0084
0084
f884
2084
23ff
2084
2084
f884
2084
20fc
2084
2084
3884
e084
0084
00fc
ENDCHAR
STARTCHAR 02-80-66
ENCODING 28770
SWIDTH 1024 0
DWIDTH 16 0
BBX 16 16 0 -2
BITMAP
0020
0020
7c20
1020
103f
1020
1020
7c20
1020
11fe
1102
1102
1d02
7102
0102
01fe
ENDCHAR
STARTCHAR 02-80-67
ENCODING 28771
SWIDTH 1024 0
DWIDTH 16 0
BBX 16 16 0 -2
BITMAP
0020
0020
f820
23ff
2020
2060
20c4
f98c
20c8
2058
2030
2064
3846
e0c2
019f
03f1
ENDCHAR
STARTCHAR 02-80-68
ENCODING 28772
SWIDTH 1024 0
DWIDTH 16 0
BBX 16 16 0 -2
BITMAP
0088
0088
f888
2288
2288
228b
22ee
fa88
2288
2288
2288
2288
3a88
e2e9
0389
0607
ENDCHAR
STARTCHAR 02-80-69
ENCODING 28773
SWIDTH 1024 0
DWIDTH 16 0
BBX 16 16 0 -2
BITMAP
0000
03fe
f842
2042
20c2
2086
2184
fb1c
2000
21fe
2102
2102
3902
e102
0102
01fe
ENDCHAR
STARTCHAR 02-80-70
ENCODING 28774
SWIDTH 1024 0
DWIDTH 16 0
BBX 16 16 0 -2
BITMAP
0020
0020
f820
23ff
2221
2221
2221
fbff
2221
2221
2221
23ff
3820
e020
0020
0020
ENDCHAR
STARTCHAR 02-80-71
ENCODING 28775
SWIDTH 1024 0
DWIDTH 16 0
BBX 16 16 0 -2
BITMAP
0040
f8c0
238f
2249
2249
2249
fa49
2249
2249
2249
2249
3bc9
e64f
0048
00c8
0188
ENDCHAR
STARTCHAR 02-80-72
ENCODING 28776
SWIDTH 1024 0
DWIDTH 16 0
BBX 16 16 0 -2
BITMAP
0000
fe7f
1008
1008
7c3e
1008
1008
1e7f
f100
0100
0380
02c0
0660
0c30
381c
e007
ENDCHAR
STARTCHAR 02-80-73
ENCODING 28777
SWIDTH 1024 0
DWIDTH 16 0
BBX 16 16 0 -2
BITMAP
0090
f890
2492
2696
229c
2290
f890
2090
209c
2396
2e92
2090
3990
e111
0313
060e
ENDCHAR
STARTCHAR 02-80-74
ENCODING 28778
SWIDTH 1024 0
DWIDTH 16 0
BBX 16 16 0 -2
BITMAP
0012
0011
f810
23ff
2210
2210
23f2
fa52
2256
2254
225c
2248
3adc
e615
0437
0c62
ENDCHAR
STARTCHAR 02-80-75
ENCODING 28779
SWIDTH 1024 0
DWIDTH 16 0
BBX 16 16 0 -2
BITMAP
0020
0020
fbfe
2202
2202
21fc
2000
f800
27ff
2088
2088
2088
3988
e109
0309
0607
ENDCHAR
STARTCHAR 02-80-76
ENCODING 28780
SWIDTH 1024 0
DWIDTH 16 0
BBX 16 16 0 -2
BITMAP
0000
f9fc
2044
2044
23ff
2044
f844
21fc
2080
2080
21fe
3b82
e682
0082
0082
00fe
ENDCHAR
STARTCHAR 02-80-77
ENCODING 28781
SWIDTH 1024 0
DWIDTH 16 0
BBX 16 16 0 -2
BITMAP
0100
0100
fbff
2200
2400
23ff
2022
f824
2120
2120
213e
2120
3920
e1e0
0338
060f
ENDCHAR
STARTCHAR 02-80-78
ENCODING 28782
SWIDTH 1024 0
DWIDTH 16 0
BBX 16 16 0 -2
BITMAP
0006
003c
f9e4
2326
2212
21fe
2022
f822
23ff
2022
2022
21fe
3820
e020
0020
00e0
ENDCHAR
STARTCHAR 02-80-79
ENCODING 28783
SWIDTH 1024 0
DWIDTH 16 0
BBX 16 16 0 -2
BITMAP
0000
03fe
fa02
2222
22fa
2222
22fa
fa22
2202
22fa
228a
228a
3afa
e202
0202
040e
ENDCHAR
STARTCHAR 02-80-80
ENCODING 28784
SWIDTH 1024 0
DWIDTH 16 0
BBX 16 16 0 -2
BITMAP
0000
fe7f
1008
1008
7c3e
1008
1e08
f17f
0100
0100
ffff
0540
0d60
3938
e10f
0100
ENDCHAR
STARTCHAR 02-80-81
ENCODING 28785
SWIDTH 1024 0
DWIDTH 16 0
BBX 16 16 0 -2
BITMAP
0020
f820
23ff
2020
23ff
2221
fba5
22ad
2221
23ff
20a8
38ac
e1a6
0323
0020
0020
ENDCHAR
STARTCHAR 02-80-82
ENCODING 28786
SWIDTH 1024 0
DWIDTH 16 0
BBX 16 16 0 -2
BITMAP
001c
01f0
f820
21fe
2122
2122
21fe
f820
23ff
2221
2229
223d
3ae5
e201
0201
0207
ENDCHAR
STARTCHAR 02-80-83
ENCODING 28787
SWIDTH 1024 0
DWIDTH 16 0
BBX 16 16 0 -2
BITMAP
0020
0020
fbfe
2020
21fc
2050
27ff
f888
2104
23fe
2505
2104
39fc
e104
0104
01fc
ENDCHAR
STARTCHAR 02-80-84
ENCODING 28788
SWIDTH 1024 0
DWIDTH 16 0
BBX 16 16 0 -2
BITMAP
0100
01f8
fb08
2210
27fe
2252
2252
fa52
229e
2302
2020
27ff
3850
e0d8
018c
0707
ENDCHAR
STARTCHAR 02-80-85
ENCODING 28789
SWIDTH 1024 0
DWIDTH 16 0
BBX 16 16 0 -2
BITMAP
0000
01f8
f908
21f8
2108
2108
21f8
f800
27ff
2100
23fe
2652
3892
e326
0044
019c
ENDCHAR
STARTCHAR 02-80-86
ENCODING 28790
SWIDTH 1024 0
DWIDTH 16 0
BBX 16 16 0 -2
BITMAP
0020
0040
f9fc
2104
21fc
2104
2104
f9fc
2000
23fe
2020
21fc
3820
e020
07ff
0000
ENDCHAR
STARTCHAR 02-80-87
ENCODING 28791
SWIDTH 1024 0
DWIDTH 16 0
BBX 16 16 0 -2
BITMAP
010e
01f8
f901
20ff
2000
22fe
2282
fafe
2282
22fe
2282
22fe
3a00
e3ff
0084
0303
ENDCHAR
STARTCHAR 02-80-88
ENCODING 28792
SWIDTH 1024 0
DWIDTH 16 0
BBX 16 16 0 -2
BITMAP
0010
0020
fbfe
2222
22ba
224a
22aa
fa12
222a
2202
23fe
2020
3ab2
e293
06c5
047c
ENDCHAR
STARTCHAR 02-80-89
ENCODING 28793
SWIDTH 1024 0
DWIDTH 16 0
BBX 16 16 0 -2
BITMAP
0124
0124
fa48
2124
21fc
2124
21fc
f924
21fc
2020
27ff
20a8
39ac
e326
0623
0020
ENDCHAR
STARTCHAR 02-80-90
ENCODING 28794
SWIDTH 1024 0
DWIDTH 16 0
BBX 16 16 0 -2
BITMAP
0108
0108
f7c8
210f
210a
27da
2112
f10a
2fea
220e
23c4
2244
324e
e64a
044a
0ddb
ENDCHAR
STARTCHAR 02-80-91
ENCODING 28795
SWIDTH 1024 0
DWIDTH 16 0
BBX 16 16 0 -2
BITMAP
0010
f790
2210
777e
2210
3210
e790
1810
3cff
6610
db38
0028
7e6c
0c44
18c6
3183
ENDCHAR
STARTCHAR 02-80-92
ENCODING 28796
SWIDTH 1024 0
DWIDTH 16 0
BBX 16 16 0 -2
BITMAP
0004
01e8
fa31
214a
2084
237b
2000
f8fc
2084
2084
20fc
2000
3884
e0cc
0048
03ff
ENDCHAR
STARTCHAR 02-80-93
ENCODING 28797
SWIDTH 1024 0
DWIDTH 16 0
BBX 16 16 0 -2
BITMAP
61f8
3108
01f8
c108
61f8
0000
2fff
2100
63fe
4492
c126
ffff
0100
3ffc
0108
ffff
ENDCHAR
STARTCHAR 02-80-94
ENCODING 28798
SWIDTH 1024 0
DWIDTH 16 0
BBX 16 16 0 -2
BITMAP
0040
f840
27ff
2088
228a
2104
fbfe
2505
21fc
2104
21fc
3820
e124
0326
0623
00e0
ENDCHAR
STARTCHAR 02-81-01
ENCODING 28961
SWIDTH 1024 0
DWIDTH 16 0
BBX 16 16 0 -2
BITMAP
001c
01f0
fa22
2124
27ff
20a8
21ac
fb26
2623
2000
23fe
2222
3bfe
e222
0222
03fe
ENDCHAR
STARTCHAR 02-81-02
ENCODING 28962
SWIDTH 1024 0
DWIDTH 16 0
BBX 16 16 0 -2
BITMAP
0212
0336
f924
247f
26c8
2248
207e
fb48
2148
217e
2148
2148
397f
e300
0280
067f
ENDCHAR
STARTCHAR 02-81-03
ENCODING 28963
SWIDTH 1024 0
DWIDTH 16 0
BBX 16 16 0 -2
BITMAP
0288
0288
f7c8
229f
2292
2432
27d2
f45a
2f4a
254e
2544
2544
374e
e0ca
009b
03b1
ENDCHAR
STARTCHAR 02-81-04
ENCODING 28964
SWIDTH 1024 0
DWIDTH 16 0
BBX 16 16 0 -2
BITMAP
00f8
0088
f888
20f8
2000
23de
2252
fa52
23de
2020
27ff
20a8
39ac
e326
0623
0020
ENDCHAR
STARTCHAR 02-81-05
ENCODING 28965
SWIDTH 1024 0
DWIDTH 16 0
BBX 16 16 0 -2
BITMAP
0222
0326
f924
27ff
2401
25fd
2104
f9fc
2000
23fe
2222
2222
3bfe
e222
0222
03fe
ENDCHAR
STARTCHAR 02-81-06
ENCODING 28966
SWIDTH 1024 0
DWIDTH 16 0
BBX 16 16 0 -2
BITMAP
0020
03fe
f820
21fc
2000
27ff
2001
f9fd
2020
23fe
2000
27ff
3802
e7bf
0492
0786
ENDCHAR
STARTCHAR 02-81-07
ENCODING 28967
SWIDTH 1024 0
DWIDTH 16 0
BBX 16 16 0 -2
BITMAP
07df
0145
fa59
21c7
275d
2041
2020
fbfe
2104
2104
238e
26db
3820
e7ff
0020
0020
ENDCHAR
STARTCHAR 02-81-08
ENCODING 28968
SWIDTH 1024 0
DWIDTH 16 0
BBX 16 16 0 -2
BITMAP
1800
33ec
2224
3bac
2224
3bac
22a4
7ffe
4002
5ffa
0100
0100
1ff8
0110
0108
ffff
ENDCHAR
STARTCHAR 02-81-09
ENCODING 28969
SWIDTH 1024 0
DWIDTH 16 0
BBX 16 16 0 -2
BITMAP
0020
07ff
f800
23de
2252
23de
2088
fbfe
2088
23fe
2088
27ff
38c9
e78a
00e4
0383
ENDCHAR
STARTCHAR 02-81-10
ENCODING 28970
SWIDTH 1024 0
DWIDTH 16 0
BBX 16 16 0 -2
BITMAP
0088
07ff
f888
23de
2252
23de
2084
f888
21fe
2310
25fc
2110
39fc
e110
0110
01ff
ENDCHAR
STARTCHAR 02-81-11
ENCODING 28971
SWIDTH 1024 0
DWIDTH 16 0
BBX 16 16 0 -2
BITMAP
0610
1c50
7450
44fe
5490
5410
55ff
5410
5430
542c
5666
52c2
5300
d580
9ce0
b43f
ENDCHAR
STARTCHAR 02-81-12
ENCODING 28972
SWIDTH 1024 0
DWIDTH 16 0
BBX 16 16 0 -2
BITMAP
0000
feff
8040
8040
8440
a47c
b444
9c44
8864
9c54
9454
a444
8044
8045
fe7d
00c3
ENDCHAR
STARTCHAR 02-81-13
ENCODING 28973
SWIDTH 1024 0
DWIDTH 16 0
BBX 16 16 0 -2
BITMAP
03f0
1818
300c
eff7
0210
0610
1c70
0000
ffff
0800
0ff0
0a10
1b10
1111
1ff3
f00e
ENDCHAR
STARTCHAR 02-81-14
ENCODING 28974
SWIDTH 1024 0
DWIDTH 16 0
BBX 16 16 0 -2
BITMAP
0000
fe7e
4040
407c
4040
7c7c
4440
4440
65ff
5440
54c4
448e
45fa
5c01
7603
c3fe
ENDCHAR
STARTCHAR 02-81-15
ENCODING 28975
SWIDTH 1024 0
DWIDTH 16 0
BBX 16 16 0 -2
BITMAP
0000
3eff
2040
3e40
2040
207c
3e44
2044
2064
ff54
2054
2244
6244
4f45
f97d
00c3
ENDCHAR
STARTCHAR 02-81-16
ENCODING 28976
SWIDTH 1024 0
DWIDTH 16 0
BBX 16 16 0 -2
BITMAP
0010
fe20
40fe
4082
40fe
7c82
44fe
4411
65d3
545a
54d4
4496
45b3
5c01
7603
c3fe
ENDCHAR
STARTCHAR 02-81-17
ENCODING 28977
SWIDTH 1024 0
DWIDTH 16 0
BBX 16 16 0 -2
BITMAP
0020
0120
f920
8920
89fe
8b20
8a20
f820
8820
8bfe
8820
8820
f820
0020
07ff
0000
ENDCHAR
STARTCHAR 02-81-18
ENCODING 28978
SWIDTH 1024 0
DWIDTH 16 0
BBX 16 16 0 -2
BITMAP
0008
ff28
1028
327f
6648
d408
3c08
6e3e
ca08
1a08
3a08
6a08
cb7f
0980
18e0
703f
ENDCHAR
STARTCHAR 02-81-19
ENCODING 28979
SWIDTH 1024 0
DWIDTH 16 0
BBX 16 16 0 -2
BITMAP
0100
0300
0200
3ffe
2082
2082
2082
3ffe
2082
2082
2082
3ffe
2082
6082
4082
c08e
ENDCHAR
STARTCHAR 02-81-20
ENCODING 28980
SWIDTH 1024 0
DWIDTH 16 0
BBX 16 16 0 -2
BITMAP
0020
0020
fc20
a420
a420
a420
a420
fc70
a450
a450
a458
a4c8
fc8c
0184
0306
0603
ENDCHAR
STARTCHAR 02-81-21
ENCODING 28981
SWIDTH 1024 0
DWIDTH 16 0
BBX 16 16 0 -2
BITMAP
0000
03fe
fc82
a482
a486
a4c4
a444
fc4c
a468
a438
a410
a410
fc38
006c
00c6
0183
ENDCHAR
STARTCHAR 02-81-22
ENCODING 28982
SWIDTH 1024 0
DWIDTH 16 0
BBX 16 16 0 -2
BITMAP
0002
0092
7c92
5492
5492
5492
5492
7c92
5492
5492
5492
5492
7c92
0182
0102
0302
ENDCHAR
STARTCHAR 02-81-23
ENCODING 28983
SWIDTH 1024 0
DWIDTH 16 0
BBX 16 16 0 -2
BITMAP
0842
18c6
318c
6318
4210
318c
18c6
0842
0000
7ffe
4102
4102
7ffe
4102
4102
7ffe
ENDCHAR
STARTCHAR 02-81-24
ENCODING 28984
SWIDTH 1024 0
DWIDTH 16 0
BBX 16 16 0 -2
BITMAP
0000
3ffc
2104
2104
3ffc
2104
2104
3ffc
0000
ffff
0420
0420
0c20
0820
1820
7020
ENDCHAR
STARTCHAR 02-81-25
ENCODING 28985
SWIDTH 1024 0
DWIDTH 16 0
BBX 16 16 0 -2
BITMAP
0000
00ff
7c80
5480
5480
54fe
54a2
7ca2
54b6
5494
549c
5488
7d9c
0114
0336
0063
ENDCHAR
STARTCHAR 02-81-26
ENCODING 28986
SWIDTH 1024 0
DWIDTH 16 0
BBX 16 16 0 -2
BITMAP
0020
002c
f826
a822
a820
abff
a820
f820
a870
a850
a850
a8d8
f888
018c
0306
0603
ENDCHAR
STARTCHAR 02-81-27
ENCODING 28987
SWIDTH 1024 0
DWIDTH 16 0
BBX 16 16 0 -2
BITMAP
0000
ffff
0000
3ffc
2004
2004
3ffc
0000
7ffe
4102
4102
7ffe
4102
4102
7ffe
0000
ENDCHAR
STARTCHAR 02-81-28
ENCODING 28988
SWIDTH 1024 0
DWIDTH 16 0
BBX 16 16 0 -2
BITMAP
0810
0810
0810
ff90
0010
7f10
4910
4910
4910
7f38
4928
4928
496c
7f44
00c6
0183
ENDCHAR
STARTCHAR 02-81-29
ENCODING 28989
SWIDTH 1024 0
DWIDTH 16 0
BBX 16 16 0 -2
BITMAP
0100
0380
0ee0
3838
efef
0100
3ffc
0910
310c
6306
3ffc
2104
3ffc
2104
2104
3ffc
ENDCHAR
STARTCHAR 02-81-30
ENCODING 28990
SWIDTH 1024 0
DWIDTH 16 0
BBX 16 16 0 -2
BITMAP
0100
0380
0ee0
3838
efef
0000
3ffc
0910
310c
6306
3ffc
2104
3ffc
2104
2104
3ffc
ENDCHAR
STARTCHAR 02-81-31
ENCODING 28991
SWIDTH 1024 0
DWIDTH 16 0
BBX 16 16 0 -2
BITMAP
0000
ffff
0240
7e7e
4242
4242
7e7e
0240
3ffc
2104
2104
3ffc
2104
2104
3ffc
0000
ENDCHAR
STARTCHAR 02-81-32
ENCODING 28992
SWIDTH 1024 0
DWIDTH 16 0
BBX 16 16 0 -2
BITMAP
0000
ffff
0000
3ffc
2104
3ffc
2104
ffff
0000
3ffc
2104
3ffc
2104
3ffc
0000
ffff
ENDCHAR
STARTCHAR 02-81-33
ENCODING 28993
SWIDTH 1024 0
DWIDTH 16 0
BBX 16 16 0 -2
BITMAP
000c
0038
f9e0
a820
abff
a820
a9fe
f922
a9fe
a922
a9fe
a820
f9fe
0020
0020
03ff
ENDCHAR
STARTCHAR 02-81-34
ENCODING 28994
SWIDTH 1024 0
DWIDTH 16 0
BBX 16 16 0 -2
BITMAP
1ff8
1108
1108
1ff8
1108
1108
1ff8
0000
fe7f
9249
9249
fe7f
9249
9249
fe7f
0000
ENDCHAR
STARTCHAR 02-81-35
ENCODING 28995
SWIDTH 1024 0
DWIDTH 16 0
BBX 16 16 0 -2
BITMAP
0000
03df
f8c5
a94b
aad5
a949
aa20
f870
a9dc
af07
a820
a9c8
f832
01c4
0018
01e0
ENDCHAR
STARTCHAR 02-81-36
ENCODING 28996
SWIDTH 1024 0
DWIDTH 16 0
BBX 16 16 0 -2
BITMAP
0000
1ff8
0020
0040
0080
0880
0880
08f8
0880
0880
0880
0880
089c
08f0
0f80
3800
ENDCHAR
STARTCHAR 02-81-37
ENCODING 28997
SWIDTH 1024 0
DWIDTH 16 0
BBX 16 16 0 -2
BITMAP
0100
0100
7ffe
0100
1ff8
0108
ffff
0108
1ff8
0100
0900
09f8
0900
1d00
37c0
607e
ENDCHAR
STARTCHAR 02-81-38
ENCODING 28998
SWIDTH 1024 0
DWIDTH 16 0
BBX 16 16 0 -2
BITMAP
0080
0080
1fff
9000
d000
5040
1040
1040
77fe
d040
1040
3040
2040
6040
c040
1fff
ENDCHAR
STARTCHAR 02-81-39
ENCODING 28999
SWIDTH 1024 0
DWIDTH 16 0
BBX 16 16 0 -2
BITMAP
0080
0080
3fff
a000
6080
2080
2484
248c
6c98
a880
21c0
6140
4360
c630
0c1c
3807
ENDCHAR
STARTCHAR 02-81-40
ENCODING 29000
SWIDTH 1024 0
DWIDTH 16 0
BBX 16 16 0 -2
BITMAP
0080
0080
3fff
a000
6080
2082
3e86
22cc
62d8
a6e0
24b0
6c90
4898
d88c
3087
0180
ENDCHAR
STARTCHAR 02-81-41
ENCODING 29001
SWIDTH 1024 0
DWIDTH 16 0
BBX 16 16 0 -2
BITMAP
0080
0080
3fff
a000
6040
2040
2ffe
2040
6040
a040
27fc
6040
4040
c040
0040
1fff
ENDCHAR
STARTCHAR 02-81-42
ENCODING 29002
SWIDTH 1024 0
DWIDTH 16 0
BBX 16 16 0 -2
BITMAP
0080
0080
3fff
a000
600c
27f8
2420
2420
67ff
a410
2410
6798
4c08
c00d
0fe7
0002
ENDCHAR
STARTCHAR 02-81-43
ENCODING 29003
SWIDTH 1024 0
DWIDTH 16 0
BBX 16 16 0 -2
BITMAP
0080
0080
3fff
a120
6120
2ffc
2124
2124
6ffc
a920
2920
6ffe
4222
c222
062e
1c20
ENDCHAR
STARTCHAR 02-81-44
ENCODING 29004
SWIDTH 1024 0
DWIDTH 16 0
BBX 16 16 0 -2
BITMAP
0080
0080
1fff
9000
d100
5100
13fe
1202
7602
d1f2
1112
3112
21f2
6006
c004
001c
ENDCHAR
ENDFONT
